<svg width="289" height="87" xmlns="http://www.w3.org/2000/svg" preserveAspectRatio="xMidYMid meet">

 <g>
  <title>background</title>
  <rect fill="none" id="canvas_background" height="89" width="291" y="-1" x="-1"/>
 </g>
 <g>
  <title>Layer 1</title>
  <g fill="#fbfbfb" id="layer1">
   <path stroke="null" fill="#20b7f2" id="svg_1" d="m60.453312,74.220463c-2.941441,-0.427846 -5.90071,-1.372673 -7.612094,-2.424461c-0.374365,-0.23175 -0.713077,-0.410019 -0.766557,-0.410019c-0.053481,0 -0.588288,-0.338711 -1.21223,-0.748731c-1.67573,-1.140923 -4.920229,-4.456729 -6.061152,-6.221594c-0.98048,-1.497461 -2.442288,-4.367595 -2.442288,-4.831095c-0.017827,-0.124788 -0.124788,-0.427846 -0.249577,-0.659596c-0.213923,-0.374365 -0.249577,-0.23175 -0.445673,1.604423c-0.338711,3.048403 -1.051788,4.902402 -2.763172,7.166421c-0.855692,1.140923 -2.852307,2.959268 -3.850614,3.52973c-0.249577,0.142615 -0.481327,0.285231 -0.534808,0.338711c-0.053481,0.053481 -0.445673,0.267404 -0.891346,0.4635c-3.779306,1.800519 -5.312421,2.121403 -10.161343,2.121403c-4.724133,0 -6.203767,-0.303058 -9.893939,-2.067922c-1.711384,-0.820038 -3.707999,-2.37098 -5.43721,-4.207152c-1.337019,-1.426153 -3.030576,-3.743653 -3.030576,-4.135845c0,-0.089135 -0.053481,-0.196096 -0.124788,-0.23175c-0.089135,-0.017827 -0.374365,-0.499154 -0.659596,-1.069615c-0.570461,-1.123096 -0.69525,-2.584903 -0.285231,-3.101884c0.23175,-0.249577 1.67573,-0.998307 2.994922,-1.515288c0.837865,-0.338711 1.230057,-0.499154 2.174884,-0.927c2.905787,-1.319192 3.761479,-1.461807 4.617172,-0.730904c0.303058,0.249577 0.552634,0.516981 0.552634,0.606115c0,0.427846 1.533115,2.638384 2.567076,3.725826c1.426153,1.461807 2.870134,2.264018 4.795441,2.620557c1.640076,0.320885 2.477941,0.320885 4.04671,-0.017827c2.816653,-0.588288 4.171499,-1.996615 3.832787,-3.993229c-0.267404,-1.622249 -1.90748,-2.460115 -6.952498,-3.58321c-6.257248,-1.408326 -8.681709,-2.299672 -11.837073,-4.349768c-1.515288,-0.998307 -3.494076,-2.870134 -4.207152,-4.028883c-0.285231,-0.445673 -0.748731,-1.479634 -1.016134,-2.317499c-0.4635,-1.354846 -0.516981,-1.764865 -0.516981,-3.832787c0,-2.067922 0.053481,-2.495768 0.516981,-3.939749c0.802211,-2.513595 2.050095,-4.242806 4.421075,-6.132459c2.174884,-1.729211 5.134152,-3.06623 8.539093,-3.850614c2.174884,-0.499154 7.273382,-0.4635 9.448266,0.071308c2.477941,0.606115 4.617172,1.44398 6.64944,2.656211c1.087442,0.641769 3.779306,3.333633 4.581518,4.599345c1.853999,2.905787 2.157057,4.314114 1.123096,5.276767c-0.320885,0.285231 -0.659596,0.516981 -0.748731,0.516981c-0.089135,0 -0.499154,0.142615 -0.891346,0.338711c-0.410019,0.178269 -1.657903,0.713077 -2.780999,1.176577c-1.123096,0.4635 -2.192711,0.909173 -2.353153,0.998307c-0.445673,0.23175 -2.13923,0.178269 -2.477941,-0.071308c-0.160442,-0.124788 -0.570461,-0.659596 -0.927,-1.194403c-0.891346,-1.3905 -2.174884,-2.531422 -3.511903,-3.137537c-1.105269,-0.499154 -1.265711,-0.516981 -3.743653,-0.516981c-2.513595,0 -2.620557,0.017827 -3.743653,0.552634c-2.032269,0.962654 -2.709691,2.388807 -1.693557,3.601037c0.748731,0.909173 1.782692,1.265711 6.774228,2.442288c1.729211,0.410019 2.388807,0.552634 3.743653,0.855692c2.299672,0.516981 5.098498,1.515288 6.41769,2.299672c0.303058,0.178269 0.837865,0.481327 1.194403,0.677423c0.837865,0.445673 3.101884,2.674038 3.81496,3.743653c0.285231,0.445673 0.730904,1.21223 0.962654,1.693557l0.445673,0.891346l0.106962,-4.011056c0.142615,-5.472864 0.69525,-7.950805 2.60273,-11.640977c0.891346,-1.729211 3.387114,-5.062844 4.617172,-6.150286c4.528037,-4.04671 9.519574,-5.918536 15.776822,-5.918536c2.816653,0 4.421075,0.23175 7.11294,1.016134c1.586596,0.4635 5.187633,2.121403 5.793748,2.674038c0.196096,0.178269 0.606115,0.481327 0.891346,0.659596c1.408326,0.891346 4.296287,4.064537 5.686787,6.257248c0.962654,1.479634 2.050095,3.939749 2.424461,5.365902c0.071308,0.320885 0.178269,0.641769 0.249577,0.748731c0.730904,1.21223 1.016134,9.626535 0.410019,12.425361c-0.766557,3.422768 -1.996615,6.328556 -3.797133,8.913459c-0.820038,1.176577 -3.440595,3.957576 -4.617172,4.902402c-2.192711,1.764865 -5.098498,3.173191 -8.289516,3.993229c-2.157057,0.570461 -6.952498,0.802211 -9.359131,0.445673zm4.848921,-11.052689c0.766557,-0.106962 1.711384,-0.285231 2.103576,-0.427846c2.745345,-0.927 5.241114,-3.191018 6.488998,-5.882883c1.44398,-3.06623 1.657903,-7.433824 0.570461,-11.123996c-0.766557,-2.549249 -3.262326,-5.455037 -5.72244,-6.64944c-2.388807,-1.15875 -4.599345,-1.461807 -7.005978,-0.927c-4.082364,0.873519 -7.522959,4.224979 -8.628228,8.378651c-0.410019,1.568769 -0.4635,6.613786 -0.071308,8.004286c0.677423,2.460115 2.192711,4.813268 4.064537,6.328556c1.90748,1.533115 3.565383,2.157057 6.595959,2.477941c0.106962,0 0.837865,-0.071308 1.604423,-0.178269z"/>
   <path stroke="null" fill="#20b7f2" id="svg_2" d="m213.229991,74.220463c-2.388807,-0.356538 -4.082364,-0.820038 -6.061152,-1.67573c-0.588288,-0.249577 -1.283538,-0.552634 -1.550942,-0.677423c-0.285231,-0.106962 -0.499154,-0.267404 -0.499154,-0.338711c0,-0.071308 -0.089135,-0.142615 -0.178269,-0.142615c-0.481327,0 -3.030576,-2.032269 -4.670652,-3.725826c-2.852307,-2.923614 -4.563691,-5.847229 -5.651133,-9.573054c-1.016134,-3.511903 -0.998307,-3.11971 -0.998307,-26.401664l0,-21.427954l0.410019,-0.410019c0.392192,-0.410019 0.499154,-0.410019 4.902402,-0.4635c2.745345,-0.035654 4.74196,0.017827 5.116325,0.124788c1.194403,0.356538 1.15875,0 1.21223,10.41092c0.035654,6.399863 0.106962,9.394785 0.23175,9.394785c0.106962,0 0.4635,-0.124788 0.802211,-0.267404c0.338711,-0.142615 0.873519,-0.374365 1.194403,-0.516981c0.303058,-0.142615 1.21223,-0.445673 1.996615,-0.69525c4.634998,-1.408326 9.662189,-1.408326 14.528937,0.053481c1.657903,0.481327 4.670652,1.925307 5.597652,2.656211c0.374365,0.303058 0.748731,0.552634 0.837865,0.552634c0.374365,0 4.27846,4.153672 5.187633,5.526344c1.461807,2.210538 2.620557,4.688479 3.137537,6.685094c0.499154,1.960961 0.606115,2.228365 0.748731,2.13923c0.071308,-0.053481 0.196096,-0.427846 0.267404,-0.855692c0.338711,-2.067922 1.853999,-5.597652 3.440595,-7.968632c1.123096,-1.657903 4.207152,-4.866748 5.401556,-5.633306c0.427846,-0.267404 0.873519,-0.588288 0.998307,-0.69525c0.392192,-0.410019 3.511903,-1.853999 4.955883,-2.317499c4.955883,-1.586596 10.553535,-1.586596 15.331149,0.017827c3.81496,1.265711 7.184248,3.547556 9.697843,6.560305c3.280153,3.921922 4.634998,7.095113 5.561998,12.995823c0.23175,1.568769 0.142615,5.882883 -0.196096,7.433824c-0.106962,0.534808 -0.285231,1.3905 -0.374365,1.871826c-0.748731,3.654518 -3.048403,7.86167 -5.847229,10.731804c-3.886268,3.975403 -7.647747,5.847229 -13.334534,6.64944c-3.565383,0.499154 -9.002593,-0.071308 -11.730111,-1.247884c-4.848921,-2.085749 -7.683401,-4.385422 -10.642669,-8.646055c-1.265711,-1.836172 -2.37098,-4.456729 -3.35146,-7.932978l-0.23175,-0.802211l-0.23175,0.534808c-0.124788,0.303058 -0.23175,0.659596 -0.249577,0.820038c-0.017827,0.641769 -1.087442,3.58321 -1.871826,5.151979c-2.442288,4.866748 -6.542479,8.610401 -11.944034,10.874419c-2.798826,1.176577 -8.360824,1.747038 -11.944034,1.230057zm4.848921,-11.052689c1.586596,-0.213923 2.549249,-0.499154 3.547556,-1.069615c3.387114,-1.90748 5.419383,-4.777614 6.061152,-8.628228c0.606115,-3.58321 0.053481,-7.219901 -1.497461,-10.036554c-0.766557,-1.3905 -3.137537,-3.58321 -4.670652,-4.349768c-1.515288,-0.730904 -3.440595,-1.21223 -4.902402,-1.21223c-0.998307,0 -3.11971,0.410019 -3.690172,0.730904c-0.178269,0.089135 -0.410019,0.160442 -0.516981,0.160442c-0.392192,0 -2.780999,1.67573 -3.58321,2.513595c-0.891346,0.927 -1.67573,2.050095 -2.085749,2.923614c-0.124788,0.303058 -0.303058,0.659596 -0.374365,0.820038c-0.071308,0.142615 -0.303058,0.891346 -0.516981,1.640076c-0.481327,1.782692 -0.534808,6.007671 -0.089135,7.683401c0.730904,2.780999 2.050095,4.866748 4.100191,6.506825c1.693557,1.354846 2.763172,1.853999 4.97371,2.246192c1.640076,0.303058 1.622249,0.303058 3.244499,0.071308zm45.868658,-0.071308c0.837865,-0.124788 1.711384,-0.320885 1.960961,-0.392192c2.103576,-0.677423 5.009364,-3.244499 6.043325,-5.348075c0.320885,-0.659596 0.659596,-1.354846 0.748731,-1.515288c0.677423,-1.354846 0.962654,-6.792055 0.445673,-8.877805c-0.606115,-2.424461 -1.764865,-4.51021 -3.35146,-5.989844c-0.659596,-0.641769 -3.048403,-2.210538 -3.333633,-2.210538c-0.106962,0 -0.338711,-0.071308 -0.516981,-0.160442c-0.588288,-0.320885 -2.691864,-0.730904 -3.725826,-0.730904c-0.998307,0 -3.137537,0.445673 -4.224979,0.873519c-0.909173,0.356538 -2.887961,1.764865 -3.601037,2.567076c-1.301365,1.44398 -1.533115,1.782692 -2.13923,3.048403c-2.335326,4.955883 -1.461807,11.8549 1.960961,15.331149c2.157057,2.210538 3.690172,3.030576 6.524652,3.476249c1.408326,0.23175 1.533115,0.213923 3.208845,-0.071308z"/>
   <path stroke="null" fill="#20b7f2" id="svg_3" d="m90.366878,72.972579c-0.303058,-0.089135 -0.730904,-0.374365 -0.927,-0.623942c-0.374365,-0.481327 -0.374365,-0.534808 -0.374365,-21.766666l0,-21.303166l0.499154,-0.499154c0.677423,-0.659596 1.568769,-0.766557 6.078979,-0.69525l3.565383,0.071308l0.534808,0.516981c0.303058,0.285231 0.606115,0.802211 0.659596,1.123096c0.053481,0.320885 0.178269,0.623942 0.249577,0.677423c0.089135,0.053481 0.623942,-0.213923 1.194403,-0.606115c1.764865,-1.15875 3.832787,-2.067922 6.203767,-2.709691c1.586596,-0.427846 5.348075,-0.4635 7.255555,-0.071308c1.657903,0.338711 3.387114,0.820038 3.618864,1.016134c0.089135,0.071308 0.267404,0.142615 0.392192,0.142615c0.534808,0 2.745345,1.550942 3.939749,2.780999c1.087442,1.123096 1.337019,1.301365 1.622249,1.15875c0.178269,-0.106962 0.374365,-0.303058 0.427846,-0.427846c0.160442,-0.410019 2.763172,-2.281845 4.135845,-2.977095c1.230057,-0.623942 2.620557,-1.105269 4.634998,-1.622249c0.499154,-0.124788 2.210538,-0.249577 3.832787,-0.285231c2.460115,-0.071308 3.208845,-0.017827 4.545864,0.285231c3.244499,0.713077 5.43721,1.836172 7.398171,3.761479c2.567076,2.549249 4.118018,5.740267 4.902402,10.072208c0.374365,2.014442 0.392192,30.840566 0.017827,31.321893c-0.552634,0.730904 -1.319192,0.855692 -5.561998,0.855692c-4.421075,0 -5.009364,-0.106962 -5.508517,-1.051788c-0.196096,-0.392192 -0.249577,-3.06623 -0.320885,-14.368495c-0.071308,-13.316707 -0.089135,-13.958476 -0.445673,-15.081572c-0.891346,-2.905787 -1.889653,-3.904095 -4.528037,-4.528037c-1.622249,-0.374365 -2.638384,-0.338711 -4.296287,0.213923c-1.337019,0.445673 -1.568769,0.588288 -2.798826,1.836172c-1.337019,1.337019 -2.424461,3.11971 -2.905787,4.777614c-0.124788,0.427846 -0.23175,5.223287 -0.285231,13.584111c-0.124788,14.618072 -0.035654,13.780207 -1.497461,14.350668c-0.659596,0.249577 -1.3905,0.285231 -4.866748,0.23175c-4.421075,-0.053481 -5.009364,-0.178269 -5.348075,-1.069615c-0.089135,-0.23175 -0.196096,-6.702921 -0.249577,-14.404149c-0.106962,-13.691072 -0.124788,-14.029784 -0.499154,-15.277668c-0.677423,-2.228365 -1.711384,-3.35146 -3.690172,-4.04671c-2.638384,-0.909173 -5.615479,-0.338711 -7.612094,1.461807c-0.820038,0.730904 -1.978788,2.406634 -2.495768,3.601037c-0.962654,2.174884 -0.909173,1.479634 -1.016134,15.331149c-0.124788,14.386322 -0.035654,13.53063 -1.319192,14.154572c-0.534808,0.23175 -1.247884,0.285231 -4.617172,0.267404c-2.174884,0 -4.224979,-0.089135 -4.545864,-0.178269z"/>
   <path stroke="null" fill="#20b7f2" id="svg_4" d="m161.353662,72.901271c-0.285231,-0.142615 -0.69525,-0.374365 -0.891346,-0.534808c-0.356538,-0.285231 -0.356538,-0.516981 -0.410019,-21.231858c-0.035654,-14.332841 0.017827,-21.178377 0.142615,-21.659704c0.356538,-1.283538 0.516981,-1.319192 5.704613,-1.319192c5.187633,0 5.348075,0.035654 5.704613,1.319192c0.124788,0.481327 0.160442,7.34469 0.142615,21.552743c-0.053481,20.572262 -0.053481,20.857493 -0.410019,21.249685c-0.713077,0.802211 -1.247884,0.891346 -5.472864,0.891346c-3.030576,-0.017827 -4.100191,-0.071308 -4.51021,-0.267404z"/>
   <path stroke="null" fill="#20b7f2" id="svg_5" d="m178.806214,72.936925c-0.303058,-0.124788 -0.713077,-0.374365 -0.891346,-0.552634c-0.320885,-0.338711 -0.338711,-0.998307 -0.392192,-21.534916c-0.035654,-18.682609 0,-21.249685 0.23175,-21.713185c0.481327,-0.944827 0.677423,-0.98048 5.615479,-0.98048c5.187633,0 5.348075,0.035654 5.704613,1.319192c0.124788,0.481327 0.160442,7.34469 0.142615,21.552743c-0.053481,20.572262 -0.053481,20.857493 -0.410019,21.249685c-0.713077,0.802211 -1.247884,0.891346 -5.472864,0.873519c-2.584903,0 -4.171499,-0.089135 -4.528037,-0.213923z"/>
   <path stroke="null" fill="#20b7f2" id="svg_6" d="m164.295103,23.360268c-1.408326,-0.320885 -2.638384,-1.016134 -3.690172,-2.103576c-1.105269,-1.140923 -1.550942,-1.925307 -1.925307,-3.333633c-0.784384,-3.048403 0.267404,-5.865056 3.048403,-8.03994c0.891346,-0.713077 2.691864,-1.247884 4.135845,-1.247884c4.848921,0 8.467786,4.581518 7.255555,9.216516c-0.392192,1.515288 -0.69525,2.067922 -1.818346,3.280153c-1.123096,1.21223 -2.299672,1.889653 -3.886268,2.228365c-1.283538,0.285231 -1.836172,0.285231 -3.11971,0z"/>
   <path stroke="null" fill="#20b7f2" id="svg_7" d="m181.765482,23.360268c-1.461807,-0.338711 -2.656211,-1.016134 -3.761479,-2.192711c-1.15875,-1.21223 -1.461807,-1.729211 -1.836172,-3.208845c-0.410019,-1.586596 -0.285231,-3.315807 0.356538,-4.955883c0.267404,-0.659596 1.497461,-2.210538 2.157057,-2.709691c0.374365,-0.267404 0.713077,-0.534808 0.766557,-0.588288c0.445673,-0.4635 2.620557,-1.069615 3.886268,-1.069615c2.852307,0 5.472864,1.622249 6.702921,4.189326c0.837865,1.729211 1.016134,3.262326 0.552634,5.027191c-0.392192,1.497461 -0.69525,2.067922 -1.782692,3.226672c-1.15875,1.265711 -2.60273,2.067922 -4.207152,2.335326c-1.372673,0.23175 -1.550942,0.23175 -2.83448,-0.053481z"/>
  </g>
 </g>
</svg>