<!DOCTYPE svg PUBLIC "-//W3C//DTD SVG 20010904//EN" "http://www.w3.org/TR/2001/REC-SVG-20010904/DTD/svg10.dtd">
<svg version="1.0" xmlns="http://www.w3.org/2000/svg" width="434px" height="589px" viewBox="0 0 4340 5890" preserveAspectRatio="xMidYMid meet">
<g id="layer1" fill="#d8d8d8" stroke="none">
 <path d="M1850 5870 c-248 -18 -563 -124 -807 -271 -204 -124 -442 -340 -582 -529 -412 -556 -513 -1313 -265 -1977 111 -298 321 -600 558 -803 144 -123 252 -196 416 -278 178 -90 354 -151 526 -183 65 -12 125 -23 132 -25 10 -3 12 -54 10 -231 l-3 -227 -60 -34 c-137 -80 -247 -232 -280 -387 -19 -89 -19 -230 0 -317 41 -198 191 -366 385 -435 99 -35 290 -44 390 -19 212 54 372 200 436 400 22 68 27 101 28 201 1 138 -11 197 -61 303 -43 91 -146 203 -232 252 l-60 35 -1 227 c0 254 -8 230 80 243 25 3 103 20 174 37 l128 30 136 -135 135 -135 -13 -107 c-26 -227 30 -415 168 -553 127 -126 259 -176 462 -176 108 1 136 4 207 28 196 64 342 221 393 422 24 93 26 238 5 336 -43 207 -202 377 -413 444 -68 22 -237 29 -328 14 l-77 -12 -70 70 -69 69 73 58 c106 83 281 257 354 350 235 300 377 645 425 1030 15 116 15 397 0 506 -53 407 -197 749 -444 1055 -323 401 -859 690 -1341 724 -149 11 -362 10 -515 0z m475 -210 c627 -72 1166 -436 1470 -995 64 -118 129 -268 154 -358 110 -391 104 -764 -19 -1137 -138 -421 -433 -799 -790 -1011 -41 -24 -70 -48 -70 -58 0 -9 72 -88 159 -175 179 -178 150 -166 291 -126 221 63 473 -54 572 -265 162 -347 -134 -740 -515 -686 -203 28 -372 179 -416 371 -23 98 -10 223 33 323 l16 37 -201 198 c-111 108 -205 198 -210 200 -5 2 -44 -8 -86 -22 -146 -47 -299 -79 -433 -88 l-35 -3 -3 -339 c-1 -232 1 -343 9 -352 6 -7 39 -26 75 -43 166 -77 274 -248 274 -429 0 -227 -139 -411 -359 -476 -62 -18 -184 -21 -251 -5 -135 31 -261 132 -323 259 -123 251 -28 523 228 654 l80 41 -4 340 c-1 187 -5 343 -7 346 -2 4 -36 9 -76 13 -464 44 -965 318 -1262 689 -174 218 -304 480 -370 746 -44 177 -51 237 -51 466 0 191 3 235 23 330 51 241 118 419 235 618 302 512 812 852 1396 932 118 16 346 18 466 5z"/>
 <path d="M1922 4915 c-449 -81 -811 -413 -928 -850 -49 -183 -44 -451 10 -632 49 -161 97 -253 202 -389 168 -217 420 -369 704 -425 97 -19 328 -16 430 5 224 48 404 143 568 300 179 172 272 335 335 586 31 128 31 388 -2 520 -86 351 -322 641 -648 795 -194 93 -460 128 -671 90z m303 -66 c446 -54 827 -424 896 -869 14 -92 6 -282 -16 -365 -70 -262 -220 -475 -440 -622 -391 -263 -889 -219 -1242 110 -158 147 -276 361 -314 570 -14 81 -14 258 1 333 41 210 166 436 317 575 119 108 297 206 446 245 126 33 222 39 352 23z"/>
 <path d="M2005 4669 c-279 -30 -519 -196 -640 -444 -61 -125 -76 -188 -82 -345 -6 -154 8 -255 53 -366 83 -208 250 -375 451 -452 114 -44 184 -56 320 -57 108 0 125 2 150 21 35 26 56 86 48 139 -8 55 -23 79 -73 115 -47 34 -97 105 -107 152 -25 114 79 255 202 274 122 18 228 -72 275 -235 24 -81 111 -113 200 -73 38 16 49 28 72 78 53 112 69 194 70 359 1 127 -3 163 -22 235 -64 233 -233 434 -449 531 -127 58 -309 85 -468 68z m290 -234 c191 -52 348 -182 444 -368 53 -103 71 -178 71 -301 0 -104 -27 -234 -64 -304 -13 -25 -14 -25 -25 28 -41 189 -231 321 -419 291 -122 -19 -232 -103 -288 -216 -25 -53 -29 -71 -29 -155 0 -52 6 -114 13 -137 19 -63 72 -134 127 -172 l50 -34 -89 7 c-117 8 -192 28 -295 78 -68 32 -101 57 -171 127 -93 93 -142 172 -178 293 -119 387 145 803 556 878 66 12 225 4 297 -15z"/>
 </g>
<g id="layer2" fill="#f9f9f9" stroke="none">
 <path d="M1859 5675 c-671 -92 -1239 -526 -1526 -1168 -57 -128 -89 -230 -125 -402 -20 -95 -23 -139 -23 -330 0 -229 7 -289 51 -466 81 -325 250 -632 483 -873 308 -319 748 -539 1164 -581 l67 -7 0 -267 c0 -146 3 -295 6 -331 l6 -65 -72 -34 c-85 -40 -187 -135 -238 -222 -107 -181 -66 -428 97 -589 105 -104 215 -149 362 -150 135 0 246 46 350 147 109 105 159 220 159 365 0 90 -24 176 -69 246 -49 76 -151 168 -225 203 l-66 31 0 334 0 334 36 0 c85 0 269 38 417 86 42 14 81 24 86 22 5 -2 95 -88 200 -191 l191 -188 -16 -37 c-43 -99 -56 -224 -33 -322 32 -138 147 -280 281 -344 193 -93 407 -60 563 86 74 69 117 132 145 212 60 176 22 349 -109 488 -105 113 -209 164 -351 174 -58 4 -92 1 -150 -16 -141 -40 -114 -51 -281 116 -82 82 -149 154 -149 159 0 6 48 43 108 82 619 409 951 1182 821 1908 -27 156 -62 277 -112 391 -294 678 -880 1123 -1582 1204 -120 13 -348 11 -466 -5z m417 -776 c394 -55 736 -321 888 -691 63 -155 81 -251 80 -443 0 -138 -4 -186 -21 -255 -62 -247 -157 -417 -325 -576 -156 -148 -340 -244 -558 -290 -102 -21 -333 -24 -430 -5 -340 67 -616 261 -785 551 -62 108 -113 255 -135 393 -20 124 -8 360 24 482 150 559 687 914 1262 834z"/>
 <path d="M1994 4470 c-350 -63 -627 -409 -600 -748 15 -183 78 -315 216 -453 80 -80 110 -103 181 -137 128 -62 274 -91 379 -77 56 8 69 31 23 40 -52 11 -98 42 -130 89 -45 66 -58 116 -58 226 0 84 4 102 29 154 105 214 380 268 564 110 52 -44 99 -138 108 -215 4 -36 11 -59 19 -59 16 0 58 95 84 190 27 95 28 253 4 343 -65 242 -279 457 -518 522 -73 19 -231 27 -301 15z"/>
 </g>

</svg>