<!DOCTYPE svg PUBLIC "-//W3C//DTD SVG 20010904//EN" "http://www.w3.org/TR/2001/REC-SVG-20010904/DTD/svg10.dtd">
<svg version="1.0" xmlns="http://www.w3.org/2000/svg" width="1600px" height="424px" viewBox="0 0 16000 4240" preserveAspectRatio="xMidYMid meet">
<g id="layer1" fill="#6accf9" stroke="none">
 <path d="M1077 3625 c-60 -15 -104 -35 -150 -67 -46 -33 -20 -38 40 -7 143 71 356 77 500 13 55 -24 81 -16 39 11 -14 9 -49 26 -78 37 -69 28 -265 35 -351 13z"/>
 <path d="M3345 3625 c-72 -16 -146 -47 -197 -82 -54 -37 -36 -48 25 -15 190 104 426 104 629 2 32 -16 60 -25 63 -20 5 9 -89 69 -140 88 -108 41 -266 52 -380 27z"/>
 <path d="M11915 3626 c-104 -24 -243 -95 -229 -117 3 -6 25 1 50 16 181 106 432 108 636 5 32 -16 60 -25 63 -20 8 13 -103 76 -180 100 -88 28 -253 36 -340 16z"/>
 <path d="M14473 3625 c-66 -15 -133 -41 -201 -81 -62 -37 -41 -48 26 -14 81 41 135 57 234 71 130 18 286 -10 395 -70 58 -32 81 -25 34 9 -121 85 -323 121 -488 85z"/>
 <path d="M175 3371 c-7 -13 0 -16 178 -90 159 -66 232 -97 259 -112 19 -10 36 7 22 21 -10 9 -434 190 -446 190 -4 0 -9 -4 -13 -9z"/>
 <path d="M1876 2781 c-4 -5 -2 -12 3 -15 5 -4 12 -2 15 3 4 5 2 12 -3 15 -5 4 -12 2 -15 -3z"/>
 <path d="M1765 2724 c-99 -46 -161 -64 -490 -143 -275 -66 -375 -96 -389 -119 -11 -18 11 -22 40 -7 16 8 68 24 114 35 171 43 196 49 245 60 28 6 75 17 105 25 30 8 78 19 105 26 135 32 331 109 349 137 14 22 -11 18 -79 -14z"/>
 <path d="M11356 1781 c-4 -5 -2 -12 3 -15 5 -4 12 -2 15 3 4 5 2 12 -3 15 -5 4 -12 2 -15 -3z"/>
 <path d="M4107 1744 c-334 -191 -827 -203 -1182 -29 -98 48 -139 46 -53 -3 102 -58 246 -112 332 -126 20 -3 55 -10 78 -16 57 -13 341 -13 409 0 30 6 69 13 88 16 97 16 310 105 377 159 44 35 14 35 -49 -1z"/>
 <path d="M12726 1771 c-4 -5 -2 -12 3 -15 5 -4 12 -2 15 3 4 5 2 12 -3 15 -5 4 -12 2 -15 -3z"/>
 <path d="M13926 1771 c-4 -5 -2 -12 3 -15 5 -4 12 -2 15 3 4 5 2 12 -3 15 -5 4 -12 2 -15 -3z"/>
 <path d="M15286 1771 c-4 -5 -2 -12 3 -15 5 -4 12 -2 15 3 4 5 2 12 -3 15 -5 4 -12 2 -15 -3z"/>
 <path d="M556 1751 c-9 -15 120 -89 219 -126 144 -55 237 -69 435 -69 170 1 194 3 290 29 154 41 351 139 334 166 -3 5 -19 0 -35 -12 -16 -11 -69 -38 -117 -59 -330 -143 -741 -125 -1059 47 -34 18 -64 29 -67 24z"/>
 <path d="M5626 1751 c-16 -25 200 -135 338 -172 192 -51 544 -3 679 93 37 27 24 42 -16 19 -47 -26 -170 -67 -247 -82 -36 -7 -132 -13 -215 -13 -134 1 -159 3 -239 28 -48 14 -124 44 -168 66 -44 22 -84 37 -90 34 -7 -4 -8 -2 -4 4 3 6 -2 16 -13 22 -11 5 -22 6 -25 1z"/>
 <path d="M11396 1751 c-6 -10 67 -55 144 -89 117 -50 112 -49 269 -82 130 -28 356 -28 499 0 151 29 275 75 375 137 66 42 29 44 -51 4 -97 -49 -203 -85 -318 -107 -125 -25 -396 -25 -514 -1 -113 24 -245 69 -322 109 -35 18 -66 34 -70 36 -3 2 -9 -1 -12 -7z"/>
 <path d="M13955 1750 c-16 -26 252 -145 375 -165 19 -3 59 -10 89 -15 96 -17 335 -12 441 10 176 36 247 61 378 138 69 39 34 46 -40 7 -36 -19 -113 -51 -171 -70 -321 -105 -697 -80 -989 66 -42 21 -80 35 -83 29z"/>
 <path d="M7115 1720 c-13 -22 138 -96 266 -130 64 -17 123 -24 243 -27 211 -7 332 14 467 82 65 33 80 45 74 55 -3 5 -39 -7 -80 -26 -128 -59 -227 -78 -410 -78 -213 -1 -336 24 -487 100 -37 18 -70 29 -73 24z"/>
 <path d="M8176 1721 c-4 -5 -2 -12 3 -15 5 -4 12 -2 15 3 4 5 2 12 -3 15 -5 4 -12 2 -15 -3z"/>
 <path d="M4965 1650 c-3 -6 0 -12 7 -15 26 -10 493 0 491 10 -4 14 -489 19 -498 5z"/>
 <path d="M8955 1650 c-3 -6 0 -12 7 -15 26 -10 503 0 501 10 -4 14 -499 19 -508 5z"/>
 <path d="M9935 1650 c-3 -6 0 -12 7 -15 26 -10 503 0 501 10 -4 14 -499 19 -508 5z"/>
 <path d="M9015 610 c-3 -5 5 -16 17 -24 96 -63 260 -63 356 0 32 21 18 37 -18 19 -16 -8 -60 -20 -99 -27 -76 -13 -165 -2 -223 28 -16 8 -29 10 -33 4z"/>
 <path d="M9984 609 c-8 -13 91 -57 154 -69 72 -13 165 5 227 46 41 27 19 34 -37 11 -74 -29 -202 -29 -280 0 -34 12 -60 17 -64 12z"/>
 <path d="M10835 600 c-3 -6 0 -12 7 -15 26 -10 503 0 501 10 -4 14 -499 19 -508 5z"/>
 </g>
<g id="layer2" fill="#36a9dd" stroke="none">
 <path d="M4957 4044 c-9 -9 -9 -1778 0 -1787 28 -29 30 23 25 895 -2 486 -7 886 -11 891 -4 4 -10 4 -14 1z"/>
 <path d="M5477 4043 c-4 -3 -7 -321 -7 -705 0 -611 2 -708 16 -771 20 -87 79 -221 94 -212 6 3 9 9 7 13 -2 4 -8 18 -15 32 -6 14 -21 54 -34 90 l-23 65 -3 736 c-2 595 -5 739 -16 748 -7 6 -16 8 -19 4z"/>
 <path d="M6482 4038 c-9 -9 -12 -209 -12 -772 0 -840 -3 -887 -64 -1004 -15 -30 -6 -56 11 -30 40 63 61 125 78 228 12 68 15 235 15 832 0 411 -4 749 -8 752 -5 3 -14 0 -20 -6z"/>
 <path d="M7001 4036 c-9 -11 -11 -195 -8 -718 3 -615 6 -711 20 -764 19 -69 44 -133 60 -153 6 -7 12 -20 13 -28 4 -24 56 -93 65 -87 5 3 3 14 -3 26 -22 36 -33 53 -43 68 -5 8 -10 20 -11 25 -1 6 -10 30 -19 55 -44 120 -45 148 -45 880 0 396 -4 701 -9 704 -5 3 -14 0 -20 -8z"/>
 <path d="M8005 4038 c-2 -7 -6 -366 -8 -798 -3 -579 -7 -797 -16 -830 -29 -107 -36 -127 -58 -162 -12 -20 -19 -39 -14 -42 23 -15 79 97 105 211 14 63 16 167 16 847 0 509 -3 777 -10 781 -6 3 -12 0 -15 -7z"/>
 <path d="M8525 4038 c-2 -7 -6 -384 -8 -838 -4 -790 -5 -863 -21 -888 -10 -17 9 -23 30 -8 15 11 16 17 6 29 -10 12 -10 16 3 21 13 5 15 102 15 845 0 553 -3 842 -10 846 -6 3 -12 0 -15 -7z"/>
 <path d="M8937 4044 c-4 -4 -7 -391 -7 -859 0 -743 2 -854 15 -865 12 -10 16 -10 20 1 3 8 4 398 3 868 -3 826 -5 881 -31 855z"/>
 <path d="M9457 4044 c-4 -4 -7 -400 -7 -879 0 -760 2 -874 15 -885 12 -10 16 -10 20 1 3 8 4 407 3 888 -3 845 -5 901 -31 875z"/>
 <path d="M9917 4044 c-4 -4 -7 -411 -7 -904 0 -783 2 -899 15 -910 12 -10 16 -10 20 1 3 8 4 419 3 913 -3 869 -5 926 -31 900z"/>
 <path d="M10437 4044 c-4 -4 -7 -384 -7 -844 0 -729 2 -839 15 -850 12 -10 16 -10 20 1 3 8 4 392 3 853 -3 811 -5 866 -31 840z"/>
 <path d="M2077 3693 c-4 -3 0 -15 10 -25 9 -10 13 -18 10 -18 -4 0 2 -19 12 -42 38 -91 53 -218 41 -358 -2 -30 -8 -61 -13 -68 -6 -7 -7 -15 -4 -19 4 -3 2 -12 -5 -20 -8 -10 -8 -17 0 -25 22 -22 43 21 43 84 0 10 4 20 10 23 14 10 11 197 -6 269 -17 73 -48 150 -64 161 -6 3 -9 10 -6 15 6 10 -20 32 -28 23z"/>
 <path d="M1165 3650 c-8 -13 20 -24 41 -16 20 8 9 26 -16 26 -10 0 -22 -5 -25 -10z"/>
 <path d="M1255 3650 c-8 -13 20 -24 41 -16 20 8 9 26 -16 26 -10 0 -22 -5 -25 -10z"/>
 <path d="M3455 3651 c-7 -13 17 -24 40 -19 9 1 16 8 16 13 0 14 -48 19 -56 6z"/>
 <path d="M12025 3651 c-7 -13 17 -24 40 -19 9 1 16 8 16 13 0 14 -48 19 -56 6z"/>
 <path d="M14585 3651 c-7 -13 17 -24 40 -19 9 1 16 8 16 13 0 14 -48 19 -56 6z"/>
 <path d="M1086 3643 c-4 -5 -12 -8 -17 -8 -5 0 -9 -3 -9 -7 0 -8 3 -9 18 -7 4 1 12 2 17 3 13 1 19 20 8 23 -5 2 -13 0 -17 -4z"/>
 <path d="M1345 3640 c-7 -11 22 -26 32 -16 3 3 12 1 20 -5 7 -6 13 -8 13 -4 0 4 7 2 15 -5 8 -7 15 -10 15 -6 0 3 22 -8 50 -24 27 -16 52 -25 55 -21 2 5 -1 13 -8 19 -21 16 -77 43 -77 36 0 -4 -7 -1 -15 6 -8 7 -15 9 -15 5 0 -4 -7 -2 -15 5 -8 7 -15 9 -15 4 0 -4 -5 -3 -12 4 -15 15 -35 16 -43 2z"/>
 <path d="M3355 3641 c-7 -12 12 -24 25 -16 11 7 4 25 -10 25 -5 0 -11 -4 -15 -9z"/>
 <path d="M3585 3640 c-8 -12 20 -24 35 -15 6 3 8 11 5 16 -8 12 -32 12 -40 -1z"/>
 <path d="M11916 3643 c-4 -4 -12 -8 -17 -8 -5 0 -9 -3 -9 -7 0 -8 3 -9 18 -7 4 1 15 2 24 3 10 0 18 6 18 11 1 13 -23 18 -34 8z"/>
 <path d="M12155 3640 c-8 -12 20 -24 35 -15 6 3 8 11 5 16 -8 12 -32 12 -40 -1z"/>
 <path d="M14475 3640 c-8 -12 20 -24 35 -15 6 3 8 11 5 16 -8 12 -32 12 -40 -1z"/>
 <path d="M14715 3640 c-7 -11 22 -26 32 -16 3 3 12 1 20 -6 7 -6 16 -8 20 -5 3 4 12 2 20 -4 7 -6 13 -8 13 -4 0 4 6 2 14 -4 10 -8 16 -9 21 -1 3 5 4 11 1 11 -3 1 -9 2 -13 3 -5 1 -14 5 -20 9 -7 5 -13 5 -13 1 0 -3 -7 -1 -15 6 -8 6 -19 9 -24 6 -5 -4 -12 -2 -16 4 -8 13 -32 13 -40 0z"/>
 <path d="M3316 3631 c-4 -5 -2 -12 3 -15 5 -4 12 -2 15 3 4 5 2 12 -3 15 -5 4 -12 2 -15 -3z"/>
 <path d="M3645 3630 c-3 -5 -4 -11 -1 -11 14 -3 27 -7 34 -9 4 -2 12 -4 17 -4 6 -1 20 -7 33 -14 12 -7 22 -10 22 -6 0 3 6 1 14 -5 10 -8 16 -9 21 -1 3 5 4 11 1 11 -3 1 -9 2 -13 3 -5 1 -18 7 -30 14 -13 7 -23 10 -23 6 0 -3 -7 -1 -15 6 -9 7 -18 10 -22 7 -3 -4 -12 -2 -19 4 -8 7 -14 7 -19 -1z"/>
 <path d="M4466 3631 c-4 -5 -2 -12 3 -15 5 -4 12 -2 15 3 4 5 2 12 -3 15 -5 4 -12 2 -15 -3z"/>
 <path d="M12216 3631 c-4 -5 -2 -12 4 -16 5 -3 10 -3 10 1 0 3 6 1 14 -5 10 -8 16 -9 21 -1 3 5 4 11 1 11 -3 1 -9 2 -13 3 -5 1 -13 5 -20 9 -6 4 -14 3 -17 -2z"/>
 <path d="M13036 3631 c-4 -5 -2 -12 3 -15 5 -4 12 -2 15 3 4 5 2 12 -3 15 -5 4 -12 2 -15 -3z"/>
 <path d="M14436 3633 c-4 -5 -12 -9 -17 -9 -5 -1 -11 -3 -14 -4 -3 -1 -9 -3 -15 -4 -5 0 -10 -4 -10 -8 0 -5 0 -11 0 -14 0 -4 7 -1 15 6 8 7 15 9 15 5 0 -4 6 -3 13 3 6 6 15 11 20 11 8 1 11 11 5 17 -3 2 -8 1 -12 -3z"/>
 <path d="M1016 3621 c-4 -5 -2 -12 3 -15 5 -4 12 -2 15 3 4 5 2 12 -3 15 -5 4 -12 2 -15 -3z"/>
 <path d="M3272 3618 c-7 -7 -12 -8 -12 -4 0 5 -11 1 -25 -8 -14 -9 -25 -14 -25 -11 0 3 -9 1 -20 -5 -11 -6 -18 -16 -14 -21 4 -6 15 -4 30 6 13 8 24 13 24 10 0 -3 10 0 23 7 12 7 25 12 30 13 4 0 7 4 8 8 1 15 -7 17 -19 5z"/>
 <path d="M11845 3620 c-4 -6 -10 -8 -15 -5 -5 3 -11 1 -14 -4 -4 -5 -2 -12 3 -15 5 -4 12 -2 16 4 4 6 10 8 15 5 5 -3 11 -1 14 4 4 5 2 12 -3 15 -5 4 -12 2 -16 -4z"/>
 <path d="M12285 3611 c-9 -15 55 -45 68 -32 7 7 2 13 -18 21 -15 6 -31 13 -36 15 -4 3 -10 1 -14 -4z"/>
 <path d="M15606 3611 c-4 -5 -2 -12 3 -15 5 -4 12 -2 15 3 4 5 2 12 -3 15 -5 4 -12 2 -15 -3z"/>
 <path d="M13056 3601 c-4 -5 -2 -12 3 -15 5 -4 12 -2 15 3 4 5 2 12 -3 15 -5 4 -12 2 -15 -3z"/>
 <path d="M935 3586 c-11 -8 -14 -16 -8 -19 6 -4 18 0 28 7 11 8 14 16 8 19 -6 4 -18 0 -28 -7z"/>
 <path d="M11755 3586 c-11 -8 -14 -16 -8 -19 6 -4 18 0 28 7 11 8 14 16 8 19 -6 4 -18 0 -28 -7z"/>
 <path d="M14326 3591 c-4 -5 -2 -12 3 -15 5 -4 12 -2 15 3 4 5 2 12 -3 15 -5 4 -12 2 -15 -3z"/>
 <path d="M14885 3590 c-3 -5 12 -18 34 -30 23 -11 42 -16 46 -10 3 5 -12 18 -34 30 -23 11 -42 16 -46 10z"/>
 <path d="M251 3576 c-7 -8 -8 -17 -3 -20 6 -3 15 1 21 8 7 8 8 17 3 20 -6 3 -15 -1 -21 -8z"/>
 <path d="M11026 3581 c-4 -5 -2 -12 3 -15 5 -4 12 -2 15 3 4 5 2 12 -3 15 -5 4 -12 2 -15 -3z"/>
 <path d="M14275 3566 c-11 -8 -14 -16 -8 -19 6 -4 18 0 28 7 11 8 14 16 8 19 -6 4 -18 0 -28 -7z"/>
 <path d="M896 3561 c-4 -5 -2 -12 3 -15 5 -4 12 -2 15 3 4 5 2 12 -3 15 -5 4 -12 2 -15 -3z"/>
 <path d="M3815 3561 c-3 -6 3 -15 14 -21 12 -6 22 -6 26 -1 3 6 -3 15 -14 21 -12 6 -22 6 -26 1z"/>
 <path d="M12386 3561 c-4 -5 -2 -12 3 -15 5 -4 12 -2 15 3 4 5 2 12 -3 15 -5 4 -12 2 -15 -3z"/>
 <path d="M3126 3551 c-4 -5 -2 -12 3 -15 5 -4 12 -2 15 3 4 5 2 12 -3 15 -5 4 -12 2 -15 -3z"/>
 <path d="M13086 3551 c-4 -5 -2 -12 3 -15 5 -4 12 -2 15 3 4 5 2 12 -3 15 -5 4 -12 2 -15 -3z"/>
 <path d="M866 3541 c-4 -5 -2 -12 3 -15 5 -4 12 -2 15 3 4 5 2 12 -3 15 -5 4 -12 2 -15 -3z"/>
 <path d="M11676 3541 c-4 -5 -2 -12 3 -15 5 -4 12 -2 15 3 4 5 2 12 -3 15 -5 4 -12 2 -15 -3z"/>
 <path d="M14219 3532 c-29 -24 -11 -36 20 -13 14 11 19 21 13 25 -5 3 -20 -2 -33 -12z"/>
 <path d="M14976 3541 c-4 -5 -2 -12 3 -15 5 -4 12 -2 15 3 4 5 2 12 -3 15 -5 4 -12 2 -15 -3z"/>
 <path d="M221 3526 c-7 -8 -8 -17 -3 -20 6 -3 15 1 21 8 7 8 8 17 3 20 -6 3 -15 -1 -21 -8z"/>
 <path d="M2426 3531 c-4 -5 -2 -12 3 -15 5 -4 12 -2 15 3 4 5 2 12 -3 15 -5 4 -12 2 -15 -3z"/>
 <path d="M3096 3531 c-4 -5 -2 -12 3 -15 5 -4 12 -2 15 3 4 5 2 12 -3 15 -5 4 -12 2 -15 -3z"/>
 <path d="M3866 3531 c-4 -5 -2 -12 3 -15 5 -4 12 -2 15 3 4 5 2 12 -3 15 -5 4 -12 2 -15 -3z"/>
 <path d="M10996 3531 c-4 -5 -2 -12 3 -15 5 -4 12 -2 15 3 4 5 2 12 -3 15 -5 4 -12 2 -15 -3z"/>
 <path d="M12436 3531 c-4 -5 -2 -12 3 -15 5 -4 12 -2 15 3 4 5 2 12 -3 15 -5 4 -12 2 -15 -3z"/>
 <path d="M15656 3531 c-4 -5 -2 -12 3 -15 5 -4 12 -2 15 3 4 5 2 12 -3 15 -5 4 -12 2 -15 -3z"/>
 <path d="M13106 3522 c-3 -6 1 -15 9 -22 8 -7 13 -16 10 -20 -2 -3 3 -18 13 -31 9 -13 17 -28 19 -34 1 -5 15 -46 30 -90 70 -194 93 -439 63 -670 -7 -55 -13 -108 -12 -117 0 -10 -4 -20 -9 -23 -19 -12 2 -25 22 -14 15 8 18 14 9 24 -8 9 -7 14 3 18 33 12 47 335 23 507 -21 143 -76 328 -109 368 -6 8 -12 21 -13 29 -2 8 -10 23 -18 32 -9 10 -14 20 -11 23 3 3 -1 11 -9 17 -8 7 -17 8 -20 3z"/>
 <path d="M13546 3521 c-4 -5 -2 -12 3 -15 5 -4 12 -2 15 3 4 5 2 12 -3 15 -5 4 -12 2 -15 -3z"/>
 <path d="M3066 3511 c-4 -5 -2 -12 3 -15 5 -4 12 -2 15 3 4 5 2 12 -3 15 -5 4 -12 2 -15 -3z"/>
 <path d="M3896 3512 c-3 -5 3 -17 13 -26 11 -10 22 -13 25 -8 3 5 -3 17 -13 26 -11 10 -22 13 -25 8z"/>
 <path d="M4546 3511 c-4 -5 -2 -12 3 -15 5 -4 12 -2 15 3 4 5 2 12 -3 15 -5 4 -12 2 -15 -3z"/>
 <path d="M11636 3511 c-4 -5 -2 -12 3 -15 5 -4 12 -2 15 3 4 5 2 12 -3 15 -5 4 -12 2 -15 -3z"/>
 <path d="M15016 3511 c-4 -5 -2 -12 3 -15 5 -4 12 -2 15 3 4 5 2 12 -3 15 -5 4 -12 2 -15 -3z"/>
 <path d="M796 3481 c-15 -16 -23 -31 -18 -35 5 -3 21 8 36 23 15 16 23 31 18 35 -5 3 -21 -8 -36 -23z"/>
 <path d="M12476 3502 c-3 -5 3 -17 13 -26 11 -10 22 -13 25 -8 3 5 -3 17 -13 26 -11 10 -22 13 -25 8z"/>
 <path d="M2400 3485 c-7 -8 -9 -15 -5 -15 5 0 1 -8 -8 -17 -29 -33 -85 -190 -114 -318 -24 -112 -25 -508 -1 -574 9 -24 14 -49 12 -56 -6 -16 41 -72 49 -58 3 5 -1 22 -8 37 -8 16 -13 31 -11 35 2 3 -3 40 -11 81 -23 110 -22 409 1 520 21 100 39 166 65 235 26 68 33 90 29 91 -2 1 5 11 15 22 10 11 14 23 9 26 -5 3 -15 -1 -22 -9z"/>
 <path d="M10970 3485 c-7 -8 -9 -15 -5 -15 5 0 0 -9 -9 -19 -10 -11 -19 -25 -20 -33 -2 -7 -14 -38 -28 -68 -24 -51 -35 -89 -68 -225 -19 -78 -29 -301 -29 -656 -1 -277 1 -328 14 -339 12 -10 16 -10 19 1 3 8 7 219 10 469 5 492 7 518 64 698 16 50 28 92 25 92 -2 0 5 14 17 30 12 17 18 30 14 30 -4 0 1 9 10 19 10 11 13 22 8 25 -5 3 -15 -1 -22 -9z"/>
 <path d="M176 3441 l-27 -51 23 -9 c29 -11 43 -4 28 15 -9 10 -8 21 4 45 10 21 13 36 7 42 -6 6 -19 -10 -35 -42z"/>
 <path d="M13516 3469 c-8 -12 -13 -26 -10 -30 2 -4 0 -10 -6 -14 -32 -19 -91 -212 -115 -376 -28 -183 -10 -484 30 -529 12 -13 13 -20 5 -25 -8 -5 -5 -14 9 -29 11 -11 20 -24 20 -28 1 -5 3 -8 6 -8 3 0 8 0 11 0 4 0 1 7 -6 15 -7 8 -9 15 -5 15 5 0 0 9 -9 19 -12 13 -14 21 -6 26 5 3 8 10 5 14 -14 23 -35 227 -35 339 0 184 37 392 93 525 9 20 13 37 10 37 -3 0 1 8 9 18 24 27 29 40 19 46 -5 4 -17 -3 -25 -15z"/>
 <path d="M14156 3481 c-4 -5 -2 -12 3 -15 5 -4 12 -2 15 3 4 5 2 12 -3 15 -5 4 -12 2 -15 -3z"/>
 <path d="M15056 3482 c-3 -5 3 -17 13 -26 11 -10 22 -13 25 -8 3 5 -3 17 -13 26 -11 10 -22 13 -25 8z"/>
 <path d="M15686 3481 c-4 -5 -2 -12 3 -15 5 -4 12 -2 15 3 4 5 2 12 -3 15 -5 4 -12 2 -15 -3z"/>
 <path d="M1598 3475 c-3 -4 0 -23 8 -42 10 -22 14 -61 13 -107 -1 -39 2 -71 7 -71 24 0 46 146 24 160 -6 4 -9 13 -8 20 2 8 0 13 -4 12 -4 -1 -13 6 -20 16 -8 10 -16 15 -20 12z"/>
 <path d="M2996 3451 c-15 -16 -23 -31 -18 -35 5 -3 19 6 32 19 17 18 27 22 36 14 8 -7 14 -7 19 1 3 5 4 11 1 11 -3 1 -9 2 -13 3 -5 1 -13 4 -19 8 -6 4 -23 -6 -38 -21z"/>
 <path d="M4567 3474 c-3 -4 -1 -16 5 -28 7 -11 13 -23 13 -26 0 -3 11 -32 24 -65 66 -174 97 -411 79 -620 -12 -146 -15 -179 -18 -185 -1 -3 -2 -9 -1 -14 1 -4 -3 -14 -10 -22 -18 -22 0 -38 22 -18 13 12 16 21 9 29 -8 9 -6 14 6 19 10 4 14 12 10 22 -4 9 -1 23 6 32 22 26 18 427 -5 527 -32 137 -74 261 -100 294 -6 7 -12 20 -13 28 -3 20 -18 35 -27 27z"/>
 <path d="M11556 3441 c-21 -21 -34 -41 -29 -44 6 -4 27 11 47 32 21 21 34 41 29 44 -6 4 -27 -11 -47 -32z"/>
 <path d="M15707 3443 c-4 -3 0 -17 8 -30 9 -13 13 -23 10 -23 -3 0 4 -24 15 -52 20 -52 37 -116 62 -233 19 -92 16 -419 -5 -523 -9 -46 -19 -88 -22 -92 -9 -15 11 -20 28 -7 47 34 65 455 28 639 -20 97 -66 243 -84 267 -6 7 -12 20 -13 28 -3 20 -19 35 -27 26z"/>
 <path d="M15116 3422 c-3 -6 1 -15 8 -21 8 -7 17 -8 20 -3 3 6 -1 15 -8 21 -8 7 -17 8 -20 3z"/>
 <path d="M737 3413 c-4 -6 0 -18 7 -28 8 -11 16 -14 19 -8 4 6 0 18 -7 28 -8 11 -16 14 -19 8z"/>
 <path d="M14077 3403 c-4 -6 0 -18 7 -28 8 -11 16 -14 19 -8 4 6 0 18 -7 28 -8 11 -16 14 -19 8z"/>
 <path d="M3994 3378 c-6 -9 -4 -10 26 -11 11 -1 19 3 18 8 -4 12 -37 14 -44 3z"/>
 <path d="M12565 3382 c-3 -3 0 -11 6 -18 8 -10 16 -11 31 -3 11 6 17 13 14 17 -8 7 -44 10 -51 4z"/>
 <path d="M2925 3371 c-3 -6 3 -15 14 -21 12 -6 22 -6 26 -1 3 6 -3 15 -14 21 -12 6 -22 6 -26 1z"/>
 <path d="M256 3361 c-4 -5 -2 -12 3 -15 5 -4 12 -2 15 3 4 5 2 12 -3 15 -5 4 -12 2 -15 -3z"/>
 <path d="M723 3357 c-19 -24 -23 -36 -14 -41 5 -3 16 5 25 19 16 24 6 45 -11 22z"/>
 <path d="M11506 3351 c-4 -5 -2 -12 3 -15 5 -4 12 -2 15 3 4 5 2 12 -3 15 -5 4 -12 2 -15 -3z"/>
 <path d="M14035 3351 c-3 -6 3 -15 14 -21 12 -6 22 -6 26 -1 3 6 -3 15 -14 21 -12 6 -22 6 -26 1z"/>
 <path d="M306 3341 c-4 -5 -2 -12 3 -15 5 -4 12 -2 15 3 4 5 2 12 -3 15 -5 4 -12 2 -15 -3z"/>
 <path d="M4036 3331 c-4 -5 -2 -12 3 -15 5 -4 12 -2 15 3 4 5 2 12 -3 15 -5 4 -12 2 -15 -3z"/>
 <path d="M12606 3331 c-4 -5 -2 -12 3 -15 5 -4 12 -2 15 3 4 5 2 12 -3 15 -5 4 -12 2 -15 -3z"/>
 <path d="M2915 3320 c-4 -6 -10 -8 -15 -5 -5 3 -11 1 -14 -4 -4 -5 -2 -12 3 -15 5 -4 12 -2 16 4 4 6 10 8 15 5 5 -3 11 -1 14 4 4 5 2 12 -3 15 -5 4 -12 2 -16 -4z"/>
 <path d="M14016 3321 c-4 -5 -2 -12 3 -15 5 -4 12 -2 15 3 4 5 2 12 -3 15 -5 4 -12 2 -15 -3z"/>
 <path d="M376 3311 c-4 -5 -2 -12 3 -15 5 -4 12 -2 15 3 4 5 2 12 -3 15 -5 4 -12 2 -15 -3z"/>
 <path d="M15176 3311 c-4 -5 -2 -12 3 -15 5 -4 12 -2 15 3 4 5 2 12 -3 15 -5 4 -12 2 -15 -3z"/>
 <path d="M12626 3301 c-4 -5 -2 -12 3 -15 5 -4 12 -2 15 3 4 5 2 12 -3 15 -5 4 -12 2 -15 -3z"/>
 <path d="M15202 3293 c-9 -15 -8 -25 2 -38 13 -18 14 -18 24 2 9 15 8 25 -2 38 -13 18 -14 18 -24 -2z"/>
 <path d="M4082 3284 c-7 -13 -6 -26 4 -47 18 -34 31 -28 28 14 -3 41 -19 57 -32 33z"/>
 <path d="M446 3281 c-4 -5 -2 -12 3 -15 5 -4 12 -2 15 3 4 5 2 12 -3 15 -5 4 -12 2 -15 -3z"/>
 <path d="M676 3281 c-4 -5 -2 -12 3 -15 5 -4 12 -2 15 3 4 5 2 12 -3 15 -5 4 -12 2 -15 -3z"/>
 <path d="M11432 3274 c-5 -9 -7 -25 -4 -36 3 -12 0 -18 -9 -16 -7 2 -13 -1 -14 -7 0 -5 -4 -15 -8 -22 -4 -6 -3 -14 3 -18 10 -6 12 -5 14 18 0 6 6 12 13 12 18 0 25 11 27 45 3 36 -9 48 -22 24z"/>
 <path d="M14016 3281 c-4 -5 -2 -12 3 -15 5 -4 12 -2 15 3 4 5 2 12 -3 15 -5 4 -12 2 -15 -3z"/>
 <path d="M12646 3271 c-4 -5 -2 -12 3 -15 5 -4 12 -2 15 3 4 5 2 12 -3 15 -5 4 -12 2 -15 -3z"/>
 <path d="M496 3261 c-4 -5 -2 -12 3 -15 5 -4 12 -2 15 3 4 5 2 12 -3 15 -5 4 -12 2 -15 -3z"/>
 <path d="M12671 3242 c-6 -12 -10 -22 -9 -23 42 -11 54 -1 34 26 -13 18 -14 18 -25 -3z"/>
 <path d="M656 3241 c-4 -5 -2 -12 3 -15 5 -4 12 -2 15 3 4 5 2 12 -3 15 -5 4 -12 2 -15 -3z"/>
 <path d="M15231 3232 c-6 -12 -10 -22 -9 -23 42 -11 54 -1 34 26 -13 18 -14 18 -25 -3z"/>
 <path d="M566 3231 c-4 -5 -2 -12 3 -15 5 -4 12 -2 15 3 4 5 2 12 -3 15 -5 4 -12 2 -15 -3z"/>
 <path d="M13951 3192 c-10 -21 5 -66 19 -57 6 3 7 17 4 31 -4 14 -2 23 2 22 5 -2 11 1 14 6 3 5 -3 10 -13 12 -9 1 -21 -5 -26 -14z"/>
 <path d="M4115 3190 c-4 -6 -3 -16 3 -22 6 -6 12 -6 17 2 4 6 3 16 -3 22 -6 6 -12 6 -17 -2z"/>
 <path d="M12684 3179 c-5 -9 -3 -11 19 -13 6 0 13 -7 13 -13 1 -7 2 -14 4 -15 7 -9 7 -39 0 -43 -5 -3 -3 -22 3 -43 7 -22 12 -108 12 -217 0 -171 -2 -184 -28 -264 -16 -47 -37 -102 -48 -122 -17 -35 -11 -66 8 -37 68 106 112 281 113 442 0 76 -14 194 -28 226 -3 8 -7 20 -8 25 -1 6 -3 13 -4 18 -1 4 -4 12 -5 17 -1 6 -4 12 -5 15 -1 3 -3 10 -4 17 -1 14 -34 20 -42 7z"/>
 <path d="M2819 3166 c-3 -12 -7 -26 -9 -33 -1 -5 -2 -12 -1 -17 1 -4 -3 -13 -8 -20 -35 -41 -39 -374 -7 -481 20 -68 39 -115 56 -145 8 -14 15 -27 15 -30 3 -20 38 -69 45 -65 10 6 -1 35 -23 64 -6 7 -12 18 -13 25 -1 6 -9 31 -17 56 -39 114 -47 168 -47 321 0 102 5 172 15 208 9 35 11 60 5 71 -6 11 -5 21 1 27 8 8 7 13 0 17 -6 4 -12 5 -12 2z"/>
 <path d="M4141 3152 c-13 -25 2 -38 19 -16 9 10 10 18 3 25 -8 8 -14 5 -22 -9z"/>
 <path d="M11378 3143 c-4 -23 -5 -29 -11 -43 -31 -83 -38 -338 -12 -450 21 -90 48 -159 93 -238 34 -59 47 -42 16 20 -66 130 -86 224 -86 408 0 128 7 190 33 289 2 8 -4 17 -13 19 -10 2 -19 0 -20 -5z"/>
 <path d="M15270 3131 c-7 -14 -7 -22 1 -26 6 -4 8 -13 5 -20 -2 -7 -2 -16 2 -20 9 -8 10 -21 18 -180 9 -185 -23 -337 -101 -475 -19 -33 -30 -62 -25 -65 10 -6 20 6 63 85 97 177 126 387 84 610 -2 9 -6 20 -10 27 -4 6 -4 18 -1 26 3 8 0 18 -5 22 -6 3 -9 10 -6 15 3 5 1 11 -4 15 -6 3 -15 -3 -21 -14z"/>
 <path d="M4151 3111 c-8 -14 -8 -28 1 -48 8 -18 12 -93 12 -218 0 -199 -6 -241 -53 -347 -11 -27 -18 -48 -14 -48 3 0 -2 -9 -11 -19 -10 -11 -13 -22 -8 -25 5 -3 15 1 22 9 7 8 9 15 5 15 -5 0 -1 8 7 18 20 22 45 80 69 162 36 121 35 432 -2 476 -6 7 -8 18 -5 23 4 5 2 12 -3 16 -6 3 -15 -3 -20 -14z"/>
 <path d="M13931 3117 c-6 -8 -8 -17 -4 -20 3 -4 1 -12 -5 -19 -5 -7 -15 -45 -21 -85 -30 -194 4 -397 92 -561 30 -54 38 -26 10 36 -33 74 -41 101 -58 197 -19 101 -19 258 -1 353 7 39 11 72 9 72 -3 0 0 6 6 13 10 13 6 27 -9 27 -4 0 -13 -6 -19 -13z"/>
 <path d="M2066 3011 c-4 -5 -2 -12 3 -15 5 -4 12 -2 15 3 4 5 2 12 -3 15 -5 4 -12 2 -15 -3z"/>
 <path d="M2051 2951 c-12 -16 -17 -32 -12 -35 5 -4 19 7 30 23 12 16 17 32 12 35 -5 4 -19 -7 -30 -23z"/>
 <path d="M1836 2781 c-4 -5 -2 -12 3 -15 5 -4 12 -2 15 3 4 5 2 12 -3 15 -5 4 -12 2 -15 -3z"/>
 <path d="M1753 2735 c-24 -13 -43 -22 -43 -19 0 3 -10 -1 -22 -8 -13 -7 -26 -12 -30 -13 -5 0 -8 -3 -8 -7 0 -5 0 -11 0 -14 0 -4 7 -1 15 6 8 7 15 9 15 5 0 -4 11 0 25 9 14 9 25 14 25 11 0 -3 18 4 40 15 23 12 38 25 35 30 -8 12 -3 14 -52 -15z"/>
 <path d="M1586 2671 c-4 -5 -2 -12 3 -15 5 -4 12 -2 15 3 4 5 2 12 -3 15 -5 4 -12 2 -15 -3z"/>
 <path d="M1545 2660 c-4 -6 -10 -8 -15 -5 -5 3 -11 1 -14 -4 -4 -5 -2 -12 3 -15 5 -4 12 -2 16 4 4 6 10 8 15 5 5 -3 11 -1 14 4 4 5 2 12 -3 15 -5 4 -12 2 -16 -4z"/>
 <path d="M338 2637 c-9 -12 -15 -25 -14 -28 1 -4 -7 -15 -16 -25 -29 -33 -56 -117 -67 -213 -10 -82 -10 -97 4 -118 22 -33 29 -23 26 35 -3 58 14 170 36 237 9 28 16 52 15 55 0 3 7 14 17 25 26 29 32 43 22 49 -5 3 -15 -4 -23 -17z"/>
 <path d="M1465 2641 c-7 -12 12 -24 25 -16 11 7 4 25 -10 25 -5 0 -11 -4 -15 -9z"/>
 <path d="M1426 2631 c-4 -5 -2 -12 3 -15 5 -4 12 -2 15 3 4 5 2 12 -3 15 -5 4 -12 2 -15 -3z"/>
 <path d="M1386 2621 c-4 -5 -2 -12 3 -15 5 -4 12 -2 15 3 4 5 2 12 -3 15 -5 4 -12 2 -15 -3z"/>
 <path d="M1336 2613 c-4 -5 -12 -8 -17 -8 -5 0 -9 -3 -9 -7 0 -8 3 -9 18 -7 4 1 12 2 17 3 13 1 19 20 8 23 -5 2 -13 0 -17 -4z"/>
 <path d="M1255 2591 c-7 -12 12 -24 25 -16 11 7 4 25 -10 25 -5 0 -11 -4 -15 -9z"/>
 <path d="M1216 2581 c-4 -5 -2 -12 3 -15 5 -4 12 -2 15 3 4 5 2 12 -3 15 -5 4 -12 2 -15 -3z"/>
 <path d="M1176 2571 c-4 -5 -2 -12 3 -15 5 -4 12 -2 15 3 4 5 2 12 -3 15 -5 4 -12 2 -15 -3z"/>
 <path d="M1125 2561 c-7 -12 12 -24 25 -16 11 7 4 25 -10 25 -5 0 -11 -4 -15 -9z"/>
 <path d="M1046 2541 c-4 -5 -2 -12 3 -15 5 -4 12 -2 15 3 4 5 2 12 -3 15 -5 4 -12 2 -15 -3z"/>
 <path d="M1006 2533 c-4 -5 -12 -9 -17 -9 -5 -1 -11 -3 -14 -4 -3 -1 -9 -3 -15 -4 -5 0 -10 -4 -10 -8 0 -5 0 -11 0 -14 0 -4 7 -1 15 6 8 7 15 9 15 5 0 -4 6 -3 13 3 6 6 15 11 20 11 8 1 11 11 5 17 -3 2 -8 1 -12 -3z"/>
 <path d="M836 2451 c-4 -5 -2 -12 3 -15 5 -4 12 -2 15 3 4 5 2 12 -3 15 -5 4 -12 2 -15 -3z"/>
 <path d="M4646 2411 c-4 -5 -2 -12 3 -15 5 -4 12 -2 15 3 4 5 2 12 -3 15 -5 4 -12 2 -15 -3z"/>
 <path d="M14027 2393 c-4 -6 0 -18 7 -28 8 -11 16 -14 19 -8 4 6 0 18 -7 28 -8 11 -16 14 -19 8z"/>
 <path d="M806 2381 c-4 -5 -2 -12 3 -15 5 -4 12 -2 15 3 4 5 2 12 -3 15 -5 4 -12 2 -15 -3z"/>
 <path d="M4046 2371 c-4 -5 -2 -12 3 -15 5 -4 12 -2 15 3 4 5 2 12 -3 15 -5 4 -12 2 -15 -3z"/>
 <path d="M12616 2371 c-4 -5 -2 -12 3 -15 5 -4 12 -2 15 3 4 5 2 12 -3 15 -5 4 -12 2 -15 -3z"/>
 <path d="M15755 2370 c-4 -6 -3 -16 3 -22 6 -6 12 -6 17 2 4 6 3 16 -3 22 -6 6 -12 6 -17 -2z"/>
 <path d="M1658 2320 c-31 -62 -18 -76 17 -21 27 43 30 57 16 65 -5 3 -20 -17 -33 -44z"/>
 <path d="M11486 2361 c-4 -5 -2 -12 3 -15 5 -4 12 -2 15 3 4 5 2 12 -3 15 -5 4 -12 2 -15 -3z"/>
 <path d="M4626 2351 c-4 -5 -2 -12 3 -15 5 -4 12 -2 15 3 4 5 2 12 -3 15 -5 4 -12 2 -15 -3z"/>
 <path d="M13196 2351 c-4 -5 -2 -12 3 -15 5 -4 12 -2 15 3 4 5 2 12 -3 15 -5 4 -12 2 -15 -3z"/>
 <path d="M781 2331 c-17 -31 -13 -81 10 -117 27 -44 42 -35 22 13 -9 22 -13 53 -10 75 6 43 -7 59 -22 29z"/>
 <path d="M2936 2341 c-4 -5 -2 -12 3 -15 5 -4 12 -2 15 3 4 5 2 12 -3 15 -5 4 -12 2 -15 -3z"/>
 <path d="M4026 2341 c-4 -5 -2 -12 3 -15 5 -4 12 -2 15 3 4 5 2 12 -3 15 -5 4 -12 2 -15 -3z"/>
 <path d="M5587 2343 c-4 -6 0 -18 7 -28 8 -11 16 -14 19 -8 4 6 0 18 -7 28 -8 11 -16 14 -19 8z"/>
 <path d="M12591 2336 c-7 -8 -8 -17 -3 -20 6 -3 15 1 21 8 7 8 8 17 3 20 -6 3 -15 -1 -21 -8z"/>
 <path d="M13466 2331 c-4 -5 -2 -12 3 -15 5 -4 12 -2 15 3 4 5 2 12 -3 15 -5 4 -12 2 -15 -3z"/>
 <path d="M13150 2251 c-17 -34 -26 -63 -20 -66 5 -3 23 21 40 54 17 34 26 63 20 66 -5 3 -23 -21 -40 -54z"/>
 <path d="M2976 2291 c-4 -5 -2 -12 3 -15 5 -4 12 -2 15 3 4 5 2 12 -3 15 -5 4 -12 2 -15 -3z"/>
 <path d="M11546 2291 c-4 -5 -2 -12 3 -15 5 -4 12 -2 15 3 4 5 2 12 -3 15 -5 4 -12 2 -15 -3z"/>
 <path d="M15106 2291 c-4 -5 -2 -12 3 -15 5 -4 12 -2 15 3 4 5 2 12 -3 15 -5 4 -12 2 -15 -3z"/>
 <path d="M4596 2281 c-4 -5 -2 -12 3 -15 5 -4 12 -2 15 3 4 5 2 12 -3 15 -5 4 -12 2 -15 -3z"/>
 <path d="M5626 2281 c-4 -5 -2 -12 3 -15 5 -4 12 -2 15 3 4 5 2 12 -3 15 -5 4 -12 2 -15 -3z"/>
 <path d="M2367 2273 c-4 -6 0 -18 7 -28 8 -11 16 -14 19 -8 4 6 0 18 -7 28 -8 11 -16 14 -19 8z"/>
 <path d="M7156 2271 c-4 -5 -2 -12 3 -15 5 -4 12 -2 15 3 4 5 2 12 -3 15 -5 4 -12 2 -15 -3z"/>
 <path d="M1616 2251 c-4 -5 -2 -12 3 -15 5 -4 12 -2 15 3 4 5 2 12 -3 15 -5 4 -12 2 -15 -3z"/>
 <path d="M15706 2251 c-4 -5 -2 -12 3 -15 5 -4 12 -2 15 3 4 5 2 12 -3 15 -5 4 -12 2 -15 -3z"/>
 <path d="M5656 2242 c-3 -5 3 -17 13 -26 11 -10 22 -13 25 -8 3 5 -3 17 -13 26 -11 10 -22 13 -25 8z"/>
 <path d="M13506 2241 c-4 -5 -2 -12 3 -15 5 -4 12 -2 15 3 4 5 2 12 -3 15 -5 4 -12 2 -15 -3z"/>
 <path d="M4566 2221 c-4 -5 -2 -12 3 -15 5 -4 12 -2 15 3 4 5 2 12 -3 15 -5 4 -12 2 -15 -3z"/>
 <path d="M1576 2201 c-10 -11 -13 -22 -8 -25 5 -3 17 3 26 13 10 11 13 22 8 25 -5 3 -17 -3 -26 -13z"/>
 <path d="M2396 2211 c-4 -5 -2 -12 3 -15 5 -4 12 -2 15 3 4 5 2 12 -3 15 -5 4 -12 2 -15 -3z"/>
 <path d="M6376 2211 c-4 -5 -2 -12 3 -15 5 -4 12 -2 15 3 4 5 2 12 -3 15 -5 4 -12 2 -15 -3z"/>
 <path d="M13526 2201 c-4 -5 -2 -12 3 -15 5 -4 12 -2 15 3 4 5 2 12 -3 15 -5 4 -12 2 -15 -3z"/>
 <path d="M15670 2181 c-6 -12 -6 -22 -1 -26 6 -3 15 3 21 14 6 12 6 22 1 26 -6 3 -15 -3 -21 -14z"/>
 <path d="M2131 2177 c-6 -8 -8 -17 -5 -20 10 -9 45 13 39 24 -9 13 -21 11 -34 -4z"/>
 <path d="M13547 2173 c-4 -6 0 -18 7 -28 8 -11 16 -14 19 -8 4 6 0 18 -7 28 -8 11 -16 14 -19 8z"/>
 <path d="M4536 2161 c-4 -5 -2 -12 3 -15 5 -4 12 -2 15 3 4 5 2 12 -3 15 -5 4 -12 2 -15 -3z"/>
 <path d="M4516 2131 c-4 -5 -2 -12 3 -15 5 -4 12 -2 15 3 4 5 2 12 -3 15 -5 4 -12 2 -15 -3z"/>
 <path d="M15621 2101 c-12 -16 -17 -32 -12 -35 5 -4 19 7 30 23 12 16 17 32 12 35 -5 4 -19 -7 -30 -23z"/>
 <path d="M2100 2071 c-11 -23 -16 -42 -10 -46 5 -3 18 12 30 34 11 23 16 42 10 46 -5 3 -18 -12 -30 -34z"/>
 <path d="M4496 2101 c-4 -5 -2 -12 3 -15 5 -4 12 -2 15 3 4 5 2 12 -3 15 -5 4 -12 2 -15 -3z"/>
 <path d="M8456 2101 c-4 -5 -2 -12 3 -15 5 -4 12 -2 15 3 4 5 2 12 -3 15 -5 4 -12 2 -15 -3z"/>
 <path d="M13066 2101 c-4 -5 -2 -12 3 -15 5 -4 12 -2 15 3 4 5 2 12 -3 15 -5 4 -12 2 -15 -3z"/>
 <path d="M13586 2102 c-3 -6 1 -15 8 -21 8 -7 17 -8 20 -3 3 6 -1 15 -8 21 -8 7 -17 8 -20 3z"/>
 <path d="M275 2080 c-4 -6 -3 -16 3 -22 6 -6 12 -6 17 2 4 6 3 16 -3 22 -6 6 -12 6 -17 -2z"/>
 <path d="M2476 2082 c-3 -6 1 -15 8 -21 8 -7 17 -8 20 -3 3 6 -1 15 -8 21 -8 7 -17 8 -20 3z"/>
 <path d="M4473 2067 c-19 -24 -23 -36 -14 -41 5 -3 16 5 25 19 16 24 6 45 -11 22z"/>
 <path d="M13041 2066 c-7 -8 -8 -17 -3 -20 6 -3 15 1 21 8 7 8 8 17 3 20 -6 3 -15 -1 -21 -8z"/>
 <path d="M8430 2041 c-6 -12 -6 -22 -1 -26 6 -3 15 3 21 14 6 12 6 22 1 26 -6 3 -15 -3 -21 -14z"/>
 <path d="M13626 2051 c-4 -5 -2 -12 3 -15 5 -4 12 -2 15 3 4 5 2 12 -3 15 -5 4 -12 2 -15 -3z"/>
 <path d="M15586 2051 c-4 -5 -2 -12 3 -15 5 -4 12 -2 15 3 4 5 2 12 -3 15 -5 4 -12 2 -15 -3z"/>
 <path d="M296 2031 c-4 -5 -2 -12 3 -15 5 -4 12 -2 15 3 4 5 2 12 -3 15 -5 4 -12 2 -15 -3z"/>
 <path d="M13006 2021 c-4 -5 -2 -12 3 -15 5 -4 12 -2 15 3 4 5 2 12 -3 15 -5 4 -12 2 -15 -3z"/>
 <path d="M13646 2022 c-3 -6 1 -15 8 -21 8 -7 17 -8 20 -3 3 6 -1 15 -8 21 -8 7 -17 8 -20 3z"/>
 <path d="M316 1991 c-4 -5 -2 -12 3 -15 5 -4 12 -2 15 3 4 5 2 12 -3 15 -5 4 -12 2 -15 -3z"/>
 <path d="M2056 1991 c-4 -5 -2 -12 3 -15 5 -4 12 -2 15 3 4 5 2 12 -3 15 -5 4 -12 2 -15 -3z"/>
 <path d="M2546 1991 c-4 -5 -2 -12 3 -15 5 -4 12 -2 15 3 4 5 2 12 -3 15 -5 4 -12 2 -15 -3z"/>
 <path d="M8406 1991 c-4 -5 -2 -12 3 -15 5 -4 12 -2 15 3 4 5 2 12 -3 15 -5 4 -12 2 -15 -3z"/>
 <path d="M15526 1981 c-4 -5 -2 -12 3 -15 5 -4 12 -2 15 3 4 5 2 12 -3 15 -5 4 -12 2 -15 -3z"/>
 <path d="M2036 1961 c-4 -5 -2 -12 3 -15 5 -4 12 -2 15 3 4 5 2 12 -3 15 -5 4 -12 2 -15 -3z"/>
 <path d="M4386 1961 c-4 -5 -2 -12 3 -15 5 -4 12 -2 15 3 4 5 2 12 -3 15 -5 4 -12 2 -15 -3z"/>
 <path d="M8386 1951 c-4 -5 -2 -12 3 -15 5 -4 12 -2 15 3 4 5 2 12 -3 15 -5 4 -12 2 -15 -3z"/>
 <path d="M13706 1951 c-4 -5 -2 -12 3 -15 5 -4 12 -2 15 3 4 5 2 12 -3 15 -5 4 -12 2 -15 -3z"/>
 <path d="M6886 1941 c-4 -5 -2 -12 3 -15 5 -4 12 -2 15 3 4 5 2 12 -3 15 -5 4 -12 2 -15 -3z"/>
 <path d="M12931 1936 c-7 -8 -8 -17 -3 -20 6 -3 15 1 21 8 7 8 8 17 3 20 -6 3 -15 -1 -21 -8z"/>
 <path d="M356 1931 c-4 -5 -2 -12 3 -15 5 -4 12 -2 15 3 4 5 2 12 -3 15 -5 4 -12 2 -15 -3z"/>
 <path d="M2011 1926 c-7 -8 -8 -17 -3 -20 6 -3 15 1 21 8 7 8 8 17 3 20 -6 3 -15 -1 -21 -8z"/>
 <path d="M6906 1911 c-4 -5 -2 -12 3 -15 5 -4 12 -2 15 3 4 5 2 12 -3 15 -5 4 -12 2 -15 -3z"/>
 <path d="M386 1891 c-4 -5 -2 -12 3 -15 5 -4 12 -2 15 3 4 5 2 12 -3 15 -5 4 -12 2 -15 -3z"/>
 <path d="M5465 1880 c-4 -6 -3 -16 3 -22 6 -6 12 -6 17 2 4 6 3 16 -3 22 -6 6 -12 6 -17 -2z"/>
 <path d="M1956 1861 c-4 -5 -2 -12 3 -15 5 -4 12 -2 15 3 4 5 2 12 -3 15 -5 4 -12 2 -15 -3z"/>
 <path d="M4286 1861 c-4 -5 -2 -12 3 -15 5 -4 12 -2 15 3 4 5 2 12 -3 15 -5 4 -12 2 -15 -3z"/>
 <path d="M6946 1861 c-4 -5 -2 -12 3 -15 5 -4 12 -2 15 3 4 5 2 12 -3 15 -5 4 -12 2 -15 -3z"/>
 <path d="M6816 1851 c-4 -5 -2 -12 3 -15 5 -4 12 -2 15 3 4 5 2 12 -3 15 -5 4 -12 2 -15 -3z"/>
 <path d="M446 1831 c-4 -5 -2 -12 3 -15 5 -4 12 -2 15 3 4 5 2 12 -3 15 -5 4 -12 2 -15 -3z"/>
 <path d="M6791 1816 c-7 -8 -8 -17 -3 -20 6 -3 15 1 21 8 7 8 8 17 3 20 -6 3 -15 -1 -21 -8z"/>
 <path d="M11345 1780 c-4 -6 -3 -16 3 -22 6 -6 12 -6 17 2 4 6 3 16 -3 22 -6 6 -12 6 -17 -2z"/>
 <path d="M12756 1781 c-4 -5 -2 -12 3 -15 5 -4 12 -2 15 3 4 5 2 12 -3 15 -5 4 -12 2 -15 -3z"/>
 <path d="M5466 1651 c-4 -5 -2 -12 3 -15 5 -4 12 -2 15 3 4 5 2 12 -3 15 -5 4 -12 2 -15 -3z"/>
 <path d="M9236 1261 c-4 -5 -2 -12 3 -15 5 -4 12 -2 15 3 4 5 2 12 -3 15 -5 4 -12 2 -15 -3z"/>
 <path d="M10076 1251 c-4 -5 -2 -12 3 -15 5 -4 12 -2 15 3 4 5 2 12 -3 15 -5 4 -12 2 -15 -3z"/>
 <path d="M9326 1241 c-4 -5 -2 -12 3 -15 5 -4 12 -2 15 3 4 5 2 12 -3 15 -5 4 -12 2 -15 -3z"/>
 <path d="M10306 1241 c-4 -5 -2 -12 3 -15 5 -4 12 -2 15 3 4 5 2 12 -3 15 -5 4 -12 2 -15 -3z"/>
 <path d="M9416 1191 c-4 -5 -2 -12 3 -15 5 -4 12 -2 15 3 4 5 2 12 -3 15 -5 4 -12 2 -15 -3z"/>
 <path d="M10396 1192 c-3 -6 1 -15 8 -21 8 -7 17 -8 20 -3 3 6 -1 15 -8 21 -8 7 -17 8 -20 3z"/>
 <path d="M10456 1132 c-3 -6 1 -15 8 -21 8 -7 17 -8 20 -3 3 6 -1 15 -8 21 -8 7 -17 8 -20 3z"/>
 <path d="M8913 1117 c-19 -24 -23 -36 -14 -41 5 -3 16 5 25 19 16 24 6 45 -11 22z"/>
 <path d="M9488 1124 c-3 -3 5 -26 19 -50 16 -29 29 -42 35 -36 6 6 0 25 -16 51 -27 43 -29 44 -38 35z"/>
 <path d="M9893 1117 c-19 -24 -23 -36 -14 -41 5 -3 16 5 25 19 16 24 6 45 -11 22z"/>
 <path d="M10497 1074 c-3 -4 -2 -16 4 -26 8 -15 14 -17 22 -9 8 8 7 15 -4 26 -8 9 -18 13 -22 9z"/>
 <path d="M10500 751 c-6 -12 -6 -22 -1 -26 6 -3 15 3 21 14 6 12 6 22 1 26 -6 3 -15 -3 -21 -14z"/>
 <path d="M8887 743 c-4 -6 0 -18 7 -28 8 -11 16 -14 19 -8 4 6 0 18 -7 28 -8 11 -16 14 -19 8z"/>
 <path d="M9516 741 c-4 -5 -2 -12 3 -15 5 -4 12 -2 15 3 4 5 2 12 -3 15 -5 4 -12 2 -15 -3z"/>
 <path d="M9867 743 c-4 -6 0 -18 7 -28 8 -11 16 -14 19 -8 4 6 0 18 -7 28 -8 11 -16 14 -19 8z"/>
 <path d="M9476 681 c-4 -5 -2 -12 3 -15 5 -4 12 -2 15 3 4 5 2 12 -3 15 -5 4 -12 2 -15 -3z"/>
 <path d="M10451 676 c-7 -8 -8 -17 -3 -20 6 -3 15 1 21 8 7 8 8 17 3 20 -6 3 -15 -1 -21 -8z"/>
 <path d="M8936 671 c-4 -5 -2 -12 3 -15 5 -4 12 -2 15 3 4 5 2 12 -3 15 -5 4 -12 2 -15 -3z"/>
 <path d="M8966 641 c-4 -5 -2 -12 3 -15 5 -4 12 -2 15 3 4 5 2 12 -3 15 -5 4 -12 2 -15 -3z"/>
 </g>
<g id="layer3" fill="#34b6f0" stroke="none">
 <path d="M1205 3651 c-7 -13 17 -24 40 -19 9 1 16 8 16 13 0 14 -48 19 -56 6z"/>
 <path d="M1055 3631 c-98 -28 -164 -70 -255 -161 -60 -60 -98 -109 -130 -167 -25 -45 -49 -83 -53 -83 -4 0 -105 41 -223 91 -119 49 -223 88 -231 85 -18 -7 -11 -32 8 -29 8 2 116 -40 239 -91 123 -52 228 -92 232 -90 5 3 20 29 35 57 113 223 240 335 418 368 83 16 87 17 80 29 -9 14 -51 11 -120 -9z"/>
 <path d="M1285 3641 c-8 -14 11 -23 43 -20 15 1 34 -1 42 -3 160 -57 186 -74 225 -150 34 -66 43 -76 50 -56 9 24 -28 90 -76 132 -46 43 -136 87 -180 91 -16 1 -32 5 -36 9 -10 9 -61 7 -68 -3z"/>
 <path d="M3329 3635 c-225 -56 -432 -246 -509 -470 -34 -100 2 -98 39 3 11 31 35 81 53 111 18 30 41 68 51 85 28 49 136 143 207 180 86 45 152 66 236 74 38 4 69 12 69 17 0 15 -84 15 -146 0z"/>
 <path d="M3505 3641 c-9 -15 12 -23 53 -20 20 1 44 -1 52 -3 8 -3 47 -15 85 -26 39 -12 99 -39 135 -59 64 -38 190 -153 190 -174 0 -5 14 -30 31 -55 33 -49 77 -140 84 -174 6 -29 26 -53 37 -42 13 13 -29 128 -75 207 -52 89 -172 209 -262 262 -75 45 -197 88 -220 79 -8 -3 -17 -1 -20 4 -8 13 -82 13 -90 1z"/>
 <path d="M11882 3630 c-122 -32 -205 -83 -313 -190 -85 -83 -102 -107 -144 -193 -26 -54 -45 -101 -41 -104 3 -3 1 -12 -6 -20 -8 -10 -8 -17 0 -25 11 -11 41 38 57 92 4 14 34 69 67 123 70 114 139 180 247 236 87 45 139 60 231 70 36 3 65 11 65 16 0 18 -88 15 -163 -5z"/>
 <path d="M12075 3641 c-9 -15 12 -23 53 -20 20 1 44 -1 52 -3 8 -3 47 -15 85 -27 77 -23 158 -68 229 -126 70 -57 171 -220 206 -330 15 -49 26 -63 40 -49 12 12 -13 90 -55 174 -83 166 -259 314 -436 366 -28 8 -57 13 -65 10 -7 -3 -16 -1 -19 4 -8 13 -82 13 -90 1z"/>
 <path d="M14506 3641 c-3 -5 -14 -7 -24 -4 -10 2 -51 -8 -92 -23 -136 -49 -252 -136 -341 -256 -53 -72 -127 -223 -115 -236 3 -3 1 -11 -5 -18 -6 -7 -8 -18 -4 -24 10 -17 33 6 40 40 17 78 131 268 198 331 59 56 160 114 242 140 39 11 77 23 85 26 8 3 35 6 60 7 25 0 47 6 50 11 6 13 -86 19 -94 6z"/>
 <path d="M14625 3641 c-9 -15 12 -23 58 -20 23 1 49 -1 57 -4 8 -3 48 -15 89 -28 40 -12 106 -43 145 -69 67 -44 176 -150 176 -171 0 -6 11 -25 25 -43 13 -18 33 -52 44 -77 10 -24 27 -62 37 -84 9 -22 16 -45 15 -52 -1 -6 3 -14 8 -18 6 -3 8 -12 5 -19 -7 -17 22 -41 31 -26 4 6 2 17 -4 24 -6 7 -8 16 -4 19 3 4 1 13 -5 20 -7 8 -9 16 -6 19 3 4 -7 37 -22 75 -83 209 -264 379 -467 438 -31 9 -61 14 -66 11 -5 -4 -12 -2 -16 4 -8 13 -92 13 -100 1z"/>
 <path d="M2151 3216 c-7 -8 -10 -20 -6 -26 4 -6 1 -17 -5 -25 -6 -8 -9 -19 -6 -24 4 -5 2 -12 -3 -16 -5 -3 -21 -30 -34 -59 -31 -66 -95 -155 -149 -204 -66 -61 -200 -137 -300 -170 -52 -17 -218 -61 -369 -96 -151 -36 -301 -75 -334 -87 -99 -36 -202 -156 -167 -191 9 -9 19 4 37 45 46 99 71 110 475 207 185 44 363 93 407 111 208 86 368 225 435 376 11 24 17 50 15 57 -3 6 1 20 9 30 7 11 11 23 8 28 -3 5 0 16 7 24 8 10 9 18 2 25 -7 7 -14 5 -22 -5z"/>
 <path d="M4681 2586 c-7 -8 -10 -20 -7 -25 4 -5 1 -13 -5 -16 -5 -4 -8 -14 -5 -22 4 -9 2 -21 -2 -27 -5 -6 -20 -42 -32 -81 -113 -350 -386 -629 -725 -743 -140 -48 -210 -57 -420 -57 -175 0 -212 3 -295 24 -354 86 -619 298 -782 626 -20 39 -43 95 -53 125 -21 66 -34 85 -48 71 -22 -22 76 -251 158 -366 57 -80 243 -259 333 -318 141 -95 321 -163 486 -186 111 -16 326 -13 436 4 247 40 442 142 647 338 106 102 160 173 223 292 43 81 106 262 96 272 -3 4 -1 12 5 19 6 8 9 20 6 28 -3 7 0 19 6 25 8 8 8 14 1 21 -8 8 -15 6 -23 -4z"/>
 <path d="M13241 2546 c-6 -7 -11 -18 -10 -22 1 -5 0 -16 -3 -24 -3 -8 -18 -51 -33 -95 -93 -278 -287 -513 -539 -654 -69 -39 -177 -80 -283 -108 -102 -26 -119 -28 -318 -27 -197 0 -217 2 -320 28 -115 29 -262 92 -338 144 -46 32 -67 29 -67 -9 0 -24 19 -34 26 -15 5 13 12 12 43 -8 188 -119 401 -176 655 -176 378 0 634 107 906 379 53 53 111 118 129 144 82 120 199 423 173 449 -5 5 -13 3 -21 -6z"/>
 <path d="M2285 2531 c-10 -17 15 -45 29 -31 7 7 5 15 -6 26 -11 11 -18 13 -23 5z"/>
 <path d="M13414 2515 c-4 -9 -2 -21 4 -27 6 -6 8 -16 6 -23 -13 -33 111 -302 180 -390 66 -84 235 -240 326 -301 208 -138 405 -194 686 -194 344 0 604 100 838 321 47 45 86 78 86 74 0 -4 7 -2 15 5 8 7 12 16 9 21 -3 5 -1 9 5 9 13 0 93 115 140 204 46 85 105 252 96 274 -10 26 -25 1 -56 -94 -56 -166 -150 -315 -284 -449 -148 -148 -327 -250 -530 -301 -102 -26 -125 -28 -315 -29 -215 0 -273 8 -424 57 -205 67 -409 217 -553 408 -52 70 -131 217 -156 290 -8 25 -21 59 -28 75 -7 17 -11 37 -10 46 1 9 -5 22 -14 29 -12 10 -16 9 -21 -5z"/>
 <path d="M8511 2356 c-7 -8 -10 -20 -6 -26 4 -6 2 -17 -5 -25 -6 -7 -10 -19 -9 -27 1 -7 0 -20 -4 -28 -3 -8 -15 -45 -26 -83 -70 -224 -195 -383 -366 -468 -123 -61 -200 -79 -360 -86 -360 -15 -606 78 -784 297 -31 37 -60 70 -65 72 -5 1 -27 -27 -50 -65 -85 -140 -203 -225 -381 -274 -92 -25 -115 -27 -280 -27 -171 0 -184 1 -265 28 -145 48 -287 132 -387 228 -54 53 -73 55 -73 8 0 -32 17 -49 26 -26 4 11 23 1 80 -44 133 -106 264 -173 405 -209 149 -38 391 -25 553 29 122 40 289 162 341 249 l29 48 61 -60 c139 -137 275 -217 437 -258 104 -26 358 -37 467 -20 159 25 306 94 412 194 30 28 57 50 61 49 9 -2 88 120 121 188 34 72 77 205 81 255 2 22 7 48 11 58 10 25 -8 42 -24 23z"/>
 <path d="M10437 2363 c-4 -3 -7 -159 -7 -345 l0 -338 -240 0 -240 0 0 274 c0 217 -3 276 -13 285 -8 6 -17 8 -20 4 -4 -3 -7 -140 -7 -304 0 -273 5 -331 25 -299 4 7 96 10 268 10 l262 -1 3 349 c2 284 0 351 -11 361 -8 6 -17 8 -20 4z"/>
 <path d="M8937 2333 c-4 -3 -7 -161 -7 -349 0 -314 5 -377 25 -344 4 6 97 10 255 10 158 0 251 -4 255 -10 20 -33 25 28 25 319 0 254 -3 321 -13 330 -8 6 -17 8 -20 4 -4 -3 -7 -143 -7 -310 l0 -303 -240 0 -240 0 0 319 c0 254 -3 321 -13 330 -8 6 -17 8 -20 4z"/>
 <path d="M247 2253 c-10 -10 -8 -51 3 -58 5 -3 7 -12 3 -20 -7 -19 20 -104 55 -174 47 -95 199 -226 352 -305 328 -169 759 -169 1082 1 98 52 256 181 306 252 48 66 114 201 108 218 -9 23 -24 6 -61 -67 -157 -319 -459 -492 -870 -499 -300 -5 -585 94 -769 268 -74 70 -119 139 -150 231 -13 39 -26 73 -29 77 -3 3 -4 17 -1 32 6 27 -16 58 -29 44z"/>
 <path d="M10815 2139 c-3 -8 -4 -360 -3 -782 l3 -768 275 0 c253 0 304 5 270 26 -5 3 -123 6 -260 5 l-250 -1 0 754 c0 656 -2 756 -15 767 -12 10 -16 10 -20 -1z"/>
 <path d="M5457 1824 c-4 -4 -7 -38 -7 -76 l0 -69 -247 1 c-220 1 -248 0 -248 -15 0 -14 30 -15 265 -16 l265 0 0 87 c0 81 -8 107 -28 88z"/>
 <path d="M10436 1151 c-4 -5 -2 -12 3 -15 5 -4 12 -2 15 3 4 5 2 12 -3 15 -5 4 -12 2 -15 -3z"/>
 <path d="M10477 1104 c-3 -3 3 -24 13 -47 28 -67 33 -81 34 -102 0 -11 6 -21 11 -22 19 -5 12 61 -12 114 -25 53 -36 67 -46 57z"/>
 <path d="M8892 1077 c-35 -43 -65 -185 -43 -210 6 -8 8 -16 5 -19 -10 -11 17 -89 48 -139 17 -28 33 -48 36 -45 2 3 21 -7 41 -23 82 -64 117 -76 231 -76 91 0 111 3 150 24 120 63 196 150 204 233 2 18 7 41 11 51 4 10 4 35 1 55 -4 20 -8 46 -10 57 -1 11 -8 31 -15 44 -18 33 -35 13 -21 -25 13 -33 16 -139 5 -169 -46 -121 -89 -172 -180 -216 -52 -25 -72 -29 -145 -29 -73 0 -93 4 -145 29 -91 44 -131 91 -180 216 -17 42 1 197 27 232 12 16 -7 26 -20 10z"/>
 <path d="M9506 1081 c-4 -5 -2 -12 3 -15 5 -4 12 -2 15 3 4 5 2 12 -3 15 -5 4 -12 2 -15 -3z"/>
 <path d="M9862 1067 c-27 -33 -54 -182 -36 -200 4 -3 8 -24 9 -46 6 -79 85 -168 205 -232 39 -21 58 -24 150 -24 118 0 136 7 244 86 59 45 96 100 110 166 8 33 -5 51 -21 30 -5 -6 -18 -34 -28 -61 -24 -66 -84 -129 -158 -166 -52 -26 -71 -30 -141 -30 -114 0 -167 21 -242 95 -40 39 -65 74 -73 100 -7 22 -15 47 -18 55 -10 24 -2 140 12 187 13 43 6 64 -13 40z"/>
 </g>
<g id="layer4" fill="#4cc2f7" stroke="none">
 <path d="M1165 3640 c-3 -5 0 -13 8 -16 23 -9 122 0 122 11 0 14 -122 19 -130 5z"/>
 <path d="M3465 3640 c-8 -13 20 -24 41 -16 20 8 9 26 -16 26 -10 0 -22 -5 -25 -10z"/>
 <path d="M12035 3640 c-8 -13 20 -24 41 -16 20 8 9 26 -16 26 -10 0 -22 -5 -25 -10z"/>
 <path d="M14595 3640 c-8 -12 20 -24 35 -15 6 3 8 11 5 16 -8 12 -32 12 -40 -1z"/>
 <path d="M1095 3630 c-3 -6 -11 -8 -16 -4 -5 3 -16 0 -24 -6 -8 -7 -15 -9 -15 -5 0 4 -7 2 -15 -5 -8 -7 -15 -10 -15 -6 0 3 -28 -8 -62 -25 -68 -34 -205 -160 -193 -178 4 -7 22 4 48 31 63 65 189 155 230 164 4 1 10 3 15 4 4 1 12 3 17 5 6 1 15 3 20 5 6 1 18 3 27 4 10 0 18 6 18 11 1 14 -27 18 -35 5z"/>
 <path d="M1335 3630 c-7 -11 22 -26 32 -16 3 3 11 2 17 -2 6 -5 33 -17 59 -26 27 -10 69 -36 93 -57 55 -47 80 -41 33 7 -35 36 -124 84 -165 88 -13 2 -27 6 -31 9 -10 10 -31 8 -38 -3z"/>
 <path d="M3365 3630 c-8 -12 20 -24 35 -15 6 3 8 11 5 16 -8 12 -32 12 -40 -1z"/>
 <path d="M3575 3630 c-7 -11 22 -26 32 -16 3 3 11 1 18 -4 7 -5 25 -11 41 -13 71 -9 192 -85 305 -195 69 -66 85 -55 23 16 -65 74 -211 174 -271 185 -10 2 -31 9 -47 16 -16 6 -35 10 -42 7 -8 -3 -16 -1 -19 4 -8 13 -32 13 -40 0z"/>
 <path d="M11935 3630 c-8 -12 20 -24 35 -15 6 3 8 11 5 16 -8 12 -32 12 -40 -1z"/>
 <path d="M12145 3630 c-6 -10 14 -23 31 -19 5 1 16 0 24 -4 8 -3 40 -13 70 -22 55 -17 116 -49 135 -70 6 -6 22 -19 36 -28 15 -9 54 -41 87 -72 33 -31 63 -51 66 -46 10 15 -101 123 -173 169 -67 44 -158 83 -204 87 -15 1 -30 5 -34 9 -10 9 -31 7 -38 -4z"/>
 <path d="M14486 3631 c-4 -6 -13 -8 -20 -5 -8 3 -17 0 -21 -5 -3 -6 -10 -9 -15 -6 -12 8 -105 -31 -170 -70 -67 -41 -183 -152 -174 -166 4 -7 23 5 48 28 80 76 144 123 207 152 70 31 99 43 114 46 6 1 15 3 20 4 6 2 19 4 30 4 11 1 22 7 25 12 7 13 -36 19 -44 6z"/>
 <path d="M14695 3630 c-8 -13 20 -24 40 -17 8 4 17 2 20 -4 4 -5 12 -9 18 -8 24 4 197 -77 197 -91 0 -5 14 -17 31 -25 17 -9 60 -45 95 -80 35 -35 66 -60 69 -55 8 14 -113 138 -178 182 -64 44 -173 92 -187 83 -5 -3 -12 0 -15 6 -4 5 -13 8 -21 5 -7 -3 -16 -1 -19 4 -8 13 -42 13 -50 0z"/>
 <path d="M3315 3620 c-3 -6 -11 -8 -16 -4 -5 3 -52 -15 -104 -40 -75 -37 -111 -62 -176 -125 -45 -45 -78 -84 -74 -91 4 -6 23 6 48 32 66 68 157 136 222 167 72 33 97 44 110 45 6 1 11 5 13 11 5 14 -15 18 -23 5z"/>
 <path d="M11887 3624 c-4 -4 -18 -8 -32 -10 -13 -1 -61 -22 -107 -46 -92 -47 -246 -186 -232 -209 5 -8 15 -3 33 19 48 56 175 155 236 182 77 35 98 43 110 44 6 1 11 5 13 11 4 12 -12 18 -21 9z"/>
 <path d="M165 3380 c-3 -6 2 -13 12 -16 10 -3 117 -48 238 -98 202 -86 259 -103 223 -71 -12 11 -445 195 -460 195 -4 0 -10 -5 -13 -10z"/>
 <path d="M1961 2860 c-61 -53 -159 -114 -238 -148 -87 -37 -108 -45 -115 -46 -3 -1 -9 -4 -13 -8 -4 -4 -13 -4 -20 -2 -7 3 -16 1 -19 -5 -4 -6 -13 -8 -20 -5 -8 3 -17 1 -20 -5 -4 -6 -13 -8 -20 -5 -8 3 -17 1 -20 -5 -4 -6 -13 -8 -20 -5 -8 3 -17 1 -20 -5 -4 -6 -13 -8 -20 -5 -8 3 -17 1 -20 -5 -9 -14 14 -25 26 -13 6 6 16 8 23 6 7 -3 16 -1 19 5 4 6 13 8 20 5 8 -3 17 -1 20 5 4 6 13 8 20 5 8 -3 17 0 21 5 3 6 11 9 16 5 5 -3 16 0 24 6 8 7 15 9 15 5 0 -4 6 -2 13 4 8 6 16 9 19 6 5 -5 84 26 200 79 36 16 86 52 130 94 82 78 81 105 -1 32z"/>
 <path d="M1346 2601 c-4 -6 -13 -8 -20 -5 -8 3 -17 1 -20 -5 -4 -6 -13 -8 -20 -5 -8 3 -17 1 -20 -5 -4 -6 -13 -8 -20 -5 -8 3 -17 1 -20 -4 -3 -6 -15 -8 -25 -5 -10 3 -22 0 -25 -6 -4 -5 -13 -8 -20 -5 -8 3 -17 1 -20 -5 -4 -6 -13 -8 -20 -5 -8 3 -17 1 -20 -5 -4 -6 -13 -8 -20 -5 -8 3 -17 0 -21 -5 -3 -6 -11 -9 -16 -6 -5 4 -14 3 -21 -1 -7 -4 -22 -9 -34 -10 -50 -5 -181 -94 -168 -115 5 -9 84 39 84 52 0 4 10 11 22 15 12 3 37 13 57 22 20 9 41 15 48 14 6 -2 14 2 18 7 3 6 12 8 19 5 8 -3 17 -1 20 5 4 6 13 8 20 5 8 -3 17 -1 20 5 4 6 13 8 20 5 8 -3 17 -1 20 4 3 6 15 8 25 5 10 -3 22 0 25 6 4 5 13 8 20 5 8 -3 17 -1 20 5 4 6 13 8 20 5 8 -3 17 0 21 5 3 6 11 9 16 6 5 -4 15 -3 22 2 6 4 17 8 22 8 14 0 19 19 7 23 -6 2 -13 -1 -16 -7z"/>
 <path d="M12940 1961 c-108 -111 -304 -252 -329 -237 -5 4 -12 2 -16 -3 -4 -7 -195 -10 -522 -11 -283 0 -519 -3 -524 -6 -9 -5 -60 19 -138 64 -47 27 -78 35 -87 20 -10 -15 7 -30 21 -18 9 7 16 6 25 -4 29 -35 299 -154 320 -141 5 3 12 0 15 -6 4 -5 13 -8 21 -5 7 3 16 1 20 -5 3 -6 12 -8 20 -5 7 3 16 0 20 -5 3 -6 15 -8 26 -6 11 3 29 0 39 -6 15 -9 24 -9 40 1 18 11 24 11 38 -2 24 -22 227 -22 255 -1 14 11 22 11 37 2 15 -9 23 -9 39 0 10 7 26 10 35 7 8 -4 21 -1 29 5 7 6 20 9 29 5 8 -3 18 -1 21 5 4 6 13 8 20 5 8 -3 17 0 21 5 3 6 10 9 15 6 5 -3 20 0 32 7 13 7 27 11 31 10 15 -4 230 101 282 137 93 65 266 243 248 254 -4 3 -42 -30 -83 -72z"/>
 <path d="M13646 2032 c-10 -16 164 -192 249 -252 43 -30 81 -55 84 -55 4 0 43 -17 87 -37 43 -21 90 -39 104 -42 14 -2 26 -5 28 -7 1 -1 5 -2 10 -4 4 -1 20 -7 35 -13 16 -7 32 -10 37 -7 5 3 12 0 15 -6 4 -5 14 -8 22 -5 9 4 22 1 29 -5 8 -6 21 -9 29 -5 9 3 25 0 35 -7 16 -9 24 -9 39 0 15 9 23 9 37 -2 27 -21 247 -21 264 0 9 11 16 12 31 2 15 -9 23 -9 38 0 10 6 28 9 39 6 11 -2 23 0 26 6 4 5 12 8 20 5 7 -3 26 1 42 7 16 7 32 12 36 11 12 -3 149 48 201 74 26 14 47 21 47 17 0 -5 6 -1 13 7 7 8 29 24 50 36 85 47 298 250 280 267 -3 4 -50 -36 -104 -88 -124 -119 -264 -215 -289 -200 -6 4 -13 -1 -16 -9 -5 -14 -68 -16 -544 -16 -453 0 -540 3 -550 15 -6 7 -18 11 -26 8 -25 -9 -205 121 -301 217 -50 50 -93 87 -97 82z"/>
 <path d="M2527 2024 c-9 -10 97 -123 186 -198 50 -42 114 -84 180 -116 113 -54 215 -93 227 -85 5 3 12 0 15 -6 4 -5 13 -8 21 -5 7 3 16 1 20 -5 3 -6 12 -8 20 -5 7 3 16 0 20 -5 3 -6 17 -8 30 -5 13 4 33 1 44 -6 16 -10 24 -10 39 -1 15 10 22 9 31 -2 17 -21 227 -21 254 0 14 11 22 11 37 2 15 -9 23 -9 39 0 10 7 26 10 35 7 8 -4 21 -1 29 5 7 6 20 9 29 5 8 -3 18 -1 21 5 4 6 13 8 20 5 8 -3 17 0 21 5 3 6 11 9 16 6 12 -8 173 57 250 100 33 19 63 35 66 35 29 0 278 239 264 253 -7 7 -27 -8 -56 -41 -88 -98 -318 -264 -344 -248 -5 4 -12 2 -16 -4 -4 -6 -196 -10 -542 -10 l-537 0 -64 35 c-92 51 -166 108 -263 202 -47 46 -88 80 -92 77z"/>
 <path d="M6876 1962 c-3 -6 1 -15 8 -21 8 -7 17 -8 20 -3 3 6 -1 15 -8 21 -8 7 -17 8 -20 3z"/>
 <path d="M376 1912 c-10 -17 185 -190 224 -197 3 -1 37 -16 75 -34 87 -41 175 -72 185 -66 5 3 12 0 15 -6 4 -5 13 -8 21 -5 7 3 16 1 20 -5 3 -6 13 -8 21 -5 9 4 22 1 29 -5 8 -6 21 -9 29 -5 9 3 24 1 34 -6 11 -6 26 -8 37 -3 23 10 66 7 78 -6 13 -12 119 -12 131 0 14 13 46 16 69 6 11 -5 26 -3 37 3 10 7 25 9 34 6 8 -4 21 -1 29 5 7 6 20 9 29 5 8 -3 18 0 22 5 3 6 10 9 15 6 5 -3 21 0 37 7 15 6 31 11 35 10 12 -3 186 75 216 97 16 11 31 18 34 16 8 -8 179 156 172 166 -3 5 -38 -20 -79 -56 -83 -72 -148 -116 -185 -124 -14 -3 -252 -6 -530 -8 -380 -3 -512 0 -534 9 -17 7 -37 13 -46 13 -23 2 -127 75 -193 135 -30 28 -58 47 -61 42z"/>
 <path d="M5476 1882 c-6 -10 68 -83 129 -128 40 -30 221 -121 253 -128 9 -1 30 -8 46 -15 16 -6 31 -9 34 -6 3 2 11 0 18 -5 6 -6 16 -10 20 -9 5 1 17 -1 27 -6 10 -4 23 -2 31 4 10 8 16 8 26 -4 17 -21 186 -21 214 0 14 11 22 11 37 2 15 -9 23 -9 38 0 10 6 28 9 39 6 11 -2 23 0 26 6 4 5 13 8 20 5 8 -3 17 0 21 5 3 6 10 9 15 6 5 -3 26 2 47 11 21 9 44 18 51 20 7 1 41 16 75 32 64 32 177 135 159 146 -5 3 -15 -1 -22 -9 -7 -8 -16 -13 -20 -10 -4 3 -13 -2 -20 -10 -7 -8 -9 -15 -5 -15 12 0 -44 -42 -58 -44 -6 -1 -25 -7 -42 -14 -22 -8 -151 -13 -462 -14 -399 -3 -432 -2 -442 14 -6 10 -16 15 -23 13 -14 -5 -69 27 -71 41 -1 5 -6 8 -10 6 -5 -1 -40 22 -77 53 -38 30 -71 51 -74 47z"/>
 <path d="M6936 1882 c-11 -18 145 -156 218 -191 108 -52 157 -71 166 -66 5 3 12 0 15 -6 4 -5 13 -8 21 -5 7 3 16 1 20 -5 3 -6 12 -8 20 -5 7 3 16 0 20 -5 3 -6 15 -8 26 -6 11 3 29 0 39 -6 15 -9 23 -9 38 0 15 10 22 9 31 -2 18 -21 222 -21 240 0 9 11 16 12 31 2 15 -9 23 -9 39 0 10 7 26 10 34 7 8 -3 17 0 21 5 3 6 11 9 16 6 5 -4 14 -3 21 1 7 4 21 9 33 10 11 1 60 19 109 41 73 31 103 51 164 110 43 42 71 77 67 83 -5 8 -21 -2 -46 -28 -53 -56 -106 -95 -118 -87 -6 3 -15 -2 -22 -12 -10 -17 -39 -18 -487 -16 -263 2 -480 3 -484 3 -5 0 -7 6 -5 13 1 6 -4 11 -12 9 -7 -1 -19 5 -27 15 -7 10 -14 14 -14 9 0 -11 -64 37 -121 91 -26 25 -49 41 -53 35z"/>
 <path d="M4975 1695 c-3 -8 -7 -22 -10 -30 -2 -8 -5 -18 -5 -20 0 -3 115 -6 255 -6 140 0 255 3 255 6 0 3 0 8 -1 13 -1 4 -2 16 -3 27 -1 19 -9 20 -244 23 -210 2 -243 0 -247 -13z"/>
 <path d="M8955 1698 c-3 -7 -6 -23 -7 -36 l-3 -22 265 0 265 0 -3 22 c-5 49 3 48 -262 48 -191 0 -252 -3 -255 -12z"/>
 <path d="M9935 1698 c-3 -7 -6 -23 -7 -36 l-3 -22 265 0 265 0 -3 22 c-5 49 3 48 -262 48 -191 0 -252 -3 -255 -12z"/>
 <path d="M10836 1701 c-4 -6 -9 -948 -6 -1116 0 -5 5 -4 12 3 16 16 484 17 493 2 4 -6 10 -8 15 -5 14 9 13 1094 -1 1111 -9 11 -61 14 -260 14 -136 0 -250 -4 -253 -9z"/>
 <path d="M9110 1241 c-98 -32 -197 -121 -229 -205 -20 -54 -29 -167 -16 -201 4 -11 19 -45 33 -75 14 -30 26 -60 27 -67 2 -36 140 -134 165 -118 5 3 12 0 15 -6 4 -5 13 -8 21 -5 7 3 16 1 19 -4 8 -13 112 -13 120 0 4 6 15 8 25 5 10 -3 21 -1 25 5 3 6 10 8 15 5 25 -15 164 84 165 118 1 7 13 37 27 67 14 30 29 64 33 75 9 25 9 133 0 160 -35 99 -102 178 -189 222 -42 22 -67 27 -141 30 -49 1 -101 -1 -115 -6z"/>
 <path d="M10090 1241 c-84 -26 -182 -107 -222 -184 -21 -42 -41 -193 -28 -212 4 -5 10 -23 14 -40 4 -16 18 -47 32 -68 14 -21 23 -41 20 -46 -15 -23 139 -131 164 -116 5 3 12 0 15 -6 4 -5 13 -8 21 -5 7 3 16 1 19 -4 8 -14 112 -13 120 1 4 6 14 8 22 5 8 -3 20 -3 26 1 7 4 20 9 30 10 50 8 151 84 152 116 1 10 27 69 66 152 10 21 6 115 -6 150 -39 106 -126 199 -220 234 -57 22 -173 28 -225 12z"/>
 </g>
<g id="layer5" fill="#4aa0c7" stroke="none">
 <path d="M1045 4214 c-80 -8 -221 -43 -290 -73 -165 -72 -272 -148 -399 -282 -89 -95 -154 -186 -213 -298 -42 -80 -49 -157 -18 -192 17 -18 95 -60 173 -90 47 -19 69 -28 123 -53 163 -74 218 -80 270 -30 16 15 29 31 29 35 0 22 83 143 138 201 75 79 158 124 265 144 92 18 139 18 227 -1 84 -18 134 -42 175 -85 27 -28 30 -38 30 -95 0 -56 -3 -67 -27 -92 -52 -54 -133 -84 -353 -133 -352 -79 -487 -129 -664 -244 -86 -56 -205 -171 -246 -236 -16 -25 -42 -83 -57 -130 -26 -76 -29 -99 -29 -215 0 -116 3 -140 29 -221 88 -276 354 -482 737 -570 122 -28 408 -26 530 4 139 34 259 81 373 149 61 36 222 197 267 268 67 105 95 170 95 221 0 41 -4 50 -37 80 -20 19 -41 34 -47 34 -5 0 -28 8 -50 19 -23 10 -93 40 -156 66 -63 26 -123 51 -132 56 -10 5 -41 9 -70 9 -63 0 -82 -14 -131 -90 -49 -77 -111 -132 -187 -166 -62 -27 -72 -29 -205 -29 -132 0 -144 2 -207 28 -143 61 -161 176 -35 235 44 21 121 42 312 87 97 23 134 31 210 48 129 29 286 85 360 129 17 10 47 27 68 38 79 44 220 200 269 300 17 34 17 32 18 -150 0 -278 40 -456 147 -663 50 -98 190 -283 262 -349 255 -231 538 -338 892 -338 269 0 517 71 722 207 127 84 289 253 381 398 54 83 115 221 136 301 4 18 10 36 14 42 41 68 57 540 23 697 -42 191 -111 354 -212 500 -63 90 -251 278 -335 334 -120 80 -244 133 -425 182 -70 20 -526 20 -610 0 -107 -24 -253 -79 -317 -118 -21 -13 -40 -23 -43 -23 -3 0 -33 -19 -68 -42 -102 -70 -271 -242 -342 -348 -65 -97 -144 -254 -146 -287 -1 -40 -16 23 -23 97 -33 337 -330 627 -736 717 -63 14 -378 26 -465 17z m2685 -150 c330 -57 621 -258 792 -546 20 -35 45 -74 55 -88 10 -14 18 -29 18 -35 1 -5 8 -22 18 -36 44 -67 87 -270 94 -449 7 -184 -7 -314 -52 -470 -129 -447 -480 -766 -934 -845 -112 -19 -359 -19 -470 0 -283 50 -513 184 -692 402 -144 175 -210 313 -271 573 -21 88 -17 453 5 562 23 108 70 245 97 278 11 14 25 36 30 48 25 58 142 214 221 292 273 274 665 387 1089 314z m-2320 1 c282 -38 510 -167 641 -363 28 -42 54 -79 58 -82 29 -22 61 -171 61 -283 -2 -365 -233 -613 -670 -717 -64 -15 -174 -41 -220 -51 -25 -6 -70 -16 -100 -24 -30 -8 -86 -22 -125 -31 -164 -40 -257 -109 -271 -201 -23 -152 156 -275 401 -276 215 0 358 72 466 236 21 32 39 62 41 68 2 5 64 -16 138 -47 74 -30 174 -71 223 -91 48 -19 87 -39 87 -44 0 -19 -51 -123 -93 -186 -84 -130 -227 -251 -358 -304 -206 -83 -258 -93 -489 -92 -169 0 -195 2 -295 28 -299 75 -540 258 -611 465 -29 85 -44 217 -33 303 12 98 14 105 50 182 33 73 111 151 227 229 161 109 254 145 552 216 269 64 342 85 405 117 56 27 110 75 129 113 20 39 20 159 0 208 -55 140 -300 224 -514 178 -94 -20 -127 -34 -200 -81 -101 -66 -187 -166 -254 -296 l-29 -57 -46 20 c-25 11 -62 26 -81 35 -19 8 -44 19 -55 23 -99 42 -123 52 -140 60 -11 5 -41 16 -67 26 -57 20 -79 41 -57 54 8 5 14 13 15 17 0 10 24 51 85 148 131 211 316 369 519 444 179 65 396 85 610 56z"/>
 <path d="M3375 3616 c-175 -31 -323 -124 -440 -276 -59 -77 -91 -145 -120 -253 -21 -79 -25 -114 -25 -246 0 -294 81 -483 274 -637 137 -109 252 -149 431 -148 104 1 131 5 204 29 136 46 260 138 350 260 48 65 89 153 119 255 24 82 23 402 -1 485 -60 201 -169 344 -337 445 -83 50 -135 69 -235 86 -94 16 -126 16 -220 0z m192 -37 c140 -19 225 -58 336 -156 45 -39 107 -126 136 -188 80 -172 93 -418 32 -622 -42 -142 -177 -300 -311 -365 -134 -65 -259 -81 -393 -52 -227 48 -412 228 -474 460 -23 88 -26 371 -4 449 38 136 121 266 221 348 103 83 199 118 367 136 6 0 47 -4 90 -10z"/>
 <path d="M11830 4214 c-289 -49 -492 -156 -697 -367 -59 -62 -130 -145 -156 -184 -102 -154 -179 -356 -208 -548 -11 -73 -14 -318 -14 -1292 l0 -1203 28 -27 27 -28 253 -3 c275 -4 314 1 343 46 18 25 19 59 22 549 2 288 5 523 8 523 4 0 21 -7 40 -15 19 -8 49 -21 67 -29 17 -8 68 -25 112 -39 260 -79 542 -79 815 3 91 27 260 107 315 149 22 17 59 45 83 63 190 145 380 431 440 663 6 22 15 56 20 75 l9 35 8 -40 c12 -67 54 -185 99 -280 76 -159 191 -308 333 -428 111 -94 126 -105 228 -157 309 -157 703 -186 1040 -75 212 70 408 204 554 378 184 221 260 398 312 730 13 88 8 330 -11 417 -6 30 -16 78 -21 105 -68 331 -322 670 -634 845 -75 42 -220 95 -330 121 -83 19 -539 20 -610 0 -140 -37 -149 -40 -260 -92 -129 -60 -261 -156 -366 -265 -165 -173 -265 -360 -336 -624 l-10 -35 -11 51 c-64 291 -242 560 -497 753 -93 71 -245 150 -345 180 -134 41 -146 42 -385 46 -132 2 -251 2 -265 -1z m465 -150 c329 -54 625 -259 800 -554 22 -36 48 -75 58 -87 11 -12 16 -26 13 -32 -4 -5 -1 -13 5 -17 47 -29 108 -330 108 -534 0 -405 -158 -763 -439 -994 -111 -91 -181 -132 -335 -196 -199 -82 -591 -95 -814 -26 -113 35 -202 74 -278 122 -41 26 -54 30 -62 20 -8 -10 -11 -185 -9 -590 l3 -576 -258 0 -258 0 4 1213 c3 858 8 1225 16 1257 6 25 15 68 20 95 16 84 54 187 89 239 18 28 34 58 35 68 1 10 4 18 7 18 3 0 30 37 60 82 105 157 301 328 460 400 234 107 496 138 775 92z m2558 0 c285 -47 531 -196 712 -429 56 -72 135 -197 135 -212 0 -4 8 -16 19 -27 25 -28 69 -158 92 -274 24 -119 26 -416 4 -537 -84 -459 -382 -812 -800 -949 -122 -40 -234 -56 -397 -56 -380 0 -661 118 -904 380 -310 335 -408 864 -249 1347 9 29 23 57 31 64 8 6 11 16 8 21 -3 5 1 15 9 21 8 7 27 34 41 60 75 137 206 289 331 384 253 192 606 267 968 207z"/>
 <path d="M11945 3615 c-150 -26 -276 -96 -388 -214 -143 -152 -200 -312 -201 -561 0 -282 87 -485 273 -632 142 -113 255 -153 436 -152 106 1 130 4 206 31 109 38 210 104 292 193 73 79 123 167 164 290 26 81 28 94 28 265 0 205 -10 256 -75 390 -63 131 -166 240 -300 318 -62 36 -121 56 -215 73 -92 16 -124 16 -220 -1z m192 -36 c89 -12 143 -28 199 -60 186 -104 294 -259 330 -474 34 -201 3 -405 -84 -563 -43 -77 -166 -191 -252 -234 -85 -41 -193 -68 -275 -68 -56 0 -175 23 -207 41 -10 5 -23 9 -29 9 -21 0 -155 93 -196 137 -47 49 -90 110 -112 158 -7 17 -17 37 -21 46 -4 8 -17 50 -29 92 -17 62 -21 106 -21 224 0 175 11 226 78 371 40 88 165 213 262 262 58 30 90 40 175 55 92 17 91 17 182 4z"/>
 <path d="M14495 3615 c-96 -18 -161 -44 -243 -99 -227 -151 -342 -376 -342 -671 0 -95 17 -218 39 -294 6 -19 30 -73 53 -120 76 -154 235 -289 407 -348 98 -33 278 -37 381 -9 125 34 281 136 358 233 110 139 172 332 172 533 0 295 -118 530 -339 674 -86 56 -158 84 -256 102 -94 16 -135 16 -230 -1z m215 -40 c47 -7 96 -18 110 -22 116 -37 272 -174 329 -290 18 -37 37 -76 42 -85 38 -76 54 -381 25 -498 -64 -258 -230 -426 -478 -484 -267 -63 -556 85 -678 346 -125 269 -75 659 108 846 119 121 204 166 362 191 79 13 86 12 180 -4z"/>
 <path d="M4973 4149 c-17 -5 -43 -23 -57 -40 l-26 -31 0 -1195 0 -1195 33 -33 c43 -43 85 -48 346 -44 l200 4 35 34 c21 20 38 49 42 68 3 18 8 33 9 33 2 0 30 -17 62 -39 99 -65 216 -116 348 -152 89 -24 300 -26 407 -4 93 19 190 46 203 57 5 4 15 8 22 8 30 0 166 96 227 160 67 71 77 75 103 39 23 -31 165 -132 238 -169 69 -35 147 -62 260 -91 28 -7 124 -14 215 -16 179 -5 279 10 405 59 232 89 414 287 500 543 64 192 65 195 65 1108 0 924 5 861 -71 891 -59 24 -475 23 -526 -1 -75 -35 -71 16 -76 -857 -4 -749 -5 -784 -25 -847 -48 -157 -101 -210 -244 -244 -91 -21 -148 -18 -241 12 -74 25 -89 34 -152 98 -70 70 -132 173 -158 263 -7 24 -13 293 -16 762 -7 822 -2 774 -87 812 -41 18 -63 19 -277 16 -255 -3 -285 -10 -310 -66 -9 -20 -13 -231 -18 -812 -5 -767 -6 -787 -27 -856 -38 -125 -88 -180 -197 -218 -144 -50 -312 -20 -421 76 -41 37 -108 133 -136 198 -54 122 -51 83 -57 862 -6 710 -6 727 -26 754 -45 60 -67 64 -315 63 -124 0 -239 -5 -257 -10z m547 -1664 c68 -199 195 -346 348 -406 76 -30 248 -32 332 -5 127 42 214 128 252 250 35 113 38 172 38 936 l0 755 260 0 260 0 0 -687 c0 -562 3 -699 15 -756 31 -150 91 -268 184 -366 118 -123 260 -171 435 -147 135 19 227 75 291 176 29 47 36 65 66 175 9 33 13 250 16 823 l4 777 255 0 254 0 0 -815 c0 -892 2 -857 -61 -1060 -66 -216 -211 -393 -389 -476 -128 -60 -227 -79 -410 -79 -153 0 -252 14 -355 50 -33 12 -69 24 -80 27 -34 11 -147 83 -201 128 -28 24 -70 70 -94 102 -24 32 -47 62 -51 66 -3 5 -23 -21 -44 -58 -118 -212 -341 -316 -680 -315 -176 1 -265 23 -421 105 -90 48 -178 111 -228 164 -45 47 -54 30 -48 -94 l5 -105 -252 0 -251 0 0 1180 0 1180 258 2 257 3 5 -730 5 -730 25 -70z"/>
 <path d="M8955 4145 c-16 -7 -41 -23 -55 -34 l-25 -20 -3 -1179 c-3 -1276 -4 -1235 51 -1276 27 -20 40 -21 287 -21 247 0 260 1 287 21 55 41 54 1 51 1269 l-3 1173 -25 27 c-46 51 -71 55 -312 55 -169 -1 -230 -4 -253 -15z m515 -1312 l0 -1183 -260 0 -260 0 0 1183 0 1182 260 0 260 0 0 -1182z"/>
 <path d="M9933 4147 c-18 -7 -43 -22 -55 -35 l-23 -23 -3 -1190 c-2 -1303 -6 -1226 55 -1266 24 -16 56 -18 284 -18 246 0 259 1 286 21 55 41 54 1 51 1269 l-3 1173 -25 27 c-47 51 -71 55 -312 54 -144 0 -234 -5 -255 -12z m517 -1314 l0 -1183 -260 0 -260 0 0 1183 0 1182 260 0 260 0 0 -1182z"/>
 <path d="M9120 1366 c-81 -18 -148 -57 -212 -123 -67 -69 -92 -111 -113 -192 -40 -154 10 -310 135 -423 143 -129 344 -145 507 -39 160 103 233 283 188 458 -22 86 -40 117 -107 189 -69 73 -133 111 -223 130 -72 16 -103 16 -175 0z m243 -152 c150 -75 220 -225 182 -390 -58 -251 -348 -351 -557 -192 -82 63 -139 210 -123 316 21 142 132 265 264 293 66 14 177 2 234 -27z"/>
 <path d="M10100 1366 c-84 -19 -149 -57 -216 -128 -70 -73 -86 -100 -108 -185 -23 -89 -16 -186 20 -278 15 -39 83 -122 131 -161 209 -172 527 -98 646 149 48 99 58 185 32 284 -22 86 -40 117 -105 187 -71 75 -150 119 -241 135 -77 13 -87 13 -159 -3z m238 -151 c88 -40 153 -113 181 -202 21 -63 11 -206 -18 -265 -23 -49 -100 -130 -142 -152 -75 -38 -171 -50 -244 -31 -86 22 -122 41 -171 90 -57 57 -82 109 -96 199 -10 65 -9 84 5 136 37 131 131 223 257 251 62 14 166 2 228 -26z"/>
 </g>
<g id="layer6" fill="#4cb9ea" stroke="none">
 <path d="M3426 3621 c-4 -5 -2 -12 3 -15 5 -4 12 -2 15 3 4 5 2 12 -3 15 -5 4 -12 2 -15 -3z"/>
 <path d="M1356 3611 c-4 -5 -2 -12 3 -15 5 -4 12 -2 15 3 4 5 2 12 -3 15 -5 4 -12 2 -15 -3z"/>
 <path d="M12166 3611 c-4 -5 -2 -12 3 -15 5 -4 12 -2 15 3 4 5 2 12 -3 15 -5 4 -12 2 -15 -3z"/>
 <path d="M14486 3611 c-4 -5 -2 -12 3 -15 5 -4 12 -2 15 3 4 5 2 12 -3 15 -5 4 -12 2 -15 -3z"/>
 <path d="M1015 3590 c-4 -6 -10 -8 -15 -5 -5 3 -11 1 -14 -4 -4 -5 -2 -12 3 -15 5 -4 12 -2 16 4 4 6 10 8 15 5 5 -3 11 -1 14 4 4 5 2 12 -3 15 -5 4 -12 2 -16 -4z"/>
 <path d="M3716 3581 c-4 -5 -2 -12 3 -15 5 -4 12 -2 15 3 4 5 2 12 -3 15 -5 4 -12 2 -15 -3z"/>
 <path d="M12286 3581 c-4 -5 -2 -12 3 -15 5 -4 12 -2 15 3 4 5 2 12 -3 15 -5 4 -12 2 -15 -3z"/>
 <path d="M14366 3581 c-4 -5 -2 -12 3 -15 5 -4 12 -2 15 3 4 5 2 12 -3 15 -5 4 -12 2 -15 -3z"/>
 <path d="M14846 3581 c-4 -5 -2 -12 3 -15 5 -4 12 -2 15 3 4 5 2 12 -3 15 -5 4 -12 2 -15 -3z"/>
 <path d="M3216 3571 c-4 -5 -2 -12 3 -15 5 -4 12 -2 15 3 4 5 2 12 -3 15 -5 4 -12 2 -15 -3z"/>
 <path d="M11775 3566 c-11 -8 -14 -16 -8 -19 6 -4 18 0 28 7 11 8 14 16 8 19 -6 4 -18 0 -28 -7z"/>
 <path d="M1496 3561 c-3 -5 5 -16 19 -25 24 -16 45 -6 22 11 -24 19 -36 23 -41 14z"/>
 <path d="M3786 3551 c-4 -5 -2 -12 3 -15 5 -4 12 -2 15 3 4 5 2 12 -3 15 -5 4 -12 2 -15 -3z"/>
 <path d="M14296 3551 c-4 -5 -2 -12 3 -15 5 -4 12 -2 15 3 4 5 2 12 -3 15 -5 4 -12 2 -15 -3z"/>
 <path d="M14925 3541 c-3 -6 3 -15 14 -21 12 -6 22 -6 26 -1 3 6 -3 15 -14 21 -12 6 -22 6 -26 1z"/>
 <path d="M3836 3521 c-4 -5 -2 -12 3 -15 5 -4 12 -2 15 3 4 5 2 12 -3 15 -5 4 -12 2 -15 -3z"/>
 <path d="M14246 3521 c-4 -5 -2 -12 3 -15 5 -4 12 -2 15 3 4 5 2 12 -3 15 -5 4 -12 2 -15 -3z"/>
 <path d="M866 3511 c-4 -5 -2 -12 3 -15 5 -4 12 -2 15 3 4 5 2 12 -3 15 -5 4 -12 2 -15 -3z"/>
 <path d="M1566 3512 c-7 -11 18 -35 27 -26 3 3 10 -4 17 -15 6 -12 15 -19 21 -16 5 4 5 14 -2 26 -6 12 -13 18 -16 15 -4 -3 -14 1 -24 10 -10 9 -20 11 -23 6z"/>
 <path d="M11676 3511 c-4 -5 -2 -12 3 -15 5 -4 12 -2 15 3 4 5 2 12 -3 15 -5 4 -12 2 -15 -3z"/>
 <path d="M14211 3496 c-7 -8 -8 -17 -3 -20 6 -3 15 1 21 8 7 8 8 17 3 20 -6 3 -15 -1 -21 -8z"/>
 <path d="M801 3456 c-24 -24 -39 -46 -34 -49 6 -4 29 13 52 37 24 24 39 46 34 49 -6 4 -29 -13 -52 -37z"/>
 <path d="M12489 3496 c-5 -23 -2 -46 5 -48 12 -4 15 41 4 48 -4 3 -8 3 -9 0z"/>
 <path d="M15006 3491 c-4 -5 -2 -12 3 -15 5 -4 12 -2 15 3 4 5 2 12 -3 15 -5 4 -12 2 -15 -3z"/>
 <path d="M3066 3481 c-4 -5 -2 -12 3 -15 5 -4 12 -2 15 3 4 5 2 12 -3 15 -5 4 -12 2 -15 -3z"/>
 <path d="M11636 3481 c-4 -5 -2 -12 3 -15 5 -4 12 -2 15 3 4 5 2 12 -3 15 -5 4 -12 2 -15 -3z"/>
 <path d="M3906 3472 c-3 -6 1 -15 8 -21 8 -7 17 -8 20 -3 3 6 -1 15 -8 21 -8 7 -17 8 -20 3z"/>
 <path d="M14156 3451 c-10 -11 -13 -22 -8 -25 5 -3 17 3 26 13 10 11 13 22 8 25 -5 3 -17 -3 -26 -13z"/>
 <path d="M2996 3421 c-21 -21 -34 -41 -29 -44 6 -4 27 11 47 32 21 21 34 41 29 44 -6 4 -27 -11 -47 -32z"/>
 <path d="M15056 3452 c-3 -5 3 -17 13 -26 11 -10 22 -13 25 -8 3 5 -3 17 -13 26 -11 10 -22 13 -25 8z"/>
 <path d="M11556 3411 c-15 -16 -23 -31 -18 -35 5 -3 21 8 36 23 15 16 23 31 18 35 -5 3 -21 -8 -36 -23z"/>
 <path d="M3976 3411 c-4 -5 -2 -12 3 -15 5 -4 12 -2 15 3 4 5 2 12 -3 15 -5 4 -12 2 -15 -3z"/>
 <path d="M14106 3401 c-4 -5 -2 -12 3 -15 5 -4 12 -2 15 3 4 5 2 12 -3 15 -5 4 -12 2 -15 -3z"/>
 <path d="M15106 3402 c-3 -5 3 -17 13 -26 11 -10 22 -13 25 -8 3 5 -3 17 -13 26 -11 10 -22 13 -25 8z"/>
 <path d="M4019 3396 c-5 -23 -2 -46 5 -48 12 -4 15 41 4 48 -4 3 -8 3 -9 0z"/>
 <path d="M12589 3396 c-5 -23 -2 -46 5 -48 12 -4 15 41 4 48 -4 3 -8 3 -9 0z"/>
 <path d="M706 3371 c-4 -5 -2 -12 3 -15 5 -4 12 -2 15 3 4 5 2 12 -3 15 -5 4 -12 2 -15 -3z"/>
 <path d="M14076 3372 c-4 -4 -12 -7 -17 -7 -15 0 -11 -19 5 -21 18 -3 41 22 28 30 -5 3 -12 2 -16 -2z"/>
 <path d="M15166 3361 c-4 -5 -2 -12 3 -15 5 -4 12 -2 15 3 4 5 2 12 -3 15 -5 4 -12 2 -15 -3z"/>
 <path d="M4056 3341 c-4 -5 -2 -12 3 -15 5 -4 12 -2 15 3 4 5 2 12 -3 15 -5 4 -12 2 -15 -3z"/>
 <path d="M11466 3331 c-4 -5 -2 -12 3 -15 5 -4 12 -2 15 3 4 5 2 12 -3 15 -5 4 -12 2 -15 -3z"/>
 <path d="M15186 3331 c-4 -5 -2 -12 3 -15 5 -4 12 -2 15 3 4 5 2 12 -3 15 -5 4 -12 2 -15 -3z"/>
 <path d="M676 3321 c-4 -5 -2 -12 3 -15 5 -4 12 -2 15 3 4 5 2 12 -3 15 -5 4 -12 2 -15 -3z"/>
 <path d="M12657 3293 c-4 -6 0 -18 7 -28 8 -11 16 -14 19 -8 4 6 0 18 -7 28 -8 11 -16 14 -19 8z"/>
 <path d="M376 3281 c-4 -5 -2 -12 3 -15 5 -4 12 -2 15 3 4 5 2 12 -3 15 -5 4 -12 2 -15 -3z"/>
 <path d="M2866 3281 c-4 -5 -2 -12 3 -15 5 -4 12 -2 15 3 4 5 2 12 -3 15 -5 4 -12 2 -15 -3z"/>
 <path d="M446 3251 c-4 -5 -2 -12 3 -15 5 -4 12 -2 15 3 4 5 2 12 -3 15 -5 4 -12 2 -15 -3z"/>
 <path d="M13976 3251 c-4 -5 -2 -12 3 -15 5 -4 12 -2 15 3 4 5 2 12 -3 15 -5 4 -12 2 -15 -3z"/>
 <path d="M11416 3241 c-4 -5 -2 -12 3 -15 5 -4 12 -2 15 3 4 5 2 12 -3 15 -5 4 -12 2 -15 -3z"/>
 <path d="M546 3211 c-4 -5 -2 -12 3 -15 5 -4 12 -2 15 3 4 5 2 12 -3 15 -5 4 -12 2 -15 -3z"/>
 <path d="M616 3211 c-4 -5 -2 -12 3 -15 5 -4 12 -2 15 3 4 5 2 12 -3 15 -5 4 -12 2 -15 -3z"/>
 <path d="M2019 2943 c-1 -4 -2 -12 -3 -18 0 -5 -5 -12 -11 -13 -19 -7 -35 -24 -29 -33 3 -5 0 -8 -8 -7 -7 2 -12 -3 -10 -11 2 -7 -4 -21 -13 -31 -9 -10 -12 -21 -7 -24 12 -7 54 38 45 48 -5 4 -1 6 7 4 8 -2 14 5 15 17 0 11 6 20 14 20 15 0 23 43 9 51 -4 3 -9 2 -9 -3z"/>
 <path d="M1899 2826 c-5 -23 -2 -46 5 -48 12 -4 15 41 4 48 -4 3 -8 3 -9 0z"/>
 <path d="M1845 2756 c-11 -8 -14 -16 -8 -19 6 -4 18 0 28 7 11 8 14 16 8 19 -6 4 -18 0 -28 -7z"/>
 <path d="M1766 2711 c-4 -5 -2 -12 3 -15 5 -4 12 -2 15 3 4 5 2 12 -3 15 -5 4 -12 2 -15 -3z"/>
 <path d="M1696 2681 c-4 -5 -2 -12 3 -15 5 -4 12 -2 15 3 4 5 2 12 -3 15 -5 4 -12 2 -15 -3z"/>
 <path d="M1586 2641 c-4 -5 -2 -12 3 -15 5 -4 12 -2 15 3 4 5 2 12 -3 15 -5 4 -12 2 -15 -3z"/>
 <path d="M1046 2511 c-4 -5 -2 -12 3 -15 5 -4 12 -2 15 3 4 5 2 12 -3 15 -5 4 -12 2 -15 -3z"/>
 <path d="M896 2492 c-3 -5 3 -17 13 -26 13 -12 21 -14 26 -6 3 5 10 8 15 5 5 -3 11 -1 14 4 4 5 2 12 -3 15 -5 4 -13 1 -16 -4 -5 -8 -13 -6 -25 5 -10 9 -21 12 -24 7z"/>
 <path d="M13436 2481 c-4 -5 -2 -12 3 -15 5 -4 12 -2 15 3 4 5 2 12 -3 15 -5 4 -12 2 -15 -3z"/>
 <path d="M4649 2476 c-1 -3 -2 -9 -3 -13 -1 -5 -5 -14 -9 -20 -5 -7 -5 -13 -1 -13 3 0 1 -7 -6 -15 -7 -8 -10 -15 -6 -15 3 0 -5 -18 -19 -40 -14 -22 -25 -44 -25 -50 0 -6 -96 -10 -278 -10 l-278 0 -29 -30 c-45 -47 -169 -129 -237 -157 -126 -51 -266 -65 -400 -39 -138 27 -238 77 -357 179 l-55 47 -273 0 -272 0 -28 58 c-14 31 -27 60 -27 65 -1 4 -4 7 -8 7 -7 0 -10 -5 -7 -12 0 -2 2 -14 5 -28 7 -40 79 -184 131 -263 26 -39 48 -81 49 -92 0 -11 6 -19 13 -17 21 5 53 -29 41 -43 -7 -8 -3 -18 13 -33 13 -12 26 -19 30 -16 10 10 39 -17 33 -32 -5 -14 37 -57 47 -48 4 4 1 14 -5 23 -8 9 -3 8 10 -3 12 -11 21 -25 18 -32 -5 -14 27 -47 37 -37 4 3 -1 15 -10 27 -10 11 0 6 22 -12 22 -17 76 -52 120 -77 l79 -45 526 3 c289 1 533 6 543 11 11 5 17 5 15 -2 -2 -5 1 -12 7 -14 5 -1 10 6 10 16 0 11 6 21 13 24 7 2 11 -1 10 -6 -2 -6 1 -12 7 -14 5 -1 10 5 10 15 0 10 15 27 33 39 18 11 32 16 30 10 -2 -5 2 -9 7 -9 6 1 9 7 7 13 -1 6 6 18 15 25 16 12 17 12 6 -2 -7 -9 -10 -19 -6 -22 10 -10 32 13 27 27 -3 7 2 19 11 26 9 7 15 9 13 4 -2 -5 2 -9 7 -9 6 0 9 4 7 10 -1 6 12 24 30 41 18 16 27 22 20 13 -6 -9 -9 -19 -5 -23 10 -10 53 35 46 48 -3 6 -2 8 2 3 12 -11 45 22 38 39 -7 18 26 56 44 50 15 -6 27 10 14 19 -6 3 5 26 24 51 64 84 149 244 160 300 2 11 4 20 5 22 2 1 4 7 5 12 1 6 4 12 5 15 1 3 3 8 4 13 1 4 5 12 9 19 4 6 3 14 -3 18 -5 3 -11 4 -11 1z"/>
 <path d="M13219 2476 c-1 -3 -2 -9 -3 -13 -1 -5 -8 -19 -15 -31 -7 -13 -10 -26 -8 -29 3 -2 -6 -21 -19 -40 -13 -20 -24 -42 -24 -49 0 -12 -50 -14 -276 -14 l-276 0 -56 -48 c-84 -72 -142 -109 -224 -141 -251 -99 -527 -48 -741 137 l-61 52 -340 -2 -341 -3 -3 -294 c-1 -162 1 -298 6 -303 4 -4 122 -8 262 -8 l255 -1 3 31 c2 17 -2 38 -8 45 -7 8 -9 19 -5 25 9 14 28 1 21 -15 -5 -15 17 -38 27 -28 4 3 1 13 -6 21 -9 11 -4 10 16 -3 15 -9 26 -23 25 -29 -2 -6 2 -12 7 -12 6 -1 9 2 7 7 -1 5 20 -2 48 -16 l50 -26 523 3 c474 3 525 5 556 21 39 20 42 20 38 8 -1 -5 2 -11 8 -13 5 -1 10 5 10 15 0 10 15 27 33 39 18 11 32 16 30 10 -2 -5 2 -9 7 -9 6 1 9 7 7 13 -1 6 6 18 15 25 16 12 17 12 6 -2 -7 -9 -10 -19 -6 -22 10 -10 32 13 27 27 -3 7 2 19 11 26 9 7 15 9 13 4 -2 -5 2 -9 7 -9 6 0 9 4 7 10 -1 6 12 24 29 41 17 16 30 25 29 19 -5 -22 1 -27 15 -15 8 7 12 16 9 21 -3 5 0 8 8 7 8 -2 12 4 10 15 -2 12 2 17 12 15 8 -2 15 2 14 7 0 6 -5 9 -11 7 -6 -2 -4 4 3 13 7 9 18 14 24 12 16 -6 46 23 40 38 -3 8 12 38 34 67 66 87 175 298 155 298 -3 0 0 6 6 13 6 8 12 22 14 33 1 10 6 24 10 31 4 6 3 14 -3 18 -5 3 -11 4 -11 1z"/>
 <path d="M823 2437 c-36 -38 -63 -88 -63 -116 0 -20 -6 -21 -252 -23 l-253 -3 0 -55 c0 -30 3 -62 7 -70 3 -8 16 -44 29 -80 30 -88 59 -132 141 -216 38 -39 68 -75 66 -80 -2 -5 2 -9 7 -9 6 0 9 4 7 9 -2 5 4 4 13 -4 8 -7 14 -19 13 -26 -2 -7 2 -12 7 -11 6 1 9 6 7 11 -2 5 10 1 25 -10 15 -10 50 -28 76 -41 l48 -23 507 2 c279 2 515 7 525 12 10 5 17 5 15 0 -2 -5 2 -10 7 -11 6 -1 9 4 8 10 -2 7 6 18 17 25 11 7 19 9 18 5 -2 -5 1 -8 7 -8 5 0 9 5 7 11 -1 6 9 19 23 28 14 9 25 13 24 9 -3 -20 2 -24 16 -13 8 7 12 17 9 22 -3 5 25 42 64 81 100 104 210 284 186 306 -5 5 -52 25 -104 44 -52 20 -124 47 -159 61 -44 18 -84 26 -125 26 l-61 0 -71 -78 c-114 -124 -230 -173 -414 -174 -176 -1 -313 47 -377 131 -30 38 -33 49 -33 110 0 44 5 74 15 87 8 10 15 15 15 10 0 -5 9 -1 20 9 15 14 17 22 9 37 -7 14 -7 18 -1 14 6 -3 13 -2 16 3 4 5 2 12 -2 15 -5 3 -23 -9 -39 -27z"/>
 <path d="M15768 2465 c0 -6 -2 -14 -3 -20 -1 -5 -16 -40 -34 -77 l-31 -68 -274 0 -274 0 -48 -43 c-69 -60 -112 -90 -169 -119 -272 -138 -597 -85 -830 133 l-31 29 -273 2 -273 3 -27 50 c-15 28 -28 53 -29 58 -1 4 -4 7 -7 7 -3 0 -8 0 -11 0 -4 0 -1 -6 5 -13 6 -8 8 -17 5 -20 -12 -11 104 -233 156 -302 29 -36 49 -72 46 -80 -5 -15 17 -39 27 -28 4 3 40 -25 80 -63 39 -39 87 -80 105 -93 19 -13 31 -29 28 -36 -5 -15 17 -38 27 -28 4 3 1 13 -6 22 -6 8 2 5 19 -7 17 -12 61 -35 97 -52 l65 -30 507 0 c548 0 513 -3 618 52 11 5 16 5 15 -1 -2 -5 1 -8 7 -8 5 1 9 7 7 14 -1 6 18 26 43 43 25 17 44 28 43 23 -2 -4 1 -8 7 -8 5 0 9 5 7 11 -1 5 13 23 30 40 27 23 29 24 10 3 -12 -14 -19 -29 -15 -32 9 -10 52 33 47 47 -6 15 69 88 87 84 9 -2 13 4 11 16 -2 10 10 32 26 50 38 40 116 155 149 220 32 63 75 176 67 176 -4 0 -1 7 6 15 10 12 10 19 2 27 -7 7 -13 8 -14 3z"/>
 <path d="M8494 2336 c-4 -10 -2 -22 4 -28 8 -8 13 -7 18 6 4 10 2 22 -4 28 -8 8 -13 7 -18 -6z"/>
 <path d="M4966 2275 c-23 -35 -24 -586 -1 -605 12 -10 16 -9 21 4 5 14 34 16 239 16 132 0 236 4 240 9 3 5 6 53 7 106 l1 96 49 -48 c26 -26 47 -53 45 -59 -1 -7 3 -12 8 -11 6 1 9 6 7 10 -3 9 43 -19 81 -50 16 -13 34 -23 42 -23 7 0 18 -7 25 -15 11 -13 73 -15 447 -15 421 0 435 1 476 21 23 12 58 37 78 55 23 23 36 30 36 20 0 -8 -3 -13 -7 -11 -10 6 -41 -30 -33 -38 11 -11 72 54 66 70 -3 7 2 21 10 31 9 9 30 42 49 72 l33 55 48 -57 c26 -32 44 -58 40 -57 -26 4 -22 -6 17 -46 43 -44 78 -53 43 -12 l-18 22 25 -21 c14 -12 52 -40 84 -63 l59 -41 472 0 c408 0 474 2 485 15 7 8 18 15 24 15 7 0 38 23 69 51 32 28 61 49 64 45 9 -9 34 15 27 26 -3 5 15 41 41 80 50 74 103 189 125 273 7 28 17 54 21 59 4 5 4 17 -2 28 -9 17 -27 18 -268 18 l-259 0 -32 -49 c-69 -109 -165 -165 -313 -184 -177 -22 -308 23 -441 153 l-82 80 -330 0 -329 0 -45 -67 c-70 -105 -171 -157 -332 -170 -163 -13 -290 36 -410 159 l-76 78 -305 0 -305 0 -16 -25z"/>
 <path d="M8955 2288 c-3 -7 -4 -144 -3 -303 l3 -290 255 0 255 0 0 300 0 300 -253 3 c-198 2 -254 0 -257 -10z"/>
 <path d="M9935 2288 c-3 -7 -4 -144 -3 -303 l3 -290 255 0 255 0 0 300 0 300 -253 3 c-198 2 -254 0 -257 -10z"/>
 <path d="M13736 1922 c-3 -6 1 -15 8 -21 8 -7 17 -8 20 -3 3 6 -1 15 -8 21 -8 7 -17 8 -20 3z"/>
 <path d="M406 1872 c-3 -5 5 -19 18 -31 13 -13 26 -18 30 -13 3 5 -5 19 -18 31 -13 13 -26 18 -30 13z"/>
 <path d="M1966 1871 c-4 -5 -2 -12 3 -15 5 -4 12 -2 15 3 4 5 2 12 -3 15 -5 4 -12 2 -15 -3z"/>
 <path d="M1931 1836 c-7 -8 -8 -17 -3 -20 6 -3 15 1 21 8 7 8 8 17 3 20 -6 3 -15 -1 -21 -8z"/>
 <path d="M13876 1801 c-4 -5 -2 -12 3 -15 5 -4 12 -2 15 3 4 5 2 12 -3 15 -5 4 -12 2 -15 -3z"/>
 <path d="M15306 1781 c-4 -5 -2 -12 3 -15 5 -4 12 -2 15 3 4 5 2 12 -3 15 -5 4 -12 2 -15 -3z"/>
 <path d="M2806 1761 c-4 -5 -2 -12 3 -15 5 -4 12 -2 15 3 4 5 2 12 -3 15 -5 4 -12 2 -15 -3z"/>
 <path d="M5606 1761 c-4 -5 -2 -12 3 -15 5 -4 12 -2 15 3 4 5 2 12 -3 15 -5 4 -12 2 -15 -3z"/>
 <path d="M15276 1761 c-4 -5 -2 -12 3 -15 5 -4 12 -2 15 3 4 5 2 12 -3 15 -5 4 -12 2 -15 -3z"/>
 <path d="M4136 1751 c-4 -5 -2 -12 3 -15 5 -4 12 -2 15 3 4 5 2 12 -3 15 -5 4 -12 2 -15 -3z"/>
 <path d="M7066 1752 c-3 -6 1 -15 8 -21 8 -7 17 -8 20 -3 3 6 -1 15 -8 21 -8 7 -17 8 -20 3z"/>
 <path d="M566 1741 c-4 -5 -2 -12 3 -15 5 -4 12 -2 15 3 4 5 2 12 -3 15 -5 4 -12 2 -15 -3z"/>
 <path d="M2856 1731 c-4 -5 -2 -12 3 -15 5 -4 12 -2 15 3 4 5 2 12 -3 15 -5 4 -12 2 -15 -3z"/>
 <path d="M7106 1721 c-4 -5 -2 -12 3 -15 5 -4 12 -2 15 3 4 5 2 12 -3 15 -5 4 -12 2 -15 -3z"/>
 <path d="M14016 1711 c-4 -5 -2 -12 3 -15 5 -4 12 -2 15 3 4 5 2 12 -3 15 -5 4 -12 2 -15 -3z"/>
 <path d="M15196 1711 c-4 -5 -2 -12 3 -15 5 -4 12 -2 15 3 4 5 2 12 -3 15 -5 4 -12 2 -15 -3z"/>
 <path d="M6641 1691 c-14 -11 -19 -21 -13 -25 5 -3 20 2 33 12 29 24 11 36 -20 13z"/>
 <path d="M5716 1691 c-4 -5 -2 -12 3 -15 5 -4 12 -2 15 3 4 5 2 12 -3 15 -5 4 -12 2 -15 -3z"/>
 <path d="M15156 1691 c-4 -5 -2 -12 3 -15 5 -4 12 -2 15 3 4 5 2 12 -3 15 -5 4 -12 2 -15 -3z"/>
 <path d="M4006 1681 c-4 -5 -2 -12 3 -15 5 -4 12 -2 15 3 4 5 2 12 -3 15 -5 4 -12 2 -15 -3z"/>
 <path d="M2976 1671 c-4 -5 -2 -12 3 -15 5 -4 12 -2 15 3 4 5 2 12 -3 15 -5 4 -12 2 -15 -3z"/>
 <path d="M5756 1671 c-4 -5 -2 -12 3 -15 5 -4 12 -2 15 3 4 5 2 12 -3 15 -5 4 -12 2 -15 -3z"/>
 <path d="M7196 1671 c-4 -5 -2 -12 3 -15 5 -4 12 -2 15 3 4 5 2 12 -3 15 -5 4 -12 2 -15 -3z"/>
 <path d="M11546 1671 c-4 -5 -2 -12 3 -15 5 -4 12 -2 15 3 4 5 2 12 -3 15 -5 4 -12 2 -15 -3z"/>
 <path d="M8086 1661 c-4 -5 -2 -12 3 -15 5 -4 12 -2 15 3 4 5 2 12 -3 15 -5 4 -12 2 -15 -3z"/>
 <path d="M10446 1651 c-4 -5 -2 -12 3 -15 5 -4 12 -2 15 3 4 5 2 12 -3 15 -5 4 -12 2 -15 -3z"/>
 <path d="M14155 1651 c-3 -6 3 -15 14 -21 12 -6 22 -6 26 -1 3 6 -3 15 -14 21 -12 6 -22 6 -26 1z"/>
 <path d="M5815 1641 c-3 -6 3 -15 14 -21 12 -6 22 -6 26 -1 3 6 -3 15 -14 21 -12 6 -22 6 -26 1z"/>
 <path d="M786 1631 c-4 -5 -2 -12 3 -15 5 -4 12 -2 15 3 4 5 2 12 -3 15 -5 4 -12 2 -15 -3z"/>
 <path d="M6526 1631 c-4 -5 -2 -12 3 -15 5 -4 12 -2 15 3 4 5 2 12 -3 15 -5 4 -12 2 -15 -3z"/>
 <path d="M1456 1621 c-4 -5 -2 -12 3 -15 5 -4 12 -2 15 3 4 5 2 12 -3 15 -5 4 -12 2 -15 -3z"/>
 <path d="M1536 1611 c-4 -5 -2 -12 3 -15 5 -4 12 -2 15 3 4 5 2 12 -3 15 -5 4 -12 2 -15 -3z"/>
 <path d="M11716 1611 c-4 -5 -2 -12 3 -15 5 -4 12 -2 15 3 4 5 2 12 -3 15 -5 4 -12 2 -15 -3z"/>
 <path d="M1486 1601 c-4 -5 -2 -12 3 -15 5 -4 12 -2 15 3 4 5 2 12 -3 15 -5 4 -12 2 -15 -3z"/>
 <path d="M3756 1601 c-4 -5 -2 -12 3 -15 5 -4 12 -2 15 3 4 5 2 12 -3 15 -5 4 -12 2 -15 -3z"/>
 <path d="M5936 1601 c-4 -5 -2 -12 3 -15 5 -4 12 -2 15 3 4 5 2 12 -3 15 -5 4 -12 2 -15 -3z"/>
 <path d="M12325 1601 c-7 -12 12 -24 25 -16 11 7 4 25 -10 25 -5 0 -11 -4 -15 -9z"/>
 <path d="M14326 1601 c-4 -5 -2 -12 3 -15 5 -4 12 -2 15 3 4 5 2 12 -3 15 -5 4 -12 2 -15 -3z"/>
 <path d="M12276 1591 c-4 -5 -2 -12 3 -15 5 -4 12 -2 15 3 4 5 2 12 -3 15 -5 4 -12 2 -15 -3z"/>
 <path d="M14436 1581 c-4 -5 -2 -12 3 -15 5 -4 12 -2 15 3 4 5 2 12 -3 15 -5 4 -12 2 -15 -3z"/>
 <path d="M9138 1260 c-66 -12 -143 -56 -194 -113 -58 -64 -45 -83 15 -22 25 26 69 59 96 74 45 23 61 26 155 26 95 0 110 -3 155 -27 54 -29 96 -64 122 -104 10 -16 19 -22 26 -15 22 22 -82 124 -164 159 -55 24 -147 33 -211 22z"/>
 <path d="M10119 1260 c-60 -10 -121 -42 -173 -90 -47 -44 -92 -115 -77 -125 6 -3 17 7 25 22 22 43 86 102 141 131 39 20 69 26 135 30 117 5 183 -19 262 -99 62 -61 82 -65 43 -7 -27 40 -103 99 -156 121 -47 19 -142 27 -200 17z"/>
 <path d="M8886 1061 c-4 -5 -2 -12 3 -15 5 -4 12 -2 15 3 4 5 2 12 -3 15 -5 4 -12 2 -15 -3z"/>
 <path d="M9516 1061 c-4 -5 -2 -12 3 -15 5 -4 12 -2 15 3 4 5 2 12 -3 15 -5 4 -12 2 -15 -3z"/>
 <path d="M9906 682 c-3 -5 5 -19 18 -31 13 -13 26 -18 30 -13 3 5 -5 19 -18 31 -13 13 -26 18 -30 13z"/>
 <path d="M8946 662 c-3 -6 1 -15 8 -21 8 -7 17 -8 20 -3 3 6 -1 15 -8 21 -8 7 -17 8 -20 3z"/>
 <path d="M9446 651 c-4 -5 -2 -12 3 -15 5 -4 12 -2 15 3 4 5 2 12 -3 15 -5 4 -12 2 -15 -3z"/>
 <path d="M9401 616 c-7 -8 -8 -17 -3 -20 6 -3 15 1 21 8 7 8 8 17 3 20 -6 3 -15 -1 -21 -8z"/>
 <path d="M10371 611 c-14 -11 -19 -21 -13 -25 5 -3 20 2 33 12 29 24 11 36 -20 13z"/>
 <path d="M9006 611 c-4 -5 -2 -12 3 -15 5 -4 12 -2 15 3 4 5 2 12 -3 15 -5 4 -12 2 -15 -3z"/>
 <path d="M9056 581 c-4 -5 -2 -12 3 -15 5 -4 12 -2 15 3 4 5 2 12 -3 15 -5 4 -12 2 -15 -3z"/>
 <path d="M10036 581 c-4 -5 -2 -12 3 -15 5 -4 12 -2 15 3 4 5 2 12 -3 15 -5 4 -12 2 -15 -3z"/>
 </g>
<g id="layer7" fill="#4daad3" stroke="none">
 <path d="M3365 4100 c-300 -29 -530 -135 -735 -340 -143 -143 -247 -303 -301 -463 -46 -135 -61 -244 -62 -432 -1 -226 23 -364 86 -505 39 -85 17 -80 322 -80 l271 0 55 -47 c119 -102 219 -152 357 -179 225 -43 450 24 628 188 l41 38 279 2 279 3 33 65 c114 229 127 643 30 950 -70 219 -267 467 -488 617 -205 138 -515 210 -795 183z m300 -487 c182 -45 351 -186 438 -366 67 -139 82 -212 81 -402 0 -125 -4 -174 -19 -225 -72 -253 -240 -438 -466 -515 -73 -24 -100 -28 -204 -29 -178 -1 -297 40 -428 146 -126 102 -199 216 -253 393 -25 81 -30 324 -9 426 86 425 456 671 860 572z"/>
 <path d="M3596 3611 c-4 -5 -2 -12 3 -15 5 -4 12 -2 15 3 4 5 2 12 -3 15 -5 4 -12 2 -15 -3z"/>
 <path d="M3246 3581 c-4 -5 -2 -12 3 -15 5 -4 12 -2 15 3 4 5 2 12 -3 15 -5 4 -12 2 -15 -3z"/>
 <path d="M3816 3531 c-4 -5 -2 -12 3 -15 5 -4 12 -2 15 3 4 5 2 12 -3 15 -5 4 -12 2 -15 -3z"/>
 <path d="M3866 3501 c-4 -5 -2 -12 3 -15 5 -4 12 -2 15 3 4 5 2 12 -3 15 -5 4 -12 2 -15 -3z"/>
 <path d="M11935 4100 c-303 -29 -527 -132 -734 -339 -95 -94 -212 -246 -226 -292 -4 -13 -16 -35 -27 -48 -23 -30 -82 -220 -99 -321 -9 -52 -13 -190 -14 -445 l0 -370 341 -3 341 -2 60 -53 c214 -184 490 -235 741 -136 82 32 140 69 224 140 l56 49 278 2 277 3 27 51 c135 263 138 739 5 1048 -29 69 -106 189 -179 280 -134 167 -336 310 -531 375 -158 53 -374 77 -540 61z m253 -476 c26 -3 41 -10 40 -17 -2 -7 2 -12 7 -12 6 0 9 3 7 8 -3 9 40 -1 86 -20 18 -7 31 -19 30 -26 -2 -7 2 -12 7 -12 6 0 9 4 7 8 -6 19 85 -43 147 -100 120 -110 194 -251 225 -428 74 -425 -120 -799 -479 -921 -69 -23 -97 -27 -200 -28 -176 -1 -282 34 -421 140 -136 103 -225 247 -269 434 -20 88 -20 316 1 407 51 227 167 388 355 496 89 51 275 98 267 68 -2 -5 0 -9 5 -10 4 -1 7 2 6 5 -3 24 38 25 179 8z"/>
 <path d="M11936 3611 c-4 -5 -2 -12 3 -15 5 -4 12 -2 15 3 4 5 2 12 -3 15 -5 4 -12 2 -15 -3z"/>
 <path d="M11845 3590 c-4 -6 -10 -8 -15 -5 -5 3 -11 1 -14 -4 -4 -5 -2 -12 3 -15 5 -4 12 -2 16 4 4 6 10 8 15 5 5 -3 11 -1 14 4 4 5 2 12 -3 15 -5 4 -12 2 -16 -4z"/>
 <path d="M12386 3531 c-4 -5 -2 -12 3 -15 5 -4 12 -2 15 3 4 5 2 12 -3 15 -5 4 -12 2 -15 -3z"/>
 <path d="M12436 3502 c-3 -6 1 -15 8 -21 8 -7 17 -8 20 -3 3 6 -1 15 -8 21 -8 7 -17 8 -20 3z"/>
 <path d="M12506 3441 c-4 -5 -2 -12 3 -15 5 -4 12 -2 15 3 4 5 2 12 -3 15 -5 4 -12 2 -15 -3z"/>
 <path d="M11566 3421 c-4 -5 -2 -12 3 -15 5 -4 12 -2 15 3 4 5 2 12 -3 15 -5 4 -12 2 -15 -3z"/>
 <path d="M12556 3391 c-4 -5 -2 -12 3 -15 5 -4 12 -2 15 3 4 5 2 12 -3 15 -5 4 -12 2 -15 -3z"/>
 <path d="M14481 4099 c-172 -16 -339 -67 -476 -146 -101 -58 -142 -89 -233 -177 -269 -259 -382 -533 -382 -920 0 -224 41 -421 113 -543 l19 -33 277 0 c268 0 279 -1 297 -21 36 -40 152 -119 225 -153 189 -89 424 -85 614 12 57 29 100 59 169 119 l48 43 279 0 280 0 30 68 c72 159 94 276 94 507 0 292 -38 444 -168 665 -99 168 -295 354 -477 453 -182 99 -464 149 -709 126z m322 -490 c51 -15 67 -24 63 -34 -3 -8 3 -19 14 -25 24 -13 37 5 13 19 -10 6 -14 11 -10 11 16 0 73 -33 140 -83 138 -101 231 -252 274 -442 19 -87 22 -298 4 -380 -42 -200 -135 -356 -275 -461 -137 -103 -244 -138 -421 -137 -101 0 -132 4 -196 26 -182 62 -325 189 -416 369 -84 168 -105 410 -52 618 33 130 121 295 154 288 8 -2 13 2 12 7 -1 6 -6 9 -12 7 -5 -1 22 27 60 63 45 42 98 79 150 104 87 43 127 57 123 44 -2 -4 2 -9 7 -10 6 -1 9 4 7 12 -2 13 21 19 118 28 66 7 175 -4 243 -24z"/>
 <path d="M14836 3581 c-4 -5 -2 -12 3 -15 5 -4 12 -2 15 3 4 5 2 12 -3 15 -5 4 -12 2 -15 -3z"/>
 <path d="M14275 3536 c-11 -8 -14 -16 -8 -19 6 -4 18 0 28 7 11 8 14 16 8 19 -6 4 -18 0 -28 -7z"/>
 <path d="M14236 3511 c-4 -5 -2 -12 3 -15 5 -4 12 -2 15 3 4 5 2 12 -3 15 -5 4 -12 2 -15 -3z"/>
 <path d="M14196 3481 c-4 -5 -2 -12 3 -15 5 -4 12 -2 15 3 4 5 2 12 -3 15 -5 4 -12 2 -15 -3z"/>
 <path d="M15016 3481 c-4 -5 -2 -12 3 -15 5 -4 12 -2 15 3 4 5 2 12 -3 15 -5 4 -12 2 -15 -3z"/>
 <path d="M14136 3431 c-4 -5 -2 -12 3 -15 5 -4 12 -2 15 3 4 5 2 12 -3 15 -5 4 -12 2 -15 -3z"/>
 <path d="M15096 3411 c-4 -5 -2 -12 3 -15 5 -4 12 -2 15 3 4 5 2 12 -3 15 -5 4 -12 2 -15 -3z"/>
 <path d="M1035 4085 c-100 -14 -153 -26 -235 -56 -237 -87 -461 -300 -604 -574 -14 -27 -26 -53 -26 -58 0 -4 16 -15 35 -24 21 -10 34 -22 31 -30 -6 -15 30 -38 39 -24 3 6 -3 15 -12 21 -24 15 -4 9 80 -26 38 -16 66 -33 65 -40 -2 -7 1 -12 7 -11 5 1 9 5 8 9 -2 4 21 -2 50 -13 28 -12 69 -28 90 -37 20 -8 36 -20 35 -26 -2 -6 2 -13 7 -14 6 -2 15 -8 22 -13 7 -7 14 -6 18 1 3 5 4 11 1 11 -3 1 -10 3 -16 4 -5 1 -13 3 -17 4 -5 1 -1 6 9 11 9 6 35 44 57 86 120 223 279 332 506 349 256 20 455 -98 455 -271 0 -51 -29 -132 -60 -167 -55 -64 -134 -92 -490 -177 -237 -56 -319 -83 -429 -142 -191 -101 -330 -229 -369 -340 -25 -70 -48 -217 -39 -242 6 -15 35 -16 264 -14 l258 3 6 35 c3 19 13 49 21 65 43 81 105 106 474 194 148 35 145 34 141 22 -1 -5 3 -8 8 -8 6 1 9 6 8 12 -2 6 40 21 93 34 251 61 427 173 544 348 96 144 128 330 89 518 -16 77 -28 104 -85 191 -198 302 -597 451 -1039 389z"/>
 <path d="M4967 4023 c-8 -8 -7 -1270 2 -1543 l6 -195 305 -3 305 -2 82 -79 c147 -142 300 -188 494 -147 121 26 210 84 269 176 l32 50 327 0 326 -1 75 -75 c130 -131 270 -179 447 -157 145 18 248 78 324 190 l30 43 256 2 257 3 9 35 c22 91 27 265 25 958 l-3 747 -260 0 -260 0 -5 -795 c-6 -856 -4 -818 -60 -947 -27 -64 -101 -135 -173 -169 -29 -13 -89 -29 -133 -35 -247 -35 -440 80 -558 333 -72 153 -70 135 -76 913 l-5 700 -255 0 -255 0 -6 -775 c-4 -498 -10 -793 -17 -825 -39 -180 -122 -281 -272 -331 -83 -27 -256 -25 -331 4 -126 50 -233 158 -306 310 -70 146 -67 102 -73 897 l-5 720 -256 3 c-140 1 -258 -1 -262 -5z"/>
 <path d="M8955 4018 c-3 -7 -4 -400 -3 -873 l3 -860 255 0 255 0 0 870 0 870 -253 3 c-197 2 -254 0 -257 -10z"/>
 <path d="M9935 4018 c-3 -7 -4 -400 -3 -873 l3 -860 255 0 255 0 0 870 0 870 -253 3 c-197 2 -254 0 -257 -10z"/>
 <path d="M1096 3611 c-4 -5 -2 -12 3 -15 5 -4 12 -2 15 3 4 5 2 12 -3 15 -5 4 -12 2 -15 -3z"/>
 <path d="M1456 3581 c-4 -5 -2 -12 3 -15 5 -4 12 -2 15 3 4 5 2 12 -3 15 -5 4 -12 2 -15 -3z"/>
 <path d="M926 3551 c-4 -5 -2 -12 3 -15 5 -4 12 -2 15 3 4 5 2 12 -3 15 -5 4 -12 2 -15 -3z"/>
 <path d="M896 3531 c-4 -5 -2 -12 3 -15 5 -4 12 -2 15 3 4 5 2 12 -3 15 -5 4 -12 2 -15 -3z"/>
 <path d="M185 3361 c-3 -6 3 -15 14 -21 12 -6 22 -6 26 -1 3 6 -3 15 -14 21 -12 6 -22 6 -26 1z"/>
 <path d="M306 3311 c-4 -5 -2 -12 3 -15 5 -4 12 -2 15 3 4 5 2 12 -3 15 -5 4 -12 2 -15 -3z"/>
 <path d="M496 3231 c-4 -5 -2 -12 3 -15 5 -4 12 -2 15 3 4 5 2 12 -3 15 -5 4 -12 2 -15 -3z"/>
 <path d="M1976 2861 c-4 -5 -2 -12 3 -15 5 -4 12 -2 15 3 4 5 2 12 -3 15 -5 4 -12 2 -15 -3z"/>
 <path d="M1826 2741 c-4 -5 -2 -12 3 -15 5 -4 12 -2 15 3 4 5 2 12 -3 15 -5 4 -12 2 -15 -3z"/>
 <path d="M1786 2721 c-4 -5 -2 -12 3 -15 5 -4 12 -2 15 3 4 5 2 12 -3 15 -5 4 -12 2 -15 -3z"/>
 <path d="M1726 2691 c-4 -5 -2 -12 3 -15 5 -4 12 -2 15 3 4 5 2 12 -3 15 -5 4 -12 2 -15 -3z"/>
 <path d="M1676 2671 c-4 -5 -2 -12 3 -15 5 -4 12 -2 15 3 4 5 2 12 -3 15 -5 4 -12 2 -15 -3z"/>
 <path d="M1556 2631 c-4 -5 -2 -12 3 -15 5 -4 12 -2 15 3 4 5 2 12 -3 15 -5 4 -12 2 -15 -3z"/>
 <path d="M1476 2611 c-4 -5 -2 -12 3 -15 5 -4 12 -2 15 3 4 5 2 12 -3 15 -5 4 -12 2 -15 -3z"/>
 <path d="M1006 2501 c-4 -5 -2 -12 3 -15 5 -4 12 -2 15 3 4 5 2 12 -3 15 -5 4 -12 2 -15 -3z"/>
 <path d="M856 2431 c-4 -5 -2 -12 3 -15 5 -4 12 -2 15 3 4 5 2 12 -3 15 -5 4 -12 2 -15 -3z"/>
 <path d="M1668 2324 c-36 -73 -137 -175 -204 -208 -73 -36 -100 -44 -196 -56 -192 -24 -381 39 -454 150 -34 52 -57 39 -25 -14 68 -110 213 -169 411 -168 183 1 297 49 415 174 l73 78 59 0 c40 0 80 -8 124 -26 175 -69 252 -95 267 -89 9 3 12 9 6 15 -5 5 -92 43 -194 85 -102 41 -200 82 -218 90 -18 8 -34 15 -37 15 -2 0 -14 -21 -27 -46z"/>
 <path d="M4396 1971 c-4 -5 -2 -12 3 -15 5 -4 12 -2 15 3 4 5 2 12 -3 15 -5 4 -12 2 -15 -3z"/>
 <path d="M12966 1971 c-4 -5 -2 -12 3 -15 5 -4 12 -2 15 3 4 5 2 12 -3 15 -5 4 -12 2 -15 -3z"/>
 <path d="M13716 1941 c-4 -5 -2 -12 3 -15 5 -4 12 -2 15 3 4 5 2 12 -3 15 -5 4 -12 2 -15 -3z"/>
 <path d="M12906 1911 c-4 -5 -2 -12 3 -15 5 -4 12 -2 15 3 4 5 2 12 -3 15 -5 4 -12 2 -15 -3z"/>
 <path d="M13766 1891 c-4 -5 -2 -12 3 -15 5 -4 12 -2 15 3 4 5 2 12 -3 15 -5 4 -12 2 -15 -3z"/>
 <path d="M396 1881 c-4 -5 -2 -12 3 -15 5 -4 12 -2 15 3 4 5 2 12 -3 15 -5 4 -12 2 -15 -3z"/>
 <path d="M12871 1876 c-7 -8 -8 -17 -3 -20 6 -3 15 1 21 8 7 8 8 17 3 20 -6 3 -15 -1 -21 -8z"/>
 <path d="M4296 1871 c-4 -5 -2 -12 3 -15 5 -4 12 -2 15 3 4 5 2 12 -3 15 -5 4 -12 2 -15 -3z"/>
 <path d="M426 1851 c-4 -5 -2 -12 3 -15 5 -4 12 -2 15 3 4 5 2 12 -3 15 -5 4 -12 2 -15 -3z"/>
 <path d="M2696 1841 c-4 -5 -2 -12 3 -15 5 -4 12 -2 15 3 4 5 2 12 -3 15 -5 4 -12 2 -15 -3z"/>
 <path d="M5506 1841 c-4 -5 -2 -12 3 -15 5 -4 12 -2 15 3 4 5 2 12 -3 15 -5 4 -12 2 -15 -3z"/>
 <path d="M13836 1831 c-4 -5 -2 -12 3 -15 5 -4 12 -2 15 3 4 5 2 12 -3 15 -5 4 -12 2 -15 -3z"/>
 <path d="M1911 1816 c-7 -8 -8 -17 -3 -20 6 -3 15 1 21 8 7 8 8 17 3 20 -6 3 -15 -1 -21 -8z"/>
 <path d="M4226 1811 c-4 -5 -2 -12 3 -15 5 -4 12 -2 15 3 4 5 2 12 -3 15 -5 4 -12 2 -15 -3z"/>
 <path d="M8276 1801 c-10 -11 -13 -22 -8 -25 5 -3 17 3 26 13 10 11 13 22 8 25 -5 3 -17 -3 -26 -13z"/>
 <path d="M15336 1801 c-4 -5 -2 -12 3 -15 5 -4 12 -2 15 3 4 5 2 12 -3 15 -5 4 -12 2 -15 -3z"/>
 <path d="M13886 1791 c-4 -5 -2 -12 3 -15 5 -4 12 -2 15 3 4 5 2 12 -3 15 -5 4 -12 2 -15 -3z"/>
 <path d="M506 1781 c-4 -5 -2 -12 3 -15 5 -4 12 -2 15 3 4 5 2 12 -3 15 -5 4 -12 2 -15 -3z"/>
 <path d="M2776 1781 c-4 -5 -2 -12 3 -15 5 -4 12 -2 15 3 4 5 2 12 -3 15 -5 4 -12 2 -15 -3z"/>
 <path d="M1846 1761 c-4 -5 -2 -12 3 -15 5 -4 12 -2 15 3 4 5 2 12 -3 15 -5 4 -12 2 -15 -3z"/>
 <path d="M4156 1761 c-4 -5 -2 -12 3 -15 5 -4 12 -2 15 3 4 5 2 12 -3 15 -5 4 -12 2 -15 -3z"/>
 <path d="M8236 1761 c-4 -5 -2 -12 3 -15 5 -4 12 -2 15 3 4 5 2 12 -3 15 -5 4 -12 2 -15 -3z"/>
 <path d="M12706 1751 c-4 -5 -2 -12 3 -15 5 -4 12 -2 15 3 4 5 2 12 -3 15 -5 4 -12 2 -15 -3z"/>
 <path d="M1816 1741 c-4 -5 -2 -12 3 -15 5 -4 12 -2 15 3 4 5 2 12 -3 15 -5 4 -12 2 -15 -3z"/>
 <path d="M2836 1741 c-4 -5 -2 -12 3 -15 5 -4 12 -2 15 3 4 5 2 12 -3 15 -5 4 -12 2 -15 -3z"/>
 <path d="M6716 1741 c-4 -5 -2 -12 3 -15 5 -4 12 -2 15 3 4 5 2 12 -3 15 -5 4 -12 2 -15 -3z"/>
 <path d="M11406 1741 c-4 -5 -2 -12 3 -15 5 -4 12 -2 15 3 4 5 2 12 -3 15 -5 4 -12 2 -15 -3z"/>
 <path d="M4106 1731 c-4 -5 -2 -12 3 -15 5 -4 12 -2 15 3 4 5 2 12 -3 15 -5 4 -12 2 -15 -3z"/>
 <path d="M5646 1731 c-4 -5 -2 -12 3 -15 5 -4 12 -2 15 3 4 5 2 12 -3 15 -5 4 -12 2 -15 -3z"/>
 <path d="M8196 1731 c-4 -5 -2 -12 3 -15 5 -4 12 -2 15 3 4 5 2 12 -3 15 -5 4 -12 2 -15 -3z"/>
 <path d="M12676 1731 c-4 -5 -2 -12 3 -15 5 -4 12 -2 15 3 4 5 2 12 -3 15 -5 4 -12 2 -15 -3z"/>
 <path d="M596 1721 c-4 -5 -2 -12 3 -15 5 -4 12 -2 15 3 4 5 2 12 -3 15 -5 4 -12 2 -15 -3z"/>
 <path d="M1786 1721 c-4 -5 -2 -12 3 -15 5 -4 12 -2 15 3 4 5 2 12 -3 15 -5 4 -12 2 -15 -3z"/>
 <path d="M13996 1721 c-4 -5 -2 -12 3 -15 5 -4 12 -2 15 3 4 5 2 12 -3 15 -5 4 -12 2 -15 -3z"/>
 <path d="M2886 1711 c-4 -5 -2 -12 3 -15 5 -4 12 -2 15 3 4 5 2 12 -3 15 -5 4 -12 2 -15 -3z"/>
 <path d="M6676 1711 c-4 -5 -2 -12 3 -15 5 -4 12 -2 15 3 4 5 2 12 -3 15 -5 4 -12 2 -15 -3z"/>
 <path d="M11456 1711 c-4 -5 -2 -12 3 -15 5 -4 12 -2 15 3 4 5 2 12 -3 15 -5 4 -12 2 -15 -3z"/>
 <path d="M636 1701 c-4 -5 -2 -12 3 -15 5 -4 12 -2 15 3 4 5 2 12 -3 15 -5 4 -12 2 -15 -3z"/>
 <path d="M12616 1701 c-4 -5 -2 -12 3 -15 5 -4 12 -2 15 3 4 5 2 12 -3 15 -5 4 -12 2 -15 -3z"/>
 <path d="M1725 1686 c-11 -8 -14 -16 -8 -19 6 -4 18 0 28 7 11 8 14 16 8 19 -6 4 -18 0 -28 -7z"/>
 <path d="M11496 1691 c-4 -5 -2 -12 3 -15 5 -4 12 -2 15 3 4 5 2 12 -3 15 -5 4 -12 2 -15 -3z"/>
 <path d="M2946 1681 c-4 -5 -2 -12 3 -15 5 -4 12 -2 15 3 4 5 2 12 -3 15 -5 4 -12 2 -15 -3z"/>
 <path d="M8126 1681 c-4 -5 -2 -12 3 -15 5 -4 12 -2 15 3 4 5 2 12 -3 15 -5 4 -12 2 -15 -3z"/>
 <path d="M15136 1681 c-4 -5 -2 -12 3 -15 5 -4 12 -2 15 3 4 5 2 12 -3 15 -5 4 -12 2 -15 -3z"/>
 <path d="M3986 1671 c-4 -5 -2 -12 3 -15 5 -4 12 -2 15 3 4 5 2 12 -3 15 -5 4 -12 2 -15 -3z"/>
 <path d="M6592 1658 c-7 -7 -12 -9 -12 -5 0 4 -9 3 -20 -3 -11 -6 -18 -15 -15 -21 4 -5 15 -4 28 3 12 7 25 12 29 13 12 0 19 13 10 19 -5 3 -14 0 -20 -6z"/>
 <path d="M7206 1661 c-4 -5 -2 -12 3 -15 5 -4 12 -2 15 3 4 5 2 12 -3 15 -5 4 -12 2 -15 -3z"/>
 <path d="M12536 1661 c-4 -5 -2 -12 3 -15 5 -4 12 -2 15 3 4 5 2 12 -3 15 -5 4 -12 2 -15 -3z"/>
 <path d="M15056 1651 c-4 -5 -2 -12 3 -15 5 -4 12 -2 15 3 4 5 2 12 -3 15 -5 4 -12 2 -15 -3z"/>
 <path d="M3076 1631 c-4 -5 -2 -12 3 -15 5 -4 12 -2 15 3 4 5 2 12 -3 15 -5 4 -12 2 -15 -3z"/>
 <path d="M8026 1631 c-4 -5 -2 -12 3 -15 5 -4 12 -2 15 3 4 5 2 12 -3 15 -5 4 -12 2 -15 -3z"/>
 <path d="M12456 1631 c-4 -5 -2 -12 3 -15 5 -4 12 -2 15 3 4 5 2 12 -3 15 -5 4 -12 2 -15 -3z"/>
 <path d="M3116 1621 c-4 -5 -2 -12 4 -16 5 -3 10 -3 10 1 0 3 6 1 14 -5 10 -8 16 -9 21 -1 3 5 4 11 1 11 -3 1 -9 2 -13 3 -5 1 -13 5 -20 9 -6 4 -14 3 -17 -2z"/>
 <path d="M6486 1621 c-4 -5 -2 -12 3 -15 5 -4 12 -2 15 3 4 5 2 12 -3 15 -5 4 -12 2 -15 -3z"/>
 <path d="M11686 1621 c-4 -5 -2 -12 3 -15 5 -4 12 -2 15 3 4 5 2 12 -3 15 -5 4 -12 2 -15 -3z"/>
 <path d="M14966 1621 c-4 -5 -2 -12 3 -15 5 -4 12 -2 15 3 4 5 2 12 -3 15 -5 4 -12 2 -15 -3z"/>
 <path d="M896 1601 c-4 -5 -2 -12 3 -15 5 -4 12 -2 15 3 4 5 2 12 -3 15 -5 4 -12 2 -15 -3z"/>
 <path d="M1495 1601 c-7 -12 12 -24 25 -16 11 7 4 25 -10 25 -5 0 -11 -4 -15 -9z"/>
 <path d="M3185 1600 c-3 -5 -2 -10 2 -12 13 -7 33 -3 36 6 3 12 -31 17 -38 6z"/>
 <path d="M5926 1601 c-4 -5 -2 -12 3 -15 5 -4 12 -2 15 3 4 5 2 12 -3 15 -5 4 -12 2 -15 -3z"/>
 <path d="M6405 1600 c-8 -12 20 -24 35 -15 6 3 8 11 5 16 -8 12 -32 12 -40 -1z"/>
 <path d="M7386 1601 c-4 -5 -2 -12 3 -15 5 -4 12 -2 15 3 4 5 2 12 -3 15 -5 4 -12 2 -15 -3z"/>
 <path d="M7926 1601 c-4 -5 -2 -12 3 -15 5 -4 12 -2 15 3 4 5 2 12 -3 15 -5 4 -12 2 -15 -3z"/>
 <path d="M11755 1601 c-7 -12 12 -24 25 -16 11 7 4 25 -10 25 -5 0 -11 -4 -15 -9z"/>
 <path d="M12346 1601 c-4 -5 -2 -12 3 -15 5 -4 12 -2 15 3 4 5 2 12 -3 15 -5 4 -12 2 -15 -3z"/>
 <path d="M14885 1601 c-7 -12 12 -24 25 -16 11 7 4 25 -10 25 -5 0 -11 -4 -15 -9z"/>
 <path d="M6366 1591 c-4 -5 -2 -12 3 -15 5 -4 12 -2 15 3 4 5 2 12 -3 15 -5 4 -12 2 -15 -3z"/>
 <path d="M7496 1581 c-4 -5 -2 -12 3 -15 5 -4 12 -2 15 3 4 5 2 12 -3 15 -5 4 -12 2 -15 -3z"/>
 <path d="M7826 1581 c-4 -5 -2 -12 3 -15 5 -4 12 -2 15 3 4 5 2 12 -3 15 -5 4 -12 2 -15 -3z"/>
 <path d="M12226 1581 c-4 -5 -2 -12 3 -15 5 -4 12 -2 15 3 4 5 2 12 -3 15 -5 4 -12 2 -15 -3z"/>
 <path d="M9155 1261 c-7 -12 12 -24 25 -16 11 7 4 25 -10 25 -5 0 -11 -4 -15 -9z"/>
 <path d="M9246 1261 c-4 -5 -2 -12 3 -15 5 -4 12 -2 15 3 4 5 2 12 -3 15 -5 4 -12 2 -15 -3z"/>
 <path d="M10135 1261 c-7 -12 12 -24 25 -16 11 7 4 25 -10 25 -5 0 -11 -4 -15 -9z"/>
 <path d="M10215 1261 c-7 -12 12 -24 25 -16 11 7 4 25 -10 25 -5 0 -11 -4 -15 -9z"/>
 <path d="M9096 1251 c-4 -5 -2 -12 3 -15 5 -4 12 -2 15 3 4 5 2 12 -3 15 -5 4 -12 2 -15 -3z"/>
 <path d="M9306 1251 c-4 -5 -2 -12 3 -15 5 -4 12 -2 15 3 4 5 2 12 -3 15 -5 4 -12 2 -15 -3z"/>
 <path d="M9046 1231 c-4 -5 -2 -12 3 -15 5 -4 12 -2 15 3 4 5 2 12 -3 15 -5 4 -12 2 -15 -3z"/>
 <path d="M10015 1226 c-11 -8 -14 -16 -8 -19 6 -4 18 0 28 7 11 8 14 16 8 19 -6 4 -18 0 -28 -7z"/>
 <path d="M10365 1211 c-3 -6 3 -15 14 -21 12 -6 22 -6 26 -1 3 6 -3 15 -14 21 -12 6 -22 6 -26 1z"/>
 <path d="M8996 1201 c-4 -5 -2 -12 3 -15 5 -4 12 -2 15 3 4 5 2 12 -3 15 -5 4 -12 2 -15 -3z"/>
 <path d="M9406 1201 c-4 -5 -2 -12 3 -15 5 -4 12 -2 15 3 4 5 2 12 -3 15 -5 4 -12 2 -15 -3z"/>
 <path d="M9976 1201 c-4 -5 -2 -12 3 -15 5 -4 12 -2 15 3 4 5 2 12 -3 15 -5 4 -12 2 -15 -3z"/>
 <path d="M9446 651 c-15 -16 -23 -31 -18 -35 5 -3 21 8 36 23 15 16 23 31 18 35 -5 3 -21 -8 -36 -23z"/>
 <path d="M9916 671 c-4 -5 -2 -12 3 -15 5 -4 12 -2 15 3 4 5 2 12 -3 15 -5 4 -12 2 -15 -3z"/>
 <path d="M10426 651 c-4 -5 -2 -12 3 -15 5 -4 12 -2 15 3 4 5 2 12 -3 15 -5 4 -12 2 -15 -3z"/>
 <path d="M9946 642 c-3 -6 1 -15 8 -21 8 -7 17 -8 20 -3 3 6 -1 15 -8 21 -8 7 -17 8 -20 3z"/>
 <path d="M8976 631 c-4 -5 -2 -12 3 -15 5 -4 12 -2 15 3 4 5 2 12 -3 15 -5 4 -12 2 -15 -3z"/>
 <path d="M9016 601 c-4 -5 -2 -12 3 -15 5 -4 12 -2 15 3 4 5 2 12 -3 15 -5 4 -12 2 -15 -3z"/>
 <path d="M9996 601 c-4 -5 -2 -12 3 -15 5 -4 12 -2 15 3 4 5 2 12 -3 15 -5 4 -12 2 -15 -3z"/>
 <path d="M10366 601 c-4 -5 -2 -12 3 -15 5 -4 12 -2 15 3 4 5 2 12 -3 15 -5 4 -12 2 -15 -3z"/>
 <path d="M9346 581 c-4 -5 -2 -12 3 -15 5 -4 12 -2 15 3 4 5 2 12 -3 15 -5 4 -12 2 -15 -3z"/>
 <path d="M10326 581 c-4 -5 -2 -12 3 -15 5 -4 12 -2 15 3 4 5 2 12 -3 15 -5 4 -12 2 -15 -3z"/>
 <path d="M9226 551 c-4 -5 -2 -12 3 -15 5 -4 12 -2 15 3 4 5 2 12 -3 15 -5 4 -12 2 -15 -3z"/>
 <path d="M10156 551 c-4 -5 -2 -12 3 -15 5 -4 12 -2 15 3 4 5 2 12 -3 15 -5 4 -12 2 -15 -3z"/>
 </g>

</svg>