<?xml version="1.0" standalone="no"?>
<!DOCTYPE svg PUBLIC "-//W3C//DTD SVG 20010904//EN"
 "http://www.w3.org/TR/2001/REC-SVG-20010904/DTD/svg10.dtd">
<svg version="1.0" xmlns="http://www.w3.org/2000/svg"
 width="589.000000pt" height="589.000000pt" viewBox="0 0 589.000000 589.000000"
 preserveAspectRatio="xMidYMid meet">
<metadata>
Created by potrace 1.11, written by Peter Selinger 2001-2013
</metadata>
<g transform="translate(0.000000,589.000000) scale(0.100000,-0.100000)"
fill="#000000" stroke="none">
<path d="M2888 5695 c-2 -1 -30 -5 -64 -8 -207 -20 -388 -178 -442 -387 -8
-34 -11 -191 -3 -217 5 -15 15 -48 22 -73 7 -25 16 -47 20 -50 3 -3 16 -23 27
-46 11 -22 28 -46 36 -53 9 -7 13 -18 9 -25 -3 -6 -3 -8 1 -4 7 6 38 -17 82
-59 7 -7 17 -13 22 -13 5 0 21 -11 35 -24 14 -13 28 -22 31 -19 3 3 19 -1 35
-8 31 -14 31 -15 31 -89 1 -282 0 -583 -2 -586 -2 -1 -30 -5 -63 -8 -33 -3
-71 -8 -85 -11 -14 -3 -40 -8 -59 -11 -101 -17 -227 -53 -342 -99 -102 -41
-252 -115 -257 -127 -2 -4 -9 -8 -15 -8 -11 0 -136 -79 -164 -104 -32 -28 -43
-36 -43 -32 0 3 -10 -5 -23 -17 -13 -12 -54 -49 -92 -82 -37 -33 -78 -71 -89
-84 -12 -13 -32 -36 -45 -50 -13 -14 -40 -46 -60 -71 -20 -25 -39 -47 -42 -50
-9 -8 -93 -134 -93 -140 0 -3 -7 -13 -15 -22 -9 -9 -29 -44 -46 -77 -16 -33
-33 -61 -37 -61 -5 0 -8 -8 -8 -18 0 -10 -4 -22 -9 -27 -10 -12 -73 -168 -80
-197 -1 -4 -9 -27 -17 -50 -17 -47 -43 -150 -59 -227 -5 -27 -18 -130 -18
-148 0 -7 -4 -13 -8 -13 -5 0 -5 -10 0 -22 5 -13 5 -32 2 -43 -4 -11 -6 -30
-5 -43 1 -12 -4 -22 -10 -22 -7 0 -8 -3 -1 -8 14 -9 14 -45 0 -54 -7 -5 -7 -8
1 -8 6 0 11 -17 10 -37 0 -21 4 -76 8 -123 5 -47 9 -104 10 -127 0 -22 4 -39
8 -36 5 2 9 -10 9 -26 1 -17 2 -34 4 -38 1 -5 5 -20 9 -34 4 -14 8 -33 10 -42
1 -9 5 -20 9 -23 4 -4 1 -14 -6 -22 -6 -9 -7 -13 -1 -10 8 6 36 -63 36 -89 0
-4 4 -13 10 -20 5 -7 7 -16 4 -22 -3 -5 -1 -11 4 -13 6 -2 12 -10 14 -18 1 -8
8 -26 15 -39 7 -12 11 -32 8 -42 -3 -10 -1 -17 3 -14 12 8 33 -33 24 -47 -4
-7 -3 -8 4 -4 11 7 16 -7 15 -41 -1 -7 3 -10 8 -8 4 3 13 -4 19 -16 10 -17 9
-20 -2 -14 -7 3 -5 0 6 -9 10 -8 15 -20 10 -27 -4 -7 -3 -10 4 -5 6 3 16 -7
24 -24 7 -16 16 -30 20 -30 5 0 8 -7 8 -15 0 -8 5 -15 10 -15 6 0 10 -5 10
-11 0 -9 31 -53 93 -133 25 -33 34 -52 20 -43 -5 3 -10 0 -10 -8 0 -12 3 -12
15 -3 11 10 16 8 24 -6 6 -11 26 -34 45 -52 20 -20 31 -39 27 -45 -4 -7 -3 -9
3 -6 6 4 18 -2 28 -13 10 -11 22 -17 27 -14 4 3 7 1 6 -4 -3 -11 60 -73 100
-99 12 -9 22 -22 22 -30 0 -8 5 -11 10 -8 6 3 10 1 10 -4 0 -6 3 -10 8 -9 4 2
32 -16 63 -40 31 -23 61 -42 68 -42 7 0 9 -4 6 -10 -3 -5 3 -10 14 -10 11 0
23 -5 26 -10 4 -6 11 -7 17 -4 6 4 9 3 6 -2 -3 -5 1 -16 10 -24 9 -8 17 -13
17 -11 0 10 115 -52 115 -62 0 -6 3 -8 6 -4 8 7 64 -13 64 -24 0 -4 6 -6 14
-3 8 3 17 1 20 -5 4 -6 25 -15 47 -21 25 -7 37 -15 33 -22 -4 -6 -3 -8 3 -5
13 8 94 -13 88 -23 -3 -5 -1 -12 5 -15 6 -4 9 -3 8 2 -2 4 2 8 7 8 5 0 9 -4 7
-9 -2 -5 4 -4 12 4 14 11 20 8 18 -10 0 -3 15 -4 35 -2 21 3 33 1 30 -5 -4 -5
9 -9 30 -8 21 0 37 -4 41 -13 4 -11 6 -11 13 0 6 9 11 10 17 2 4 -5 22 -10 40
-9 18 0 36 -3 38 -7 3 -5 10 -6 15 -2 5 3 16 1 24 -6 8 -7 15 -7 19 -1 4 6 18
6 34 1 16 -4 45 -7 65 -5 20 1 34 -2 31 -6 -2 -4 1 -11 7 -15 7 -4 9 -3 5 4
-3 6 -2 13 4 17 5 3 10 2 10 -4 0 -6 11 -6 29 -1 15 4 34 4 42 0 7 -5 17 -6
23 -3 5 3 42 7 83 8 41 2 77 5 80 9 11 11 24 6 17 -6 -6 -9 -3 -9 9 1 10 7 31
12 51 9 20 -2 32 0 29 6 -4 5 7 7 26 3 20 -4 30 -3 26 3 -3 6 3 11 14 11 46 3
96 13 131 26 8 4 17 7 20 7 3 1 10 4 15 7 6 3 17 5 25 4 8 0 17 2 20 5 3 3 37
16 75 29 39 13 75 28 82 33 7 6 17 7 23 3 5 -3 10 -1 10 5 0 7 6 10 14 7 8 -3
17 1 20 10 4 8 13 13 21 9 9 -3 15 1 15 11 0 13 2 14 17 2 12 -10 14 -10 9 -1
-11 18 21 27 42 11 15 -12 16 -12 4 2 -11 14 -3 22 59 58 40 22 76 41 81 41 5
0 6 5 3 10 -3 6 0 10 7 10 7 0 39 20 71 45 32 25 63 43 69 39 6 -4 8 -3 5 3
-6 10 58 68 75 68 3 0 10 4 15 9 5 6 2 6 -7 1 -8 -5 2 9 22 29 23 24 41 35 49
30 8 -5 10 -3 4 5 -4 8 3 23 21 40 36 33 109 118 137 160 12 17 28 29 35 26 7
-3 10 0 7 5 -6 9 29 78 46 90 3 3 14 20 23 38 10 19 21 30 28 26 7 -4 8 -3 4
4 -7 12 20 70 39 84 6 4 6 8 1 8 -5 0 -2 8 8 19 9 10 19 28 21 41 2 13 12 31
21 41 10 11 14 19 11 19 -3 0 7 30 22 68 15 37 35 94 45 127 10 33 19 66 22
73 2 8 9 10 16 6 10 -6 9 -3 0 9 -15 18 -7 61 10 51 6 -4 6 0 -1 13 -6 11 -7
23 -4 27 4 4 8 16 10 28 2 12 9 26 16 30 8 5 8 8 1 8 -8 0 -10 13 -6 38 3 20
6 49 6 65 1 15 3 27 6 27 6 0 9 62 9 205 1 98 -5 220 -9 220 -4 0 -22 127 -24
172 0 17 -5 29 -10 25 -5 -3 -7 2 -3 11 4 10 2 17 -5 17 -6 0 -5 6 3 17 8 9 9
14 2 10 -7 -5 -14 4 -18 25 -4 18 -18 64 -31 102 -14 38 -22 76 -20 83 3 8 1
11 -4 8 -5 -3 -13 7 -16 22 -4 15 -14 39 -23 53 -9 13 -15 25 -14 27 3 4 -30
76 -38 83 -3 3 -13 22 -22 43 -10 20 -22 37 -27 37 -6 0 -9 3 -8 8 4 13 -13
52 -23 52 -5 0 -9 6 -9 14 0 8 -6 21 -13 28 -7 7 -34 44 -60 81 -50 70 -101
128 -197 226 -60 61 -174 161 -184 161 -5 0 -35 23 -60 46 -6 6 -22 16 -34 23
-12 7 -20 16 -17 21 3 5 0 12 -6 16 -8 4 -9 3 -5 -4 10 -16 -9 -15 -26 1 -7 7
-21 16 -30 20 -32 12 -20 44 15 38 4 0 6 3 5 7 -2 5 8 21 22 36 49 53 115 119
118 118 1 -1 17 15 35 35 38 45 48 53 59 47 5 -3 8 -2 7 3 -4 23 3 31 24 27
12 -2 16 -2 9 2 -6 3 -10 9 -7 14 6 10 45 1 45 -11 0 -5 3 -8 8 -7 4 0 14 -2
22 -5 8 -3 24 -7 35 -9 11 -2 20 -8 20 -15 0 -6 4 -15 8 -20 5 -4 7 -2 5 6 -1
8 5 17 16 19 10 2 16 0 13 -5 -3 -4 32 -8 78 -8 46 0 81 3 78 8 -2 4 3 7 12 7
10 0 14 -5 10 -12 -4 -7 0 -5 8 5 16 19 42 24 31 5 -4 -7 -3 -8 5 -4 6 4 9 12
6 17 -4 5 1 9 9 9 8 0 20 -8 26 -17 10 -16 10 -16 6 2 -4 15 3 24 30 36 32 15
35 15 44 0 8 -13 9 -11 7 9 -1 18 3 25 15 24 10 -1 16 2 13 6 -6 9 66 66 78
62 5 -1 6 1 3 6 -3 5 3 18 14 29 10 12 16 24 12 29 -4 4 1 4 11 1 10 -4 16 -3
13 2 -3 4 7 34 23 65 16 31 27 56 25 56 -2 0 1 12 7 28 7 15 13 66 15 115 2
48 6 93 10 99 4 6 3 8 -3 5 -6 -4 -13 9 -16 33 -7 56 -51 145 -100 205 -125
154 -331 223 -517 175 -121 -31 -254 -129 -312 -230 -33 -57 -68 -163 -70
-212 -1 -24 -5 -35 -12 -31 -6 4 -5 -1 3 -10 11 -14 11 -20 0 -34 -10 -11 -10
-14 -1 -9 9 5 12 -3 12 -28 0 -44 0 -43 17 -83 7 -18 11 -33 8 -33 -4 0 1 -10
9 -22 20 -28 20 -58 1 -58 -8 0 -15 -4 -15 -9 0 -18 -211 -221 -222 -215 -7 4
-8 2 -4 -4 4 -6 -25 -41 -65 -81 l-71 -69 -46 18 c-105 41 -294 84 -417 95
-38 4 -72 9 -75 12 -3 2 -5 151 -5 331 l0 326 60 26 c33 14 67 32 77 40 46 41
67 52 52 28 -4 -7 -3 -8 5 -4 6 4 9 11 6 16 -3 5 6 17 20 28 13 11 21 22 18
26 -3 3 2 6 12 6 10 0 15 3 12 6 -4 4 3 20 14 35 23 32 69 140 76 179 3 14 6
59 7 100 6 184 -109 372 -278 455 -48 24 -209 68 -218 60z m-64 -2447 c-5 -7
-3 -8 7 -2 22 14 53 11 67 -6 10 -13 11 -12 5 5 -6 18 -5 19 12 5 11 -9 16
-10 11 -3 -11 19 36 12 52 -7 8 -8 11 -10 8 -3 -4 8 4 11 23 11 17 -1 29 -4
26 -7 -2 -4 13 -5 32 -3 31 4 35 2 29 -13 -5 -14 -3 -15 6 -8 20 16 50 12 43
-5 -4 -11 -2 -12 8 -4 17 15 53 8 49 -9 -3 -11 -1 -11 9 -2 9 9 17 9 33 1 12
-7 27 -13 34 -14 30 -5 43 -14 36 -25 -5 -8 -3 -9 5 -5 11 7 69 -10 81 -23 3
-3 22 -14 43 -24 24 -10 35 -22 31 -29 -4 -7 -3 -8 5 -4 7 5 26 -3 45 -18 19
-14 36 -22 40 -19 3 4 6 -5 6 -18 0 -19 2 -21 10 -9 5 8 10 10 10 4 0 -6 11
-17 25 -24 13 -7 22 -17 19 -22 -3 -4 0 -8 6 -8 6 0 8 -5 4 -12 -4 -7 -3 -8 5
-4 15 10 64 -41 55 -56 -4 -7 -2 -8 5 -4 7 5 19 -1 29 -12 50 -60 50 -60 39
-72 -9 -8 -8 -10 4 -5 11 4 26 -10 52 -48 20 -29 37 -59 37 -65 0 -7 5 -12 10
-12 6 0 10 -9 10 -20 0 -11 5 -20 10 -20 6 0 10 -5 10 -11 0 -6 11 -33 25 -60
13 -27 22 -49 18 -49 -3 0 -1 -6 5 -13 6 -7 13 -24 15 -37 2 -14 7 -32 11 -41
4 -8 8 -29 9 -45 1 -16 5 -31 9 -34 3 -3 8 -28 11 -56 2 -29 7 -56 11 -62 3
-6 2 -14 -4 -17 -8 -5 -7 -11 1 -21 9 -11 8 -14 -2 -14 -10 0 -11 -2 -2 -8 8
-5 10 -34 7 -92 -2 -47 -4 -95 -4 -108 0 -13 -5 -20 -10 -17 -5 3 -7 -1 -4 -9
5 -14 -22 -161 -35 -181 -3 -5 -6 -15 -7 -20 -1 -6 -12 -33 -25 -60 -26 -56
-24 -52 -34 -82 -4 -13 -11 -23 -16 -23 -5 0 -9 -5 -9 -12 0 -19 -61 -108 -71
-102 -5 3 -6 -1 -4 -9 3 -7 -3 -21 -14 -31 -11 -10 -18 -23 -15 -27 3 -5 -2
-9 -10 -9 -9 0 -16 -4 -16 -9 0 -13 -83 -96 -145 -146 -28 -22 -51 -43 -53
-47 -2 -5 -8 -8 -12 -8 -5 0 -26 -12 -47 -26 -50 -34 -176 -99 -187 -96 -4 2
-13 -1 -20 -6 -6 -5 -24 -13 -41 -17 -16 -5 -34 -9 -40 -11 -335 -99 -673 -44
-974 159 -83 55 -223 192 -273 266 -17 25 -35 48 -38 51 -11 9 -110 217 -110
232 0 8 -5 19 -10 24 -6 6 -12 25 -13 42 -1 18 -5 32 -8 32 -3 0 -6 6 -7 13 0
6 -3 23 -6 37 -17 70 -24 157 -21 265 3 155 3 157 13 151 5 -3 9 1 9 9 0 8 -4
12 -9 9 -4 -3 -4 5 1 18 5 13 9 26 9 31 1 29 15 87 21 87 4 0 7 8 8 18 2 29
44 132 52 128 4 -3 7 5 7 17 -1 16 4 21 19 19 16 -2 17 -1 6 7 -12 8 -12 12
-2 25 8 9 10 16 7 16 -4 0 -1 6 6 14 7 8 16 12 20 9 4 -2 5 3 2 11 -4 10 -1
16 7 16 7 0 9 3 6 7 -4 3 1 12 11 20 10 9 11 12 2 7 -10 -5 -8 0 4 15 11 12
26 19 34 16 12 -4 12 -2 3 8 -9 11 -7 17 6 28 14 12 16 12 8 0 -5 -10 -4 -12
4 -7 6 4 9 12 5 17 -7 11 65 86 79 81 5 -1 6 1 3 6 -8 14 41 55 55 47 7 -5 10
-4 5 3 -7 12 43 64 55 57 4 -3 9 2 13 10 3 9 12 12 22 8 11 -4 15 -2 11 4 -4
6 0 16 8 23 8 7 15 9 15 5 0 -5 8 -1 18 7 32 28 141 80 153 72 7 -4 9 -3 6 3
-7 10 65 43 94 43 8 0 20 5 27 12 7 7 12 9 12 5 0 -3 11 -2 24 3 13 5 43 12
67 15 24 4 48 9 53 12 5 4 6 0 1 -8 -7 -11 -6 -12 6 -4 8 6 27 12 43 14 21 2
26 -1 21 -11 -4 -7 1 -5 11 5 21 20 28 22 18 5z"/>
<path d="M3016 3217 c3 -10 9 -15 12 -12 3 3 0 11 -7 18 -10 9 -11 8 -5 -6z"/>
<path d="M2617 3205 c-4 -8 -3 -16 1 -19 4 -3 9 4 9 15 2 23 -3 25 -10 4z"/>
<path d="M2706 3212 c-3 -5 1 -9 9 -9 8 0 15 4 15 9 0 4 -4 8 -9 8 -6 0 -12
-4 -15 -8z"/>
<path d="M3090 3195 c0 -7 30 -13 34 -7 3 4 -4 9 -15 9 -10 1 -19 0 -19 -2z"/>
<path d="M2526 3168 c3 -5 10 -6 15 -3 13 9 11 12 -6 12 -8 0 -12 -4 -9 -9z"/>
<path d="M2490 3149 c0 -5 5 -7 10 -4 6 3 10 8 10 11 0 2 -4 4 -10 4 -5 0 -10
-5 -10 -11z"/>
<path d="M2400 3130 c-9 -6 -10 -10 -3 -10 6 0 15 5 18 10 8 12 4 12 -15 0z"/>
<path d="M3373 3115 c0 -8 4 -12 9 -9 5 3 6 10 3 15 -9 13 -12 11 -12 -6z"/>
<path d="M2386 3088 c3 -5 10 -6 15 -3 13 9 11 12 -6 12 -8 0 -12 -4 -9 -9z"/>
<path d="M2195 2990 c3 -5 8 -10 11 -10 2 0 4 5 4 10 0 6 -5 10 -11 10 -5 0
-7 -4 -4 -10z"/>
<path d="M2109 2853 c-13 -16 -12 -17 4 -4 16 13 21 21 13 21 -2 0 -10 -8 -17
-17z"/>
<path d="M2827 2824 c-1 -1 -24 -5 -52 -8 -124 -17 -268 -84 -370 -173 -31
-27 -135 -156 -135 -167 0 -5 -7 -17 -16 -27 -8 -9 -17 -23 -18 -31 -2 -7 -8
-24 -14 -38 -27 -62 -45 -141 -49 -215 -2 -44 -5 -90 -7 -102 -2 -13 0 -23 3
-23 3 0 7 -15 9 -33 3 -43 6 -60 13 -72 4 -5 6 -22 5 -37 -1 -15 1 -25 3 -22
3 3 16 -19 29 -48 13 -29 22 -54 20 -54 -2 -1 6 -11 16 -23 11 -12 16 -21 12
-21 -4 0 0 -7 8 -16 9 -9 29 -32 44 -52 35 -46 109 -115 133 -124 11 -4 22
-14 25 -23 4 -8 14 -15 24 -15 10 0 23 -6 29 -14 7 -8 34 -22 62 -32 45 -16
54 -25 50 -46 0 -5 4 -8 10 -8 6 0 8 7 5 16 -4 11 -1 14 12 10 9 -2 32 -7 50
-11 18 -4 30 -10 27 -15 -3 -5 -1 -12 5 -15 6 -4 10 -3 9 2 -3 20 2 27 11 13
5 -8 10 -10 10 -4 0 7 10 9 25 6 14 -2 22 -8 19 -13 -3 -5 0 -9 5 -9 6 0 11 5
11 10 0 6 7 10 16 10 9 0 12 -5 8 -12 -6 -10 -4 -10 7 0 7 6 17 12 22 12 4 0
5 -6 1 -12 -6 -10 -4 -10 7 0 7 6 29 12 49 12 20 0 41 5 48 12 8 8 12 9 12 1
0 -10 83 15 150 44 8 3 17 7 20 7 9 3 55 29 60 35 13 15 52 31 62 25 7 -5 9
-2 5 8 -4 11 6 21 33 34 21 10 36 22 33 26 -7 12 25 40 37 33 6 -4 9 -3 8 2
-4 16 14 53 23 47 5 -3 6 -10 3 -16 -4 -7 -2 -8 4 -4 6 4 9 12 6 19 -6 17 61
129 71 119 5 -4 5 -1 1 6 -4 7 -3 18 2 25 10 12 12 18 12 38 0 5 5 7 12 3 6
-4 8 -3 5 3 -8 13 3 74 12 69 3 -2 7 15 8 37 5 82 6 87 16 80 6 -4 7 -1 2 6
-4 7 -9 47 -12 89 -6 114 -7 127 -15 132 -4 3 -8 17 -10 30 -2 14 -19 59 -38
100 l-35 74 -8 -54 c-17 -127 -111 -247 -227 -292 -66 -25 -201 -31 -246 -9
-83 38 -99 48 -133 81 -41 38 -90 111 -96 141 -2 11 -6 23 -9 28 -11 16 -17
143 -7 137 5 -3 7 3 4 14 -7 26 5 72 17 65 5 -3 7 0 4 8 -6 18 27 78 66 120
17 18 30 36 30 40 0 5 4 6 8 3 5 -3 19 4 30 15 12 11 32 24 44 29 21 8 20 9
-12 11 -51 3 -131 4 -133 3z"/>
<path d="M2830 2636 c0 -2 7 -7 16 -10 8 -3 12 -2 9 4 -6 10 -25 14 -25 6z"/>
<path d="M2456 1513 c-6 -14 -5 -15 5 -6 7 7 10 15 7 18 -3 3 -9 -2 -12 -12z"/>
<path d="M3150 1430 c0 -5 5 -10 11 -10 5 0 7 5 4 10 -3 6 -8 10 -11 10 -2 0
-4 -4 -4 -10z"/>
<path d="M2693 1395 c0 -8 4 -12 9 -9 5 3 6 10 3 15 -9 13 -12 11 -12 -6z"/>
<path d="M3053 1395 c0 -8 4 -12 9 -9 5 3 6 10 3 15 -9 13 -12 11 -12 -6z"/>
<path d="M3090 1396 c0 -2 7 -7 16 -10 8 -3 12 -2 9 4 -6 10 -25 14 -25 6z"/>
<path d="M2910 1331 c0 -6 4 -13 10 -16 6 -3 7 1 4 9 -7 18 -14 21 -14 7z"/>
<path d="M3310 4876 c0 -2 7 -7 16 -10 8 -3 12 -2 9 4 -6 10 -25 14 -25 6z"/>
<path d="M3135 4710 c3 -5 8 -10 11 -10 2 0 4 5 4 10 0 6 -5 10 -11 10 -5 0
-7 -4 -4 -10z"/>
<path d="M4730 4146 c0 -2 8 -10 18 -17 15 -13 16 -12 3 4 -13 16 -21 21 -21
13z"/>
<path d="M4176 4003 c-6 -14 -5 -15 5 -6 7 7 10 15 7 18 -3 3 -9 -2 -12 -12z"/>
<path d="M4336 4012 c-3 -5 1 -9 9 -9 8 0 12 4 9 9 -3 4 -7 8 -9 8 -2 0 -6 -4
-9 -8z"/>
<path d="M4515 4010 c-3 -5 -1 -10 4 -10 6 0 11 5 11 10 0 6 -2 10 -4 10 -3 0
-8 -4 -11 -10z"/>
<path d="M3976 3885 c-9 -26 -7 -32 5 -12 6 10 9 21 6 23 -2 3 -7 -2 -11 -11z"/>
<path d="M1413 815 c0 -8 4 -12 9 -9 5 3 6 10 3 15 -9 13 -12 11 -12 -6z"/>
<path d="M1476 728 c3 -5 10 -6 15 -3 13 9 11 12 -6 12 -8 0 -12 -4 -9 -9z"/>
<path d="M1549 653 c-13 -16 -12 -17 4 -4 16 13 21 21 13 21 -2 0 -10 -8 -17
-17z"/>
<path d="M4065 530 c-3 -6 1 -7 9 -4 18 7 21 14 7 14 -6 0 -13 -4 -16 -10z"/>
<path d="M3996 503 c-6 -14 -5 -15 5 -6 7 7 10 15 7 18 -3 3 -9 -2 -12 -12z"/>
<path d="M2156 272 c-3 -5 1 -9 9 -9 8 0 12 4 9 9 -3 4 -7 8 -9 8 -2 0 -6 -4
-9 -8z"/>
<path d="M3596 257 c3 -10 9 -15 12 -12 3 3 0 11 -7 18 -10 9 -11 8 -5 -6z"/>
<path d="M2256 248 c3 -5 10 -6 15 -3 13 9 11 12 -6 12 -8 0 -12 -4 -9 -9z"/>
<path d="M3547 249 c7 -7 15 -10 18 -7 3 3 -2 9 -12 12 -14 6 -15 5 -6 -5z"/>
<path d="M3455 230 c3 -5 8 -10 11 -10 2 0 4 5 4 10 0 6 -5 10 -11 10 -5 0 -7
-4 -4 -10z"/>
<path d="M3276 212 c-3 -5 1 -9 9 -9 8 0 12 4 9 9 -3 4 -7 8 -9 8 -2 0 -6 -4
-9 -8z"/>
<path d="M2413 185 c0 -8 4 -12 9 -9 5 3 6 10 3 15 -9 13 -12 11 -12 -6z"/>
<path d="M3510 190 c0 -5 5 -10 11 -10 5 0 7 5 4 10 -3 6 -8 10 -11 10 -2 0
-4 -4 -4 -10z"/>
<path d="M3230 169 c0 -5 5 -7 10 -4 6 3 10 8 10 11 0 2 -4 4 -10 4 -5 0 -10
-5 -10 -11z"/>
<path d="M2616 143 c-6 -14 -5 -15 5 -6 7 7 10 15 7 18 -3 3 -9 -2 -12 -12z"/>
</g>
</svg>
